<?xml version="1.0" encoding="iso-8859-1"?>
<!-- Generator: Adobe Illustrator 16.0.0, SVG Export Plug-In . SVG Version: 6.00 Build 0)  -->
<!DOCTYPE svg PUBLIC "-//W3C//DTD SVG 1.1//EN" "http://www.w3.org/Graphics/SVG/1.1/DTD/svg11.dtd">
<svg version="1.1" xmlns="http://www.w3.org/2000/svg" xmlns:xlink="http://www.w3.org/1999/xlink" x="0px" y="0px" width="395px"
	 height="534px" viewBox="0 0 395 534" style="enable-background:new 0 0 395 534;" xml:space="preserve">
<g id="normal">
	<g>
		<ellipse style="fill:#D8D9D8;" cx="210.083" cy="500.317" rx="110.96" ry="13.438"/>
		<path style="fill:#BF8E4A;" d="M155.574,387.44c0,0,5.582,76.523,23.361,76.574c17.781,0.051,6.637-75.459,22.637-76.555
			c16-1.098,6.281,78.504,23.281,78.555s26.719-78.574,26.719-78.574"/>
		<path style="fill:#BF8E4A;" d="M51.051,138.458c-15.5,21-15.074,43.926,2.5,61.5l41.459,36.171l63.639-63.639l-34.598-37.31
			C101.531,112.18,65.811,118.462,51.051,138.458z"/>
		<path style="fill:#BF8E4A;" d="M337.168,130.104c-21-15.5-43.926-15.074-61.5,2.5l-36.172,41.458l63.639,63.64l37.311-34.598
			C363.445,180.583,357.164,144.862,337.168,130.104z"/>
		<circle style="fill:#BF8E4A;" cx="203.573" cy="269.821" r="145.501"/>
		<path style="fill:#E5BF88;" d="M267.713,169.221c15.629,20.309,25.131,44.869,25.131,71.632
			c0,72.094-55.768,128.232-127.861,128.232c-23.213,0-44.705-6.066-63.184-16.689c23.037,31.076,59.566,51.117,101.775,51.117
			c72.094,0,127.861-56.139,127.861-128.232C331.436,230.614,304.982,192.081,267.713,169.221z"/>
		<path style="fill:#F2CF96;" d="M292.844,240.853c0-26.763-9.502-51.323-25.131-71.632c-22.887-14.039-49.848-22.171-77.277-22.171
			c-72.094,0-114.5,53.829-114.5,125.923c0,29.886,9.551,57.419,25.863,79.423c18.479,10.623,39.971,16.689,63.184,16.689
			C237.076,369.085,292.844,312.946,292.844,240.853z"/>
		<path style="fill:#393A3A;" d="M287.869,236.086c0,5.937-2.238,10.436-8.176,10.436c-5.936,0-13.32-4.499-13.32-10.436
			c0-5.936,4.814-10.746,10.75-10.746C283.057,225.34,287.869,230.15,287.869,236.086z"/>
		<path style="fill:#393A3A;" d="M127.035,225.506c5.891-0.744,10.633,0.914,11.377,6.806c0.744,5.888-2.795,13.779-8.684,14.521
			c-5.891,0.744-11.266-3.43-12.01-9.319C116.977,231.626,121.146,226.249,127.035,225.506z"/>
		<path style="fill:#393A3A;" d="M204.383,276.796c-10.584,0.631-27.332-15.131-20.322-26.656c4.859-7.994,39.76-4.362,40.645,4.474
			C225.588,263.448,217.637,276.005,204.383,276.796z"/>
		<path style="fill:#4A4A4B;" d="M192.498,271.523c0,0,0.072-7.032,4.77-7.032s3.092,11.828,3.092,11.828"/>
		<path style="fill:#4A4A4B;" d="M217.215,270.286c0,0-0.08-6.962-5.242-6.962c-5.16,0-3.396,12.995-3.396,12.995"/>
		<path style="fill:#AC7939;" d="M76.643,202.126l1.658-15.302l5.648,3.622l2.852-12.132l5.365,1.397l1.385-8.887l5.711,1.038
			l4.039-10.288h5.5l3.25-11.25l10.893,1.839c0,0-32.906-29.089-54.143-10.589C38.064,168.351,69.984,191.428,76.643,202.126z"/>
		<path style="fill:#AC7939;" d="M328.076,197.96v-13.386h-9.174v-12l-8.893,1.521l-4.709-14.521h-5.75v-6.5l-11.682-1v-5.024
			h-7.568c0,0,24.52-30.976,51.135-8.476S339.852,193.096,328.076,197.96z"/>
		<polyline style="fill:#BF8E4A;" points="158.648,150.912 158.648,157.741 168.385,152.408 174.051,157.741 184.391,147.05 
			188.385,152.396 199.051,147.05 205.051,155.074 219.385,147.05 224.771,160.074 239.496,151.408 217.215,139.074 
			167.385,142.408 		"/>
		<g>
			<path style="fill:none;stroke:#393A3A;stroke-width:5;stroke-miterlimit:10;" d="M203.574,271.266
				c0,0,3.941,36.202-29.467,36.202c-26.734,0-28.83-24.35-28.83-24.35"/>
			<path style="fill:none;stroke:#393A3A;stroke-width:5;stroke-miterlimit:10;" d="M203.574,271.266
				c0,0-3.943,36.202,29.465,36.202c26.734,0,28.83-24.35,28.83-24.35"/>
		</g>
	</g>
</g>
<g id="Layer_1">
</g>
</svg>
