<?xml version="1.0" encoding="iso-8859-1"?>
<!-- Generator: Adobe Illustrator 16.0.0, SVG Export Plug-In . SVG Version: 6.00 Build 0)  -->
<!DOCTYPE svg PUBLIC "-//W3C//DTD SVG 1.1//EN" "http://www.w3.org/Graphics/SVG/1.1/DTD/svg11.dtd">
<svg version="1.1" xmlns="http://www.w3.org/2000/svg" xmlns:xlink="http://www.w3.org/1999/xlink" x="0px" y="0px" width="395px"
	 height="534px" viewBox="0 0 395 534" style="enable-background:new 0 0 395 534;" xml:space="preserve">
<g id="happy">
	<g>
		<ellipse style="fill:#D8D9D8;" cx="210.083" cy="500.317" rx="110.96" ry="13.438"/>
		<path style="fill:#BF8E4A;" d="M155.574,352.956c0,0,5.582,55.559,23.361,55.609c17.781,0.051,6.637-54.494,22.637-55.592
			c16-1.096,6.281,82.93,23.281,82.98s26.719-82.998,26.719-82.998"/>
		<path style="fill:#BF8E4A;" d="M51.051,103.973c-15.5,21-15.074,43.926,2.5,61.5l41.459,36.171l63.639-63.64l-34.598-37.31
			C101.531,77.695,65.811,83.977,51.051,103.973z"/>
		<path style="fill:#BF8E4A;" d="M337.168,95.618c-21-15.5-43.926-15.073-61.5,2.5l-36.172,41.459l63.639,63.639l37.311-34.598
			C363.445,146.098,357.164,110.377,337.168,95.618z"/>
		<circle style="fill:#BF8E4A;" cx="203.573" cy="235.336" r="145.501"/>
		<path style="fill:#E5BF88;" d="M267.713,134.735c15.629,20.309,25.131,44.869,25.131,71.633
			c0,72.092-55.768,128.231-127.861,128.231c-23.213,0-44.705-6.066-63.184-16.689c23.037,31.078,59.566,51.117,101.775,51.117
			c72.094,0,127.861-56.139,127.861-128.231C331.436,196.129,304.982,157.596,267.713,134.735z"/>
		<path style="fill:#F2CF96;" d="M292.844,206.368c0-26.764-9.502-51.324-25.131-71.633c-22.887-14.039-49.848-22.17-77.277-22.17
			c-72.094,0-114.5,53.828-114.5,125.923c0,29.885,9.551,57.419,25.863,79.421c18.479,10.623,39.971,16.689,63.184,16.689
			C237.076,334.599,292.844,278.46,292.844,206.368z"/>
		<path style="fill:#393A3A;" d="M287.869,201.601c0,5.937-2.238,10.434-8.176,10.434c-5.936,0-13.32-4.498-13.32-10.434
			s4.814-10.747,10.75-10.747C283.057,190.854,287.869,195.665,287.869,201.601z"/>
		<path style="fill:#393A3A;" d="M127.035,191.02c5.891-0.743,10.633,0.915,11.377,6.807c0.744,5.887-2.795,13.779-8.684,14.521
			c-5.891,0.744-11.266-3.43-12.01-9.319C116.977,197.141,121.146,191.764,127.035,191.02z"/>
		<path style="fill:#393A3A;" d="M204.383,242.311c-10.584,0.631-27.332-15.131-20.322-26.656c4.859-7.995,39.76-4.363,40.645,4.473
			C225.588,228.963,217.637,241.52,204.383,242.311z"/>
		
			<line style="fill:none;stroke:#393A3A;stroke-width:5;stroke-miterlimit:10;" x1="203.574" y1="228.922" x2="203.574" y2="251.881"/>
		<path style="fill:#4A4A4B;" d="M192.498,237.039c0,0,0.072-7.033,4.77-7.033s3.092,11.826,3.092,11.826"/>
		<path style="fill:#4A4A4B;" d="M217.215,235.801c0,0-0.08-6.963-5.242-6.963c-5.16,0-3.396,12.994-3.396,12.994"/>
		<path style="fill:#AC7939;" d="M76.643,167.641l1.658-15.303l5.648,3.623l2.852-12.133l5.365,1.396l1.385-8.887l5.711,1.038
			l4.039-10.288h5.5l3.25-11.25l10.893,1.84c0,0-32.906-29.09-54.143-10.59C38.064,133.866,69.984,156.942,76.643,167.641z"/>
		<path style="fill:#AC7939;" d="M328.076,163.475v-13.387h-9.174v-12l-8.893,1.521l-4.709-14.521h-5.75v-6.5l-11.682-1v-5.023
			h-7.568c0,0,24.52-30.977,51.135-8.477S339.852,158.61,328.076,163.475z"/>
		<polyline style="fill:#BF8E4A;" points="158.648,116.426 158.648,123.255 168.385,117.922 174.051,123.255 184.391,112.565 
			188.385,117.911 199.051,112.565 205.051,120.588 219.385,112.565 224.771,125.588 239.496,116.922 217.215,104.588 
			167.385,107.922 		"/>
		<g>
			<path style="fill:#EB8BB8;" d="M256.168,297.251c1.379-0.887,2.734-1.785,4.043-2.709c27.174-19.17,25.463-44.944,25.463-44.944
				l-166.73,6.729c0,0-2.418,24.163,23.07,41.167c0.676,0.449,1.373,0.891,2.068,1.33c14.084-9.047,31.887-15.992,53.854-16.846
				C222.238,281.034,241.455,287.937,256.168,297.251z"/>
			<path style="fill:#DB76AB;" d="M202.314,314.097c21.967-0.854,39.77-7.799,53.854-16.846
				c-14.713-9.314-33.93-16.217-58.232-15.273c-21.967,0.854-39.77,7.799-53.854,16.846
				C158.797,308.138,178.012,315.04,202.314,314.097z"/>
		</g>
	</g>
</g>
<g id="Layer_1">
</g>
</svg>
