<?xml version="1.0" encoding="iso-8859-1"?>
<!-- Generator: Adobe Illustrator 16.0.0, SVG Export Plug-In . SVG Version: 6.00 Build 0)  -->
<!DOCTYPE svg PUBLIC "-//W3C//DTD SVG 1.1//EN" "http://www.w3.org/Graphics/SVG/1.1/DTD/svg11.dtd">
<svg version="1.1" xmlns="http://www.w3.org/2000/svg" xmlns:xlink="http://www.w3.org/1999/xlink" x="0px" y="0px" width="395px"
	 height="534px" viewBox="0 0 395 534" style="enable-background:new 0 0 395 534;" xml:space="preserve">
<g id="ecstatic">
	<g>
		<path style="fill:#BF8E4A;" d="M51.051,74.489c-15.5,21-15.073,43.926,2.5,61.5L95.01,172.16l63.639-63.64l-34.598-37.31
			C101.531,48.21,65.811,54.493,51.051,74.489z"/>
		<path style="fill:#BF8E4A;" d="M337.168,66.133c-21-15.5-43.926-15.073-61.5,2.5l-36.172,41.459l63.639,63.639l37.311-34.598
			C363.445,116.614,357.164,80.893,337.168,66.133z"/>
		<path style="fill:#AC7939;" d="M76.643,138.157l1.658-15.303l5.648,3.623l2.852-12.133l5.365,1.396l1.385-8.887l5.711,1.038
			l4.039-10.288h5.5l3.25-11.25l10.894,1.84c0,0-32.907-29.09-54.144-10.59C38.064,104.381,69.984,127.458,76.643,138.157z"/>
		<path style="fill:#AC7939;" d="M328.076,133.991v-13.387h-9.174v-12l-8.893,1.521l-4.709-14.521h-5.75v-6.5l-11.682-1v-5.023
			h-7.568c0,0,24.52-30.977,51.135-8.477S339.852,129.125,328.076,133.991z"/>
		<path style="fill:#BF8E4A;" d="M155.574,323.472c0,0-30.418,73.297-12.639,73.348c17.781,0.051,42.637-72.232,58.637-73.33
			c16-1.096,46.281,75.93,63.281,75.98s-13.281-75.998-13.281-75.998"/>
		<circle style="fill:#BF8E4A;" cx="203.573" cy="205.851" r="145.501"/>
		<g>
			<path style="fill:#E5BF88;" d="M200.451,296.257c-51.793,0-95.828-24.841-120.217-62.103
				c11.922,59.071,62.149,103.405,124.939,103.405c70.992,0,126.152-54.436,127.822-124.938
				C313.615,261.99,262.523,296.257,200.451,296.257z"/>
			<path style="fill:#F2CF96;" d="M200.451,296.257c62.072,0,113.164-34.267,132.545-83.636c0.025-1.094,0.039-2.191,0.039-3.293
				c0-13.169-2.307-25.801-6.504-37.659c-18.783-53.066-75.57-90.571-134.496-90.571c-57.355,0-95.918,34.071-109.289,84.303
				c-3.436,12.908-5.211,26.882-5.211,41.621c0,9.305,0.933,18.379,2.699,27.133C104.623,271.416,148.658,296.257,200.451,296.257z"
				/>
		</g>
		<ellipse style="fill:#D8D9D8;" cx="210.083" cy="500.317" rx="110.96" ry="13.438"/>
		<g>
			<path style="fill:#DB76AB;" d="M208.916,278.267c8.977,0.162,17.696-0.863,26.026-2.902l-45.076,0.936
				C196.132,277.479,202.508,278.151,208.916,278.267z"/>
			<path style="fill:#EB8BB8;" d="M155.318,176.139l-55.034,1.583c-0.394,21.817,7.484,41.727,20.556,57.971
				c5.137,6.381,11.074,12.197,17.629,17.34c1.975-6.822,4.825-13.244,8.707-19.008c8.141-12.088,20.767-21.307,39.124-25.359
				c5.827-1.497,11.95-2.245,18.257-2.133c23.039,0.416,45.453,11.492,59.258,28.644c5.303,6.592,9.323,14.084,11.631,22.209
				c7.494-5.76,13.715-12.492,18.758-19.98c12.312-18.283,17.723-40.982,18.146-64.528L155.318,176.139z"/>
			<path style="fill:#DB76AB;" d="M204.557,206.534c-6.307-0.112-12.43,0.636-18.257,2.133
				c-18.357,4.052-30.983,13.271-39.124,25.359c-3.882,5.764-6.732,12.186-8.707,19.008c14.728,11.557,32.564,19.717,51.397,23.267
				l45.076-0.936c0.369-0.092,0.741-0.172,1.109-0.266c15.913-3.515,28.909-9.653,39.394-17.712
				c-2.308-8.125-6.328-15.617-11.631-22.209C250.01,218.025,227.596,206.95,204.557,206.534z"/>
		</g>
		<g>
			<path style="fill:#393A3A;" d="M204.383,158.583c-10.584,0.631-27.332-15.13-20.322-26.656c4.86-7.994,39.76-4.362,40.645,4.474
				C225.589,145.237,217.637,157.793,204.383,158.583z"/>
			
				<line style="fill:none;stroke:#393A3A;stroke-width:5;stroke-miterlimit:10;" x1="203.574" y1="145.196" x2="203.574" y2="173.731"/>
			<path style="fill:#4A4A4B;" d="M192.498,153.312c0,0,0.072-7.032,4.77-7.032s3.092,11.826,3.092,11.826"/>
			<path style="fill:#4A4A4B;" d="M217.215,152.075c0,0-0.08-6.963-5.241-6.963s-3.397,12.994-3.397,12.994"/>
		</g>
		<polyline style="fill:#BF8E4A;" points="158.648,86.942 158.648,93.771 168.385,88.438 174.051,93.771 184.391,83.081 
			188.385,88.426 199.051,83.081 205.051,91.104 219.385,83.081 224.771,96.104 239.496,87.438 217.215,75.104 167.385,78.438 		"/>
		<path style="fill:#383938;" d="M301.584,144.729c0,7.588-6.152-3.738-13.74-3.738s-13.738,11.326-13.738,3.738
			s6.152-13.738,13.74-13.738S301.584,137.141,301.584,144.729z"/>
		<path style="fill:#383938;" d="M132.74,145.404c0,7.588-6.151-3.738-13.739-3.738s-13.739,11.326-13.739,3.738
			s6.152-13.738,13.74-13.738S132.74,137.816,132.74,145.404z"/>
	</g>
</g>
<g id="Layer_1">
</g>
</svg>
