<?xml version="1.0" encoding="iso-8859-1"?>
<!-- Generator: Adobe Illustrator 16.0.0, SVG Export Plug-In . SVG Version: 6.00 Build 0)  -->
<!DOCTYPE svg PUBLIC "-//W3C//DTD SVG 1.1//EN" "http://www.w3.org/Graphics/SVG/1.1/DTD/svg11.dtd">
<svg version="1.1" xmlns="http://www.w3.org/2000/svg" xmlns:xlink="http://www.w3.org/1999/xlink" x="0px" y="0px" width="395px"
	 height="534px" viewBox="0 0 395 534" style="enable-background:new 0 0 395 534;" xml:space="preserve">
<g id="sick">
	<g>
		<ellipse style="fill:#D8D9D8;" cx="212.75" cy="500.317" rx="110.959" ry="13.438"/>
		<path style="fill:#BF8E4A;" d="M265.717,457.587c0,0,51.846,32.16,41.848,39.057c-11.203,7.729-62.002-29.965-75.002-27.607
			c-17.65,3.201,64.748,30.211,52.441,39.143c-10.531,7.643-76.719-15-76.719-15c-63.973-17-96.445-44.891-96.445-44.891"/>
		<path style="fill:#BF8E4A;" d="M51.051,203.983c-15.5,21-15.074,43.925,2.5,61.5l41.459,36.173l63.639-63.642l-34.598-37.309
			C101.531,177.705,65.811,183.987,51.051,203.983z"/>
		<path style="fill:#BF8E4A;" d="M337.168,195.627c-21-15.5-43.926-15.073-61.5,2.5l-36.172,41.458l63.639,63.64l37.311-34.599
			C363.445,246.107,357.164,210.387,337.168,195.627z"/>
		<path style="fill:#BF8E4A;" d="M349.074,335.347c0,80.357-65.143,145.5-145.5,145.5c-80.359,0-145.502-65.143-145.502-145.5
			c0-80.36,65.143-145.502,145.502-145.502C283.932,189.844,349.074,254.986,349.074,335.347z"/>
		<g>
			<path style="fill:#E5BF88;" d="M203.564,374.528c-46.16,0-86.107-21.914-111.301-55.9c-4.414-5.955-8.375-12.281-11.838-18.924
				c-2.963,12.113-4.49,25.125-4.49,38.795c0,29.885,9.551,57.418,25.863,79.42c23.037,31.078,59.566,51.117,101.775,51.117
				c72.094,0,127.861-56.139,127.861-128.23c0-12.697-2.143-24.896-6.059-36.383C301.65,346.685,256.656,374.528,203.564,374.528z"
				/>
			<path style="fill:#F2CF96;" d="M203.564,374.528c53.092,0,98.086-27.844,121.812-70.105
				c-9.859-28.922-30.988-53.315-57.664-69.679c-22.887-14.039-49.848-22.17-77.277-22.17c-58.424,0-97.348,35.354-110.01,87.13
				c3.463,6.643,7.424,12.969,11.838,18.924C117.457,352.614,157.404,374.528,203.564,374.528z"/>
		</g>
		<path style="fill:#393A3A;" d="M144.225,373.647c0.895,2.316-5.246,4.398-10.609,6.947c-5.357,2.547-11.373,9.641-13.697,7.811
			c-2.416-1.902,6.881-10.285,12.242-12.832C137.52,373.024,143.5,371.767,144.225,373.647z"/>
		<g>
			<path style="fill:#EB8BB8;" d="M209.781,437.196c-20.822-2.811-50.926,10.723-59.229,1.633c-2.348,2.719-3.377,5.613-2.578,8.596
				c4.094,15.262,38.16-1.367,61.021,1.717c22.887,3.094,47.422,10.594,49.045-2.926c0.271-2.256-0.473-4.512-2.002-6.697
				C248.75,445.313,228.709,439.753,209.781,437.196z"/>
			<path style="fill:#DB76AB;" d="M214.119,421.198c-18.578-2.518-53.414,5.883-63.566,17.631c8.303,9.09,38.406-4.443,59.229-1.633
				c18.928,2.557,38.969,8.117,46.258,2.322C250.131,431.063,232.287,423.642,214.119,421.198z"/>
		</g>
		<path style="fill:#393A3A;" d="M265.805,369.313c-0.895,2.316,5.246,4.398,10.609,6.947c5.357,2.547,11.373,9.641,13.697,7.811
			c2.416-1.902-6.881-10.285-12.242-12.832C272.51,368.69,266.529,367.433,265.805,369.313z"/>
		<path style="fill:#393A3A;" d="M204.383,414.321c-10.584,0.631-27.332-15.131-20.322-26.656c4.859-7.994,39.76-4.363,40.645,4.473
			C225.588,400.974,217.637,413.53,204.383,414.321z"/>
		
			<line style="fill:none;stroke:#393A3A;stroke-width:5;stroke-miterlimit:10;" x1="203.574" y1="400.933" x2="203.574" y2="420.712"/>
		<path style="fill:#4A4A4B;" d="M192.498,409.05c0,0,0.072-7.033,4.77-7.033s3.092,11.826,3.092,11.826"/>
		<path style="fill:#4A4A4B;" d="M217.215,407.812c0,0-0.08-6.963-5.242-6.963c-5.16,0-3.396,12.994-3.396,12.994"/>
		<path style="fill:#AC7939;" d="M76.643,267.65l1.658-15.303l5.648,3.623l2.852-12.133l5.365,1.396l1.385-8.887l5.711,1.039
			l4.039-10.289h5.5l3.25-11.25l10.893,1.84c0,0-32.906-29.089-54.143-10.589C38.064,233.875,69.984,256.951,76.643,267.65z"/>
		<path style="fill:#AC7939;" d="M328.076,263.484v-13.387h-9.174v-12l-8.893,1.521l-4.709-14.521h-5.75v-6.5l-11.682-1v-5.023
			h-7.568c0,0,24.52-30.976,51.135-8.476C358.051,226.598,339.852,258.619,328.076,263.484z"/>
		<polyline style="fill:#BF8E4A;" points="158.648,216.436 158.648,223.266 168.385,217.932 174.051,223.266 184.391,212.574 
			188.385,217.92 199.051,212.574 205.051,220.598 219.385,212.574 224.771,225.598 239.496,216.932 217.215,204.598 
			167.385,207.932 		"/>
		<path style="opacity:0.6;fill:#FFFFFF;stroke:#E5E5E5;stroke-width:0.25;stroke-miterlimit:10;" d="M281.01,295.794
			c0,0-8.271,16.227-12.113,35.355c-3.84,19.129,5.217,23.062,18.662,23.062s17.592-13.66,12.062-27.461
			C294.09,312.948,281.01,295.794,281.01,295.794z"/>
		<g>
			<g>
				<path style="fill:#CA6AA0;" d="M234.508,470.226c-0.199-0.01-0.383-0.047-0.578-0.062l-3.879-33.395
					c-0.02-0.006-0.039-0.008-0.059-0.014l3.938,33.902c-1.619-0.127-3.125-0.42-4.521-0.854l0.816,4.375
					c0.195,0.016-0.578-2.711,0,0c0.092,0.434-0.426,0.008,0,0c6.67-0.107,13.174-1.131,14.771-7.455
					c-2.291,2.209-5.412,3.447-9.195,3.508C235.375,470.239,234.949,470.249,234.508,470.226z"/>
				<path style="fill:#CA6AA0;" d="M215.332,449.95c-0.086-4.514-1.021-6.418-2.092-10.271c-1.697-2.318-3.844-5.801-5.812-5.5
					c0,0,4.033,13.791,4.199,22.438c0.162,8.514,5.9,16.57,18.598,17.562l-0.875-4.395
					C219.844,466.808,215.475,457.362,215.332,449.95z"/>
				<path style="fill:#DB76AB;" d="M245.553,459.669c-0.59-9.088-5.949-19.35-5.949-19.35s-3.014-2.193-9.553-3.551l3.879,33.395
					c0.195,0.016,0.379,0.053,0.578,0.062c0.441,0.023,0.867,0.014,1.293,0.006c3.783-0.061,6.904-1.299,9.195-3.508
					C245.523,464.64,245.723,462.276,245.553,459.669z"/>
				<path style="fill:#DB76AB;" d="M229.992,436.755c-1.297-0.268-2.719-0.506-4.297-0.684c-0.068-0.008-0.137-0.016-0.207-0.021
					l3.92,33.754c1.396,0.434,2.902,0.727,4.521,0.854L229.992,436.755z"/>
				<path style="fill:#DB76AB;" d="M209.244,434.81c5.344,5.994,6.002,10.627,6.088,15.141c0.143,7.412,4.512,16.857,14.018,19.834
					l-3.861-33.242C222.029,436.165,214.1,434.399,209.244,434.81z"/>
			</g>
			<path style="fill:#CA6AA0;" d="M222.463,435.304c0,0,8.926,13.475,10.066,23.295c0,0,0.684-19.67-7.041-22.057L222.463,435.304z"
				/>
		</g>
	</g>
</g>
<g id="Layer_1">
</g>
</svg>
