<?xml version="1.0" encoding="iso-8859-1"?>
<!-- Generator: Adobe Illustrator 16.0.0, SVG Export Plug-In . SVG Version: 6.00 Build 0)  -->
<!DOCTYPE svg PUBLIC "-//W3C//DTD SVG 1.1//EN" "http://www.w3.org/Graphics/SVG/1.1/DTD/svg11.dtd">
<svg version="1.1" xmlns="http://www.w3.org/2000/svg" xmlns:xlink="http://www.w3.org/1999/xlink" x="0px" y="0px" width="395px"
	 height="534px" viewBox="0 0 395 534" style="enable-background:new 0 0 395 534;" xml:space="preserve">
<g id="eating">
	<g>
		<path style="fill:#BF8E4A;" d="M155.574,385.138c0,0,5.582,76.525,23.361,76.576c17.781,0.051,6.637-75.461,22.637-76.557
			c16-1.098,6.281,78.506,23.281,78.557s26.719-78.576,26.719-78.576"/>
		<path style="fill:#BF8E4A;" d="M51.051,133.943c-15.5,21-15.074,43.926,2.5,61.5l41.459,36.171l63.639-63.639l-34.598-37.31
			C101.531,107.665,65.811,113.947,51.051,133.943z"/>
		<path style="fill:#BF8E4A;" d="M337.168,125.588c-21-15.5-43.926-15.074-61.5,2.5l-36.172,41.458l63.639,63.639l37.311-34.597
			C363.445,176.068,357.164,140.347,337.168,125.588z"/>
		<circle style="fill:#BF8E4A;" cx="203.573" cy="265.307" r="145.501"/>
		<ellipse style="fill:#D8D9D8;" cx="210.083" cy="500.317" rx="110.96" ry="13.438"/>
		<path style="fill:#DCB680;" d="M267.713,164.706c15.629,20.309,25.131,44.869,25.131,71.632
			c0,72.093-55.768,128.231-127.861,128.231c-23.213,0-44.705-6.066-63.184-16.689c23.037,31.078,59.566,51.117,101.775,51.117
			c72.094,0,127.861-56.139,127.861-128.231C331.436,226.1,304.982,187.566,267.713,164.706z"/>
		<path style="fill:#F2CF96;" d="M292.844,236.338c0-26.763-9.502-51.324-25.131-71.632c-22.887-14.039-49.848-22.171-77.277-22.171
			c-72.094,0-114.5,53.829-114.5,125.924c0,29.886,9.551,57.419,25.863,79.421c18.479,10.623,39.971,16.689,63.184,16.689
			C237.076,364.569,292.844,308.431,292.844,236.338z"/>
		<g>
			<path style="fill:#393A3A;" d="M204.383,250.586c-10.584,0.631-27.332-15.131-20.322-26.656
				c4.859-7.994,39.76-4.362,40.645,4.474C225.588,237.238,217.637,249.795,204.383,250.586z"/>
			
				<line style="fill:none;stroke:#393A3A;stroke-width:5;stroke-miterlimit:10;" x1="203.574" y1="237.197" x2="203.574" y2="256.979"/>
			<path style="fill:#4A4A4B;" d="M192.498,245.314c0,0,0.072-7.033,4.77-7.033s3.092,11.828,3.092,11.828"/>
			<path style="fill:#4A4A4B;" d="M217.215,244.076c0,0-0.08-6.962-5.242-6.962c-5.16,0-3.396,12.995-3.396,12.995"/>
		</g>
		<path style="fill:#AC7939;" d="M76.643,197.611l1.658-15.302l5.648,3.622l2.852-12.132l5.365,1.397l1.385-8.887l5.711,1.038
			l4.039-10.288h5.5l3.25-11.25l10.893,1.839c0,0-32.906-29.089-54.143-10.589C38.064,163.835,69.984,186.913,76.643,197.611z"/>
		<path style="fill:#AC7939;" d="M328.076,193.445v-13.386h-9.174v-12l-8.893,1.521l-4.709-14.521h-5.75v-6.5l-11.682-1v-5.024
			h-7.568c0,0,24.52-30.976,51.135-8.476S339.852,188.581,328.076,193.445z"/>
		<polyline style="fill:#BF8E4A;" points="158.648,146.397 158.648,153.226 168.385,147.893 174.051,153.226 184.391,142.535 
			188.385,147.88 199.051,142.535 205.051,150.559 219.385,142.535 224.771,155.559 239.496,146.893 217.215,134.559 
			167.385,137.893 		"/>
		<path style="fill:#393A3A;" d="M141.062,227.613c1.465,5.753-5.5,1.841-13.645,4.625c-5.615,1.92-9.537,8.689-11,2.937
			c-1.465-5.753,5.029-12.169,10.781-13.632C132.951,220.079,139.598,221.861,141.062,227.613z"/>
		<path style="fill:#393A3A;" d="M266.973,222.613c-1.463,5.753,5.5,1.841,13.645,4.625c5.615,1.92,9.537,8.689,11,2.937
			c1.465-5.753-5.029-12.169-10.781-13.632C275.084,215.079,268.438,216.861,266.973,222.613z"/>
		<g>
			<g>
				<path style="fill:#EB8BB8;" d="M203.25,257.764c-56.311,0-101.961,17.247-101.961,53.696c0,16.883,9.799,33.658,25.91,46.807
					c3.238,2.643,6.736,5.135,10.457,7.455c2.578-11.521,7.963-22.475,15.391-31.656c12.326-15.238,30.25-25.604,50.203-25.604
					c19.955,0,37.879,10.365,50.205,25.604c7.426,9.182,12.812,20.135,15.391,31.656c3.721-2.32,7.219-4.812,10.457-7.455
					c16.111-13.148,25.91-29.924,25.91-46.807C305.213,275.011,259.562,257.764,203.25,257.764z"/>
				<path style="fill:#DB76AB;" d="M203.25,308.462c-19.953,0-37.877,10.365-50.203,25.604
					c-7.428,9.182-12.812,20.135-15.391,31.656c17.73,11.062,40.607,18.148,65.594,18.148s47.865-7.086,65.596-18.148
					c-2.578-11.521-7.965-22.475-15.391-31.656C241.129,318.827,223.205,308.462,203.25,308.462z"/>
			</g>
			<path style="fill:#F4F4F4;" d="M125.34,274.196c0,0,15.209,5.293,23.432,1.582c8.225-3.712,8.541-10.472,8.541-10.472
				s7.082,6.268,22.525,4.229c12.66-1.672,16.723-10.326,16.723-10.326s3.906,10.338,20.057,10.631
				c13.75,0.25,18.695-7.227,18.695-7.227s0.719,7.289,12.141,10.692c11.42,3.4,17.609-4.942,17.609-4.942s1.732,8.04,9.5,11.751
				c7.766,3.711,15.957,0.545,15.957,0.545s-15.988-23.903-86.457-23.896C162.279,256.77,130.775,268.287,125.34,274.196z"/>
			<path style="fill:#F4F4F4;" d="M155.574,374.788c0,0,9.613-4.379,18.154-3.008c9.334,1.5,12.678,8.143,12.678,8.143
				s4.066-6.863,14.615-6.883c10.551-0.02,15.277,8.289,15.277,8.289s5.195-7.631,14.098-9.215
				c9.453-1.682,16.072,4.365,16.072,4.365s-15.572,7.148-43.219,7.391C176.857,384.103,155.574,374.788,155.574,374.788z"/>
		</g>
	</g>
</g>
<g id="Layer_1">
</g>
</svg>
