<?xml version="1.0" encoding="iso-8859-1"?>
<!-- Generator: Adobe Illustrator 16.0.0, SVG Export Plug-In . SVG Version: 6.00 Build 0)  -->
<!DOCTYPE svg PUBLIC "-//W3C//DTD SVG 1.1//EN" "http://www.w3.org/Graphics/SVG/1.1/DTD/svg11.dtd">
<svg version="1.1" xmlns="http://www.w3.org/2000/svg" xmlns:xlink="http://www.w3.org/1999/xlink" x="0px" y="0px" width="395px"
	 height="534px" viewBox="0 0 395 534" style="enable-background:new 0 0 395 534;" xml:space="preserve">
<g id="nogood">
	<g>
		<ellipse style="fill:#D8D9D8;" cx="203.584" cy="500.317" rx="110.959" ry="13.438"/>
		<path style="fill:#BF8E4A;" d="M155.574,432.319c0,0,15.582,70.184,33.361,70.234c17.781,0.051-3.363-69.119,12.637-70.217
			c16-1.096-3.719,72.166,13.281,72.217s36.719-72.234,36.719-72.234"/>
		<path style="fill:#BF8E4A;" d="M51.051,183.336c-15.5,21-15.074,43.925,2.5,61.5l41.459,36.173l63.639-63.642l-34.598-37.309
			C101.531,157.058,65.811,163.34,51.051,183.336z"/>
		<path style="fill:#BF8E4A;" d="M337.168,174.981c-21-15.5-43.926-15.073-61.5,2.5l-36.172,41.458l63.639,63.64l37.311-34.599
			C363.445,225.461,357.164,189.741,337.168,174.981z"/>
		<path style="fill:#BF8E4A;" d="M349.074,314.7c0,80.357-65.143,145.5-145.5,145.5c-80.359,0-145.502-65.143-145.502-145.5
			c0-80.36,65.143-145.502,145.502-145.502C283.932,169.198,349.074,234.34,349.074,314.7z"/>
		<path style="fill:#E5BF88;" d="M267.713,214.098c15.629,20.309,25.131,44.869,25.131,71.634
			c0,72.092-55.768,128.23-127.861,128.23c-23.213,0-44.705-6.066-63.184-16.689c23.037,31.078,59.566,51.117,101.775,51.117
			c72.094,0,127.861-56.139,127.861-128.23C331.436,275.493,304.982,236.959,267.713,214.098z"/>
		<path style="fill:#F2CF96;" d="M292.844,285.731c0-26.765-9.502-51.325-25.131-71.634c-22.887-14.039-49.848-22.169-77.277-22.169
			c-72.094,0-114.5,53.828-114.5,125.924c0,29.885,9.551,57.418,25.863,79.42c18.479,10.623,39.971,16.689,63.184,16.689
			C237.076,413.962,292.844,357.823,292.844,285.731z"/>
		<path style="fill:#393A3A;" d="M287.869,330.157c0,5.938-2.238,10.436-8.176,10.436c-5.936,0-13.32-4.498-13.32-10.436
			c0-5.936,4.814-10.746,10.75-10.746C283.057,319.411,287.869,324.222,287.869,330.157z"/>
		<path style="fill:#393A3A;" d="M127.035,319.577c5.891-0.744,10.633,0.914,11.377,6.807c0.744,5.887-2.795,13.777-8.684,14.521
			c-5.891,0.744-11.266-3.432-12.01-9.32C116.977,325.698,121.146,320.321,127.035,319.577z"/>
		<path style="fill:#393A3A;" d="M204.383,370.866c-10.584,0.631-27.332-15.129-20.322-26.656c4.859-7.994,39.76-4.361,40.645,4.475
			C225.588,357.521,217.637,370.077,204.383,370.866z"/>
		
			<line style="fill:none;stroke:#393A3A;stroke-width:5;stroke-miterlimit:10;" x1="203.574" y1="357.479" x2="203.574" y2="393.272"/>
		<path style="fill:#4A4A4B;" d="M192.498,365.595c0,0,0.072-7.031,4.77-7.031s3.092,11.826,3.092,11.826"/>
		<path style="fill:#4A4A4B;" d="M217.215,364.358c0,0-0.08-6.963-5.242-6.963c-5.16,0-3.396,12.994-3.396,12.994"/>
		<path style="fill:#AC7939;" d="M76.643,247.004l1.658-15.303l5.648,3.623l2.852-12.133l5.365,1.396l1.385-8.887l5.711,1.039
			l4.039-10.289h5.5l3.25-11.25l10.893,1.84c0,0-32.906-29.09-54.143-10.59C38.064,213.229,69.984,236.305,76.643,247.004z"/>
		<path style="fill:#AC7939;" d="M328.076,242.838v-13.387h-9.174v-12l-8.893,1.521l-4.709-14.521h-5.75v-6.5l-11.682-1v-5.023
			h-7.568c0,0,24.52-30.977,51.135-8.477S339.852,237.973,328.076,242.838z"/>
		<polyline style="fill:#BF8E4A;" points="158.648,195.79 158.648,202.619 168.385,197.286 174.051,202.619 184.391,191.928 
			188.385,197.274 199.051,191.928 205.051,199.952 219.385,191.928 224.771,204.952 239.496,196.286 217.215,183.952 
			167.385,187.286 		"/>
		<path style="fill:none;stroke:#393A3A;stroke-width:5;stroke-miterlimit:10;" d="M130.24,390.413c8.332,0,11-11.191,18.332-11.191
			c8.334,0,11,11.191,18.334,11.191c8.334,0,11-11.191,18.334-11.191c8.334,0,11,11.191,18.334,11.191
			c8.332,0,11-11.191,18.332-11.191c8.334,0,11,11.191,18.334,11.191c8.334,0,11-11.191,18.334-11.191
			c8.334,0,11,11.191,18.334,11.191"/>
	</g>
</g>
<g id="Layer_1">
</g>
</svg>
