<?xml version="1.0" encoding="iso-8859-1"?>
<!-- Generator: Adobe Illustrator 16.0.0, SVG Export Plug-In . SVG Version: 6.00 Build 0)  -->
<!DOCTYPE svg PUBLIC "-//W3C//DTD SVG 1.1//EN" "http://www.w3.org/Graphics/SVG/1.1/DTD/svg11.dtd">
<svg version="1.1" xmlns="http://www.w3.org/2000/svg" xmlns:xlink="http://www.w3.org/1999/xlink" x="0px" y="0px" width="395px"
	 height="534px" viewBox="0 0 395 534" style="enable-background:new 0 0 395 534;" xml:space="preserve">
<g id="happy">
	<g>
		<ellipse style="fill:#D8D9D8;" cx="208.416" cy="499.935" rx="110.96" ry="13.438"/>
		<path style="fill:#393A3A;" d="M75.821,166.258c0,0-34.652,8.105-30.932,20.91C48.61,199.971,56.876,173.239,75.821,166.258z"/>
		<path style="fill:#393A3A;" d="M74.657,163.807c0,0-21.59-4.738-22.84,2.621C50.567,173.79,62.188,162.495,74.657,163.807z"/>
		<path style="fill:#393A3A;" d="M84.173,165.508c0,0-52.867-21.816-55.375-15.436S53.743,154.334,84.173,165.508z"/>
		<path style="fill:#393A3A;" d="M319.179,156.258c0,0,34.652,8.105,30.932,20.91C346.39,189.971,338.124,163.239,319.179,156.258z"
			/>
		<path style="fill:#393A3A;" d="M320.343,153.807c0,0,21.59-4.738,22.84,2.621C344.433,163.79,332.812,152.495,320.343,153.807z"/>
		<path style="fill:#393A3A;" d="M310.827,155.508c0,0,52.867-21.816,55.375-15.435C368.71,146.454,341.257,144.334,310.827,155.508
			z"/>
		<path style="fill:#FCD73F;" d="M153.907,352.573c0,0,5.582,55.559,23.361,55.609c17.781,0.051,6.637-54.494,22.637-55.592
			c16-1.096,6.281,82.93,23.281,82.98s26.719-82.998,26.719-82.998"/>
		<circle style="fill:#FCD73F;" cx="201.906" cy="234.954" r="145.501"/>
		<path style="fill:#ECE2B8;" d="M266.046,134.353c15.629,20.308,25.131,44.869,25.131,71.632
			c0,72.092-55.768,128.231-127.861,128.231c-23.213,0-44.705-6.066-63.184-16.689c23.037,31.078,59.566,51.117,101.775,51.117
			c72.094,0,127.861-56.139,127.861-128.231C329.769,195.747,303.315,157.213,266.046,134.353z"/>
		<path style="fill:#F4EDCF;" d="M291.177,205.985c0-26.764-9.502-51.324-25.131-71.632c-22.887-14.039-49.848-22.17-77.277-22.17
			c-72.094,0-114.5,53.828-114.5,125.923c0,29.885,9.551,57.418,25.863,79.42c18.479,10.623,39.971,16.689,63.184,16.689
			C235.409,334.216,291.177,278.077,291.177,205.985z"/>
		<path style="fill:#393A3A;" d="M266.938,207.624c-3.689-4.648-4.734-9.564-0.084-13.258c4.646-3.689,13.229-4.758,16.92-0.109
			s2.912,11.41-1.736,15.102C277.39,213.047,270.63,212.272,266.938,207.624z"/>
		<path style="fill:#393A3A;" d="M136.122,196.411c2.789,5.242,2.926,10.264-2.316,13.053c-5.24,2.787-13.873,2.285-16.662-2.955
			c-2.787-5.242-0.797-11.75,4.443-14.537S133.335,191.17,136.122,196.411z"/>
		<path style="fill:#C7BA8E;" d="M143.468,230.844c1.238-0.156,2.236,0.193,2.393,1.432s-0.588,2.898-1.826,3.055
			s-2.369-0.723-2.525-1.961S142.229,231,143.468,230.844z"/>
		<path style="fill:#C7BA8E;" d="M176.024,238.465c1.24-0.158,2.236,0.191,2.395,1.43c0.156,1.24-0.588,2.898-1.828,3.055
			c-1.238,0.156-2.369-0.721-2.525-1.959S174.786,238.622,176.024,238.465z"/>
		<path style="fill:#C7BA8E;" d="M153.688,238.465c1.24-0.158,2.236,0.191,2.395,1.43c0.156,1.24-0.588,2.898-1.828,3.055
			c-1.238,0.156-2.369-0.721-2.525-1.959S152.45,238.622,153.688,238.465z"/>
		<path style="fill:#C7BA8E;" d="M165.403,226.305c1.24-0.156,2.236,0.193,2.395,1.432c0.156,1.238-0.588,2.898-1.828,3.055
			c-1.238,0.156-2.369-0.723-2.525-1.961S164.165,226.461,165.403,226.305z"/>
		<path style="fill:#C7BA8E;" d="M231.077,226.305c1.24-0.156,2.236,0.193,2.395,1.432c0.156,1.238-0.588,2.898-1.828,3.055
			c-1.238,0.156-2.369-0.723-2.525-1.961S229.839,226.461,231.077,226.305z"/>
		<path style="fill:#C7BA8E;" d="M251.882,225.661c1.24-0.158,2.236,0.191,2.395,1.43c0.156,1.24-0.588,2.898-1.828,3.055
			c-1.238,0.156-2.369-0.721-2.525-1.959S250.644,225.817,251.882,225.661z"/>
		<path style="fill:#C7BA8E;" d="M268.046,232.719c1.238-0.156,2.236,0.191,2.393,1.432c0.156,1.238-0.588,2.898-1.826,3.055
			s-2.369-0.723-2.525-1.961S266.808,232.875,268.046,232.719z"/>
		<path style="fill:#C7BA8E;" d="M236.892,236.196c1.238-0.158,2.236,0.191,2.393,1.43c0.156,1.24-0.588,2.898-1.826,3.055
			s-2.369-0.721-2.525-1.959S235.653,236.352,236.892,236.196z"/>
		<path style="fill:#393A3A;" d="M202.692,239.26c-8.59,0-18.889-8.531-16.463-17.541c1.971-7.316,32.326-6.67,33.043,0.488
			C219.987,229.364,208.772,239.26,202.692,239.26z"/>
		
			<line style="fill:none;stroke:#393A3A;stroke-width:5;stroke-miterlimit:10;" x1="201.907" y1="228.54" x2="201.907" y2="248.319"/>
		<path style="fill:#FCD73F;" d="M72.208,168.944c0,0-13.477-40.404-7.477-68.404c0,0,40.166-5.027,59.445,11.718"/>
		<path style="fill:#FCD73F;" d="M320.753,162.944c0,0,13.477-40.404,7.477-68.404c0,0-39.832-2.834-57.77,12.049"/>
		<g>
			<path style="fill:#393A3A;" d="M205.345,139.413c-0.066-0.011-0.133-0.022-0.197-0.037c-2.164-0.45-3.551-2.569-3.1-4.732
				c3.781-18.135-6.678-31.66-6.773-31.803c-1.215-1.838-0.635-3.589,1.568-3.623c1.523-0.024,2.838-0.063,4.066,1.77
				c0.463,0.691,13.457,13.769,8.971,35.291C209.442,138.374,207.437,139.741,205.345,139.413z"/>
		</g>
		<g>
			<path style="fill:#393A3A;" d="M230.878,138.675c-0.066,0-0.135-0.001-0.201-0.004c-2.207-0.109-3.906-1.987-3.797-4.193
				c0.916-18.502-16.441-30.238-16.557-30.365c-1.488-1.627-2.488-2.279-0.76-3.646c1.584-1.254,3.783-0.707,6.641,1.225
				c0.689,0.466,19.754,11.225,18.666,33.184C234.763,137.013,232.995,138.675,230.878,138.675z"/>
		</g>
		<g>
			<path style="fill:#393A3A;" d="M183.888,138.835c-0.066-0.006-0.133-0.015-0.199-0.025c-2.184-0.336-3.682-2.379-3.346-4.562
				c2.912-18.918-1.363-29.454-1.414-29.59c-0.77-2.066-0.822-3.479,1.242-4.254c2.066-0.776,3.373,0.158,4.15,2.222
				c0.238,0.628,7.18,11.726,3.928,32.841C187.923,137.581,185.995,139.054,183.888,138.835z"/>
		</g>
		<path style="fill:#E8C52A;" d="M78.397,157.206v-12h5v-6.531l6,0.787l2.5-5.109h4.893l3.158-10.646h8.184v-4.473h5.566
			c0,0-23.301-6.527-35.301-5.527C78.397,113.706,71.581,134.915,78.397,157.206z"/>
		<path style="fill:#E8C52A;" d="M280.897,116.206c0,0,18.152-8.514,33.5-8c0,0,7,22,1,37l-1.5-9.801l-7.5,3.271v-10.04h-5.172
			l-1.863-6.929l-8.186,1v-3.473L280.897,116.206z"/>
		<g>
			<path style="fill:#EB8BB8;" d="M257.615,293.868c1.379-0.887,2.735-1.785,4.043-2.709c27.173-19.171,25.464-44.944,25.464-44.944
				l-166.73,6.729c0,0-2.418,24.163,23.07,41.167c0.675,0.449,1.372,0.891,2.068,1.33c14.083-9.047,31.887-15.992,53.853-16.846
				C223.687,277.651,242.901,284.554,257.615,293.868z"/>
			<path style="fill:#DB76AB;" d="M203.763,310.714c21.966-0.854,39.77-7.799,53.853-16.846
				c-14.714-9.314-33.929-16.217-58.232-15.273c-21.966,0.854-39.77,7.799-53.853,16.846
				C160.243,304.755,179.459,311.657,203.763,310.714z"/>
		</g>
	</g>
</g>
<g id="Layer_1">
</g>
</svg>
