<?xml version="1.0" encoding="iso-8859-1"?>
<!-- Generator: Adobe Illustrator 16.0.0, SVG Export Plug-In . SVG Version: 6.00 Build 0)  -->
<!DOCTYPE svg PUBLIC "-//W3C//DTD SVG 1.1//EN" "http://www.w3.org/Graphics/SVG/1.1/DTD/svg11.dtd">
<svg version="1.1" xmlns="http://www.w3.org/2000/svg" xmlns:xlink="http://www.w3.org/1999/xlink" x="0px" y="0px" width="395px"
	 height="534px" viewBox="0 0 395 534" style="enable-background:new 0 0 395 534;" xml:space="preserve">
<g id="normal">
	<g>
		<ellipse style="fill:#D8D9D8;" cx="208.416" cy="499.935" rx="110.96" ry="13.438"/>
		<path style="fill:#393A3A;" d="M75.821,200.744c0,0-34.652,8.106-30.932,20.91C48.61,234.457,56.876,207.725,75.821,200.744z"/>
		<path style="fill:#393A3A;" d="M74.657,198.293c0,0-21.59-4.739-22.84,2.621S62.188,196.98,74.657,198.293z"/>
		<path style="fill:#393A3A;" d="M84.173,199.994c0,0-52.867-21.816-55.375-15.436S53.743,188.82,84.173,199.994z"/>
		<path style="fill:#393A3A;" d="M319.179,190.744c0,0,34.652,8.106,30.932,20.91C346.39,224.457,338.124,197.725,319.179,190.744z"
			/>
		<path style="fill:#393A3A;" d="M320.343,188.293c0,0,21.59-4.739,22.84,2.621S332.812,186.98,320.343,188.293z"/>
		<path style="fill:#393A3A;" d="M310.827,189.994c0,0,52.867-21.816,55.375-15.436S341.257,178.82,310.827,189.994z"/>
		<path style="fill:#FCD73F;" d="M154.737,387.058c0,0,5.58,76.523,23.361,76.574c17.779,0.051,6.637-75.459,22.637-76.555
			c16-1.098,6.279,78.504,23.279,78.555s26.721-78.574,26.721-78.574"/>
		<circle style="fill:#FCD73F;" cx="201.906" cy="269.439" r="145.501"/>
		<path style="fill:#ECE2B8;" d="M266.046,168.838c15.629,20.309,25.131,44.869,25.131,71.632
			c0,72.093-55.768,128.232-127.861,128.232c-23.213,0-44.705-6.066-63.184-16.689c23.037,31.076,59.566,51.117,101.775,51.117
			c72.094,0,127.861-56.139,127.861-128.232C329.769,230.232,303.315,191.699,266.046,168.838z"/>
		<path style="fill:#F4EDCF;" d="M291.177,240.47c0-26.763-9.502-51.323-25.131-71.632c-22.887-14.039-49.848-22.171-77.277-22.171
			c-72.094,0-114.5,53.829-114.5,125.923c0,29.885,9.551,57.418,25.863,79.422c18.479,10.623,39.971,16.689,63.184,16.689
			C235.409,368.702,291.177,312.563,291.177,240.47z"/>
		<path style="fill:#393A3A;" d="M266.938,242.109c-3.689-4.648-4.734-9.564-0.084-13.257c4.646-3.69,13.229-4.759,16.92-0.11
			c3.691,4.649,2.912,11.411-1.736,15.102S270.63,246.757,266.938,242.109z"/>
		<path style="fill:#393A3A;" d="M136.122,230.896c2.789,5.242,2.926,10.264-2.316,13.054c-5.24,2.787-13.873,2.284-16.662-2.956
			c-2.787-5.241-0.797-11.75,4.443-14.537S133.335,225.657,136.122,230.896z"/>
		<path style="fill:#C7BA8E;" d="M143.468,265.33c1.238-0.156,2.236,0.193,2.393,1.432s-0.588,2.899-1.826,3.055
			s-2.369-0.723-2.525-1.961C141.353,266.617,142.229,265.486,143.468,265.33z"/>
		<path style="fill:#C7BA8E;" d="M176.024,272.95c1.24-0.156,2.236,0.191,2.395,1.432c0.156,1.238-0.588,2.898-1.828,3.055
			c-1.238,0.156-2.369-0.723-2.525-1.961S174.786,273.106,176.024,272.95z"/>
		<path style="fill:#C7BA8E;" d="M153.688,272.95c1.24-0.156,2.236,0.191,2.395,1.432c0.156,1.238-0.588,2.898-1.828,3.055
			c-1.238,0.156-2.369-0.723-2.525-1.961S152.45,273.106,153.688,272.95z"/>
		<path style="fill:#C7BA8E;" d="M165.403,260.791c1.24-0.156,2.236,0.193,2.395,1.432c0.156,1.238-0.588,2.898-1.828,3.055
			c-1.238,0.156-2.369-0.722-2.525-1.961C163.288,262.078,164.165,260.947,165.403,260.791z"/>
		<path style="fill:#C7BA8E;" d="M231.077,260.791c1.24-0.156,2.236,0.193,2.395,1.432c0.156,1.238-0.588,2.898-1.828,3.055
			c-1.238,0.156-2.369-0.722-2.525-1.961C228.962,262.078,229.839,260.947,231.077,260.791z"/>
		<path style="fill:#C7BA8E;" d="M251.882,260.146c1.24-0.157,2.236,0.191,2.395,1.431c0.156,1.239-0.588,2.898-1.828,3.055
			c-1.238,0.156-2.369-0.722-2.525-1.96S250.644,260.302,251.882,260.146z"/>
		<path style="fill:#C7BA8E;" d="M268.046,267.205c1.238-0.156,2.236,0.192,2.393,1.432c0.156,1.238-0.588,2.898-1.826,3.055
			s-2.369-0.723-2.525-1.961S266.808,267.361,268.046,267.205z"/>
		<path style="fill:#C7BA8E;" d="M236.892,270.682c1.238-0.158,2.236,0.191,2.393,1.431c0.156,1.238-0.588,2.898-1.826,3.055
			s-2.369-0.723-2.525-1.961C234.776,271.969,235.653,270.838,236.892,270.682z"/>
		<path style="fill:#393A3A;" d="M202.692,273.747c-8.59,0-18.889-8.533-16.463-17.542c1.971-7.316,32.326-6.669,33.043,0.488
			C219.987,263.849,208.772,273.747,202.692,273.747z"/>
		<path style="fill:#FCD73F;" d="M72.208,203.43c0,0-13.477-40.404-7.477-68.405c0,0,40.166-5.027,59.445,11.717"/>
		<path style="fill:#FCD73F;" d="M320.753,197.43c0,0,13.477-40.404,7.477-68.405c0,0-39.832-2.833-57.77,12.049"/>
		<g>
			<path style="fill:#393A3A;" d="M205.345,173.898c-0.066-0.01-0.133-0.021-0.197-0.036c-2.164-0.451-3.551-2.57-3.1-4.732
				c3.781-18.135-6.678-31.661-6.773-31.804c-1.215-1.838-0.635-3.588,1.568-3.623c1.523-0.024,2.838-0.063,4.066,1.77
				c0.463,0.691,13.457,13.769,8.971,35.291C209.442,172.86,207.437,174.227,205.345,173.898z"/>
		</g>
		<g>
			<path style="fill:#393A3A;" d="M230.878,173.161c-0.066,0-0.135-0.002-0.201-0.005c-2.207-0.109-3.906-1.987-3.797-4.193
				c0.916-18.502-16.441-30.238-16.557-30.364c-1.488-1.627-2.488-2.279-0.76-3.647c1.584-1.254,3.783-0.706,6.641,1.225
				c0.689,0.466,19.754,11.225,18.666,33.183C234.763,171.498,232.995,173.161,230.878,173.161z"/>
		</g>
		<g>
			<path style="fill:#393A3A;" d="M183.888,173.321c-0.066-0.007-0.133-0.016-0.199-0.025c-2.184-0.336-3.682-2.379-3.346-4.562
				c2.912-18.919-1.363-29.455-1.414-29.59c-0.77-2.066-0.822-3.479,1.242-4.254c2.066-0.776,3.373,0.159,4.15,2.222
				c0.238,0.627,7.18,11.726,3.928,32.84C187.923,172.067,185.995,173.54,183.888,173.321z"/>
		</g>
		<path style="fill:#E8C52A;" d="M78.397,191.692v-12h5v-6.531l6,0.786l2.5-5.108h4.893l3.158-10.646h8.184v-4.473h5.566
			c0,0-23.301-6.527-35.301-5.527C78.397,148.192,71.581,169.401,78.397,191.692z"/>
		<path style="fill:#E8C52A;" d="M280.897,150.692c0,0,18.152-8.514,33.5-8c0,0,7,22,1,37l-1.5-9.803l-7.5,3.271V163.12h-5.172
			l-1.863-6.928l-8.186,1v-3.473L280.897,150.692z"/>
		<g>
			<path style="fill:none;stroke:#393A3A;stroke-width:5;stroke-miterlimit:10;" d="M202.587,270.883
				c0,0,3.942,36.202-29.466,36.202c-26.733,0-28.83-24.35-28.83-24.35"/>
			<path style="fill:none;stroke:#393A3A;stroke-width:5;stroke-miterlimit:10;" d="M202.587,270.883
				c0,0-3.942,36.202,29.466,36.202c26.733,0,28.83-24.35,28.83-24.35"/>
		</g>
	</g>
</g>
<g id="Layer_1">
</g>
</svg>
