<?xml version="1.0" encoding="iso-8859-1"?>
<!-- Generator: Adobe Illustrator 16.0.0, SVG Export Plug-In . SVG Version: 6.00 Build 0)  -->
<!DOCTYPE svg PUBLIC "-//W3C//DTD SVG 1.1//EN" "http://www.w3.org/Graphics/SVG/1.1/DTD/svg11.dtd">
<svg version="1.1" xmlns="http://www.w3.org/2000/svg" xmlns:xlink="http://www.w3.org/1999/xlink" x="0px" y="0px" width="395px"
	 height="534px" viewBox="0 0 395 534" style="enable-background:new 0 0 395 534;" xml:space="preserve">
<g id="nogood">
	<g>
		<path style="fill:#393A3A;" d="M75.821,245.622c0,0-34.652,8.105-30.932,20.91C48.61,279.335,56.876,252.602,75.821,245.622z"/>
		<path style="fill:#393A3A;" d="M74.657,243.17c0,0-21.59-4.738-22.84,2.621C50.567,253.153,62.188,241.858,74.657,243.17z"/>
		<path style="fill:#393A3A;" d="M84.173,244.872c0,0-52.867-21.816-55.375-15.436S53.743,233.698,84.173,244.872z"/>
		<path style="fill:#393A3A;" d="M319.179,235.622c0,0,34.652,8.105,30.932,20.91C346.39,269.334,338.124,242.602,319.179,235.622z"
			/>
		<path style="fill:#393A3A;" d="M320.343,233.17c0,0,21.59-4.738,22.84,2.621C344.433,243.153,332.812,231.858,320.343,233.17z"/>
		<path style="fill:#393A3A;" d="M310.827,234.872c0,0,52.867-21.816,55.375-15.436S341.257,223.698,310.827,234.872z"/>
		<ellipse style="fill:#D8D9D8;" cx="203.917" cy="499.935" rx="110.959" ry="13.438"/>
		<path style="fill:#FCD73F;" d="M155.907,431.937c0,0,15.582,70.184,33.361,70.234c17.781,0.051-3.363-69.119,12.637-70.217
			c16-1.096-3.719,72.166,13.281,72.217s36.719-72.234,36.719-72.234"/>
		<circle style="fill:#FCD73F;" cx="201.906" cy="314.317" r="145.501"/>
		<path style="fill:#ECE2B8;" d="M266.046,213.715c15.629,20.309,25.131,44.869,25.131,71.633
			c0,72.092-55.768,128.23-127.861,128.23c-23.213,0-44.705-6.066-63.184-16.689c23.037,31.078,59.566,51.117,101.775,51.117
			c72.094,0,127.861-56.139,127.861-128.23C329.769,275.11,303.315,236.577,266.046,213.715z"/>
		<path style="fill:#F4EDCF;" d="M291.177,285.349c0-26.764-9.502-51.325-25.131-71.633c-22.887-14.039-49.848-22.17-77.277-22.17
			c-72.094,0-114.5,53.828-114.5,125.924c0,29.885,9.551,57.418,25.863,79.42c18.479,10.623,39.971,16.689,63.184,16.689
			C235.409,413.579,291.177,357.44,291.177,285.349z"/>
		<path style="fill:#393A3A;" d="M266.938,336.978c-3.689-4.648-4.734-9.564-0.084-13.258c4.646-3.689,13.229-4.758,16.92-0.109
			s2.912,11.41-1.736,15.102C277.39,342.401,270.63,341.626,266.938,336.978z"/>
		<path style="fill:#393A3A;" d="M136.122,325.765c2.789,5.24,2.926,10.264-2.316,13.053c-5.24,2.787-13.873,2.285-16.662-2.957
			c-2.787-5.24-0.797-11.748,4.443-14.537C126.827,318.536,133.335,320.524,136.122,325.765z"/>
		<path style="fill:#C7BA8E;" d="M143.468,360.198c1.238-0.156,2.236,0.191,2.393,1.432c0.156,1.238-0.588,2.898-1.826,3.055
			s-2.369-0.723-2.525-1.961S142.229,360.354,143.468,360.198z"/>
		<path style="fill:#C7BA8E;" d="M176.024,367.817c1.24-0.156,2.236,0.193,2.395,1.432c0.156,1.238-0.588,2.898-1.828,3.055
			c-1.238,0.156-2.369-0.721-2.525-1.961C173.909,369.104,174.786,367.974,176.024,367.817z"/>
		<path style="fill:#C7BA8E;" d="M153.688,367.817c1.24-0.156,2.236,0.193,2.395,1.432c0.156,1.238-0.588,2.898-1.828,3.055
			c-1.238,0.156-2.369-0.721-2.525-1.961C151.573,369.104,152.45,367.974,153.688,367.817z"/>
		<path style="fill:#C7BA8E;" d="M165.403,355.659c1.24-0.156,2.236,0.191,2.395,1.432c0.156,1.238-0.588,2.898-1.828,3.055
			c-1.238,0.156-2.369-0.723-2.525-1.961S164.165,355.815,165.403,355.659z"/>
		<path style="fill:#C7BA8E;" d="M231.077,355.659c1.24-0.156,2.236,0.191,2.395,1.432c0.156,1.238-0.588,2.898-1.828,3.055
			c-1.238,0.156-2.369-0.723-2.525-1.961S229.839,355.815,231.077,355.659z"/>
		<path style="fill:#C7BA8E;" d="M251.882,355.013c1.24-0.156,2.236,0.193,2.395,1.432c0.156,1.238-0.588,2.898-1.828,3.055
			c-1.238,0.156-2.369-0.721-2.525-1.961C249.767,356.3,250.644,355.169,251.882,355.013z"/>
		<path style="fill:#C7BA8E;" d="M268.046,362.073c1.238-0.158,2.236,0.191,2.393,1.43c0.156,1.24-0.588,2.898-1.826,3.055
			s-2.369-0.721-2.525-1.959S266.808,362.229,268.046,362.073z"/>
		<path style="fill:#C7BA8E;" d="M236.892,365.548c1.238-0.156,2.236,0.193,2.393,1.432s-0.588,2.898-1.826,3.055
			s-2.369-0.721-2.525-1.961C234.776,366.835,235.653,365.704,236.892,365.548z"/>
		<path style="fill:#393A3A;" d="M202.692,368.614c-8.59,0-18.889-8.531-16.463-17.541c1.971-7.316,32.326-6.67,33.043,0.486
			C219.987,358.718,208.772,368.614,202.692,368.614z"/>
		
			<line style="fill:none;stroke:#393A3A;stroke-width:5;stroke-miterlimit:10;" x1="201.907" y1="357.894" x2="201.907" y2="387.196"/>
		<path style="fill:#FCD73F;" d="M72.208,248.307c0,0-13.477-40.404-7.477-68.404c0,0,40.166-5.027,59.445,11.719"/>
		<path style="fill:#FCD73F;" d="M320.753,242.307c0,0,13.477-40.404,7.477-68.404c0,0-39.832-2.834-57.77,12.049"/>
		<g>
			<path style="fill:#393A3A;" d="M205.345,218.776c-0.066-0.01-0.133-0.021-0.197-0.037c-2.164-0.449-3.551-2.568-3.1-4.732
				c3.781-18.135-6.678-31.66-6.773-31.803c-1.215-1.838-0.635-3.588,1.568-3.623c1.523-0.023,2.838-0.062,4.066,1.77
				c0.463,0.691,13.457,13.77,8.971,35.291C209.442,217.737,207.437,219.104,205.345,218.776z"/>
		</g>
		<g>
			<path style="fill:#393A3A;" d="M230.878,218.038c-0.066,0-0.135,0-0.201-0.004c-2.207-0.109-3.906-1.986-3.797-4.193
				c0.916-18.502-16.441-30.238-16.557-30.365c-1.488-1.627-2.488-2.279-0.76-3.646c1.584-1.254,3.783-0.707,6.641,1.225
				c0.689,0.467,19.754,11.225,18.666,33.184C234.763,216.375,232.995,218.038,230.878,218.038z"/>
		</g>
		<g>
			<path style="fill:#393A3A;" d="M183.888,218.198c-0.066-0.006-0.133-0.014-0.199-0.025c-2.184-0.336-3.682-2.379-3.346-4.562
				c2.912-18.918-1.363-29.453-1.414-29.59c-0.77-2.066-0.822-3.479,1.242-4.254c2.066-0.775,3.373,0.158,4.15,2.223
				c0.238,0.627,7.18,11.725,3.928,32.84C187.923,216.944,185.995,218.417,183.888,218.198z"/>
		</g>
		<path style="fill:#E8C52A;" d="M78.397,236.569v-12h5v-6.531l6,0.787l2.5-5.109h4.893l3.158-10.646h8.184v-4.473h5.566
			c0,0-23.301-6.527-35.301-5.527C78.397,193.069,71.581,214.278,78.397,236.569z"/>
		<path style="fill:#E8C52A;" d="M280.897,195.569c0,0,18.152-8.514,33.5-8c0,0,7,22,1,37l-1.5-9.801l-7.5,3.27v-10.039h-5.172
			l-1.863-6.93l-8.186,1v-3.473L280.897,195.569z"/>
		<path style="fill:none;stroke:#393A3A;stroke-width:5;stroke-miterlimit:10;" d="M128.573,390.03c8.333,0,11-11.191,18.333-11.191
			c8.333,0,11,11.191,18.333,11.191c8.334,0,11-11.191,18.334-11.191c8.334,0,11,11.191,18.334,11.191
			c8.333,0,11-11.191,18.333-11.191c8.333,0,11,11.191,18.333,11.191c8.334,0,11-11.191,18.334-11.191
			c8.334,0,11,11.191,18.334,11.191"/>
	</g>
</g>
<g id="Layer_1">
</g>
</svg>
