<?xml version="1.0" encoding="iso-8859-1"?>
<!-- Generator: Adobe Illustrator 16.0.0, SVG Export Plug-In . SVG Version: 6.00 Build 0)  -->
<!DOCTYPE svg PUBLIC "-//W3C//DTD SVG 1.1//EN" "http://www.w3.org/Graphics/SVG/1.1/DTD/svg11.dtd">
<svg version="1.1" xmlns="http://www.w3.org/2000/svg" xmlns:xlink="http://www.w3.org/1999/xlink" x="0px" y="0px" width="395px"
	 height="534px" viewBox="0 0 395 534" style="enable-background:new 0 0 395 534;" xml:space="preserve">
<g id="sick">
	<g>
		<circle style="fill:#FCD73F;" cx="201.906" cy="334.964" r="145.501"/>
		<path style="fill:#393A3A;" d="M75.821,266.268c0,0-34.652,8.106-30.932,20.911C48.61,299.981,56.876,273.249,75.821,266.268z"/>
		<path style="fill:#393A3A;" d="M74.657,263.817c0,0-21.59-4.738-22.84,2.621C50.567,273.8,62.188,262.504,74.657,263.817z"/>
		<path style="fill:#393A3A;" d="M84.173,265.518c0,0-52.867-21.816-55.375-15.436S53.743,254.344,84.173,265.518z"/>
		<path style="fill:#393A3A;" d="M319.179,256.268c0,0,34.652,8.105,30.932,20.911C346.39,289.981,338.124,263.249,319.179,256.268z
			"/>
		<path style="fill:#393A3A;" d="M320.343,253.817c0,0,21.59-4.738,22.84,2.621C344.433,263.799,332.812,252.504,320.343,253.817z"
			/>
		<path style="fill:#393A3A;" d="M310.827,255.518c0,0,52.867-21.816,55.375-15.436S341.257,244.344,310.827,255.518z"/>
		<ellipse style="fill:#D8D9D8;" cx="209.652" cy="499.935" rx="110.959" ry="13.438"/>
		<path style="fill:#FCD73F;" d="M262.619,457.204c0,0,51.845,32.16,41.847,39.057c-11.203,7.729-62.002-29.965-75.002-27.607
			c-17.648,3.201,64.75,30.211,52.442,39.143c-10.532,7.643-76.719-15-76.719-15c-63.974-17-96.444-44.891-96.444-44.891"/>
		<g>
			<path style="fill:#ECE2B8;" d="M198.837,374.146c-46.16,0-86.107-21.914-111.301-55.9c-4.414-5.955-8.374-12.281-11.836-18.924
				c-2.963,12.113-4.491,25.125-4.491,38.795c0,29.885,9.551,57.418,25.862,79.42c23.037,31.078,59.566,51.117,101.776,51.117
				c72.094,0,127.861-56.139,127.861-128.23c0-12.697-2.144-24.896-6.06-36.383C296.923,346.302,251.931,374.146,198.837,374.146z"
				/>
			<path style="fill:#F4EDCF;" d="M198.837,374.146c53.094,0,98.086-27.844,121.812-70.105
				c-9.859-28.922-30.988-53.315-57.663-69.678c-22.887-14.039-49.849-22.17-77.277-22.17c-58.425,0-97.349,35.354-110.009,87.129
				c3.462,6.643,7.422,12.969,11.836,18.924C112.729,352.231,152.677,374.146,198.837,374.146z"/>
		</g>
		<path style="fill:#C7BA8E;" d="M143.468,400.854c1.238-0.156,2.236,0.193,2.393,1.432s-0.588,2.898-1.826,3.055
			s-2.369-0.723-2.525-1.961S142.229,401.011,143.468,400.854z"/>
		<path style="fill:#C7BA8E;" d="M176.024,408.476c1.24-0.158,2.236,0.191,2.395,1.43c0.156,1.24-0.588,2.898-1.828,3.055
			c-1.238,0.156-2.369-0.721-2.525-1.959S174.786,408.632,176.024,408.476z"/>
		<path style="fill:#C7BA8E;" d="M153.688,408.476c1.24-0.158,2.236,0.191,2.395,1.43c0.156,1.24-0.588,2.898-1.828,3.055
			c-1.238,0.156-2.369-0.721-2.525-1.959S152.45,408.632,153.688,408.476z"/>
		<path style="fill:#C7BA8E;" d="M165.403,396.315c1.24-0.156,2.236,0.193,2.395,1.432c0.156,1.238-0.588,2.898-1.828,3.055
			c-1.238,0.156-2.369-0.723-2.525-1.961S164.165,396.472,165.403,396.315z"/>
		<path style="fill:#C7BA8E;" d="M231.077,396.315c1.24-0.156,2.236,0.193,2.395,1.432c0.156,1.238-0.588,2.898-1.828,3.055
			c-1.238,0.156-2.369-0.723-2.525-1.961S229.839,396.472,231.077,396.315z"/>
		<path style="fill:#C7BA8E;" d="M251.882,395.671c1.24-0.158,2.236,0.191,2.395,1.43c0.156,1.24-0.588,2.898-1.828,3.055
			c-1.238,0.156-2.369-0.721-2.525-1.959S250.644,395.827,251.882,395.671z"/>
		<path style="fill:#C7BA8E;" d="M268.046,332.729c1.238-0.156,2.236,0.191,2.393,1.432c0.156,1.238-0.588,2.898-1.826,3.055
			s-2.369-0.723-2.525-1.961S266.808,332.886,268.046,332.729z"/>
		<path style="fill:#C7BA8E;" d="M236.892,406.206c1.238-0.158,2.236,0.191,2.393,1.43c0.156,1.24-0.588,2.898-1.826,3.055
			s-2.369-0.721-2.525-1.959S235.653,406.362,236.892,406.206z"/>
		<path style="fill:#393A3A;" d="M202.692,409.271c-8.59,0-18.889-8.531-16.463-17.541c1.971-7.316,32.326-6.67,33.043,0.488
			C219.987,399.374,208.772,409.271,202.692,409.271z"/>
		
			<line style="fill:none;stroke:#393A3A;stroke-width:5;stroke-miterlimit:10;" x1="201.907" y1="398.55" x2="201.907" y2="418.329"/>
		<path style="fill:#FCD73F;" d="M72.208,268.953c0,0-13.477-40.404-7.477-68.404c0,0,40.166-5.027,59.445,11.719"/>
		<path style="fill:#FCD73F;" d="M320.753,262.954c0,0,13.477-40.404,7.477-68.404c0,0-39.832-2.834-57.77,12.049"/>
		<g>
			<path style="fill:#393A3A;" d="M205.345,239.422c-0.066-0.01-0.133-0.021-0.197-0.037c-2.164-0.449-3.551-2.568-3.1-4.732
				c3.781-18.135-6.678-31.66-6.773-31.803c-1.215-1.838-0.635-3.588,1.568-3.623c1.523-0.023,2.838-0.062,4.066,1.77
				c0.463,0.691,13.457,13.77,8.971,35.291C209.442,238.383,207.437,239.75,205.345,239.422z"/>
		</g>
		<g>
			<path style="fill:#393A3A;" d="M230.878,238.684c-0.066,0-0.135,0-0.201-0.004c-2.207-0.109-3.906-1.986-3.797-4.193
				c0.916-18.502-16.441-30.238-16.557-30.365c-1.488-1.627-2.488-2.279-0.76-3.646c1.584-1.254,3.783-0.707,6.641,1.225
				c0.689,0.467,19.754,11.225,18.666,33.184C234.763,237.022,232.995,238.684,230.878,238.684z"/>
		</g>
		<g>
			<path style="fill:#393A3A;" d="M183.888,238.844c-0.066-0.006-0.133-0.014-0.199-0.025c-2.184-0.336-3.682-2.379-3.346-4.562
				c2.912-18.918-1.363-29.453-1.414-29.59c-0.77-2.066-0.822-3.479,1.242-4.254c2.066-0.775,3.373,0.158,4.15,2.223
				c0.238,0.627,7.18,11.725,3.928,32.84C187.923,237.59,185.995,239.063,183.888,238.844z"/>
		</g>
		<path style="fill:#E8C52A;" d="M78.397,257.215v-12h5v-6.531l6,0.787l2.5-5.109h4.893l3.158-10.646h8.184v-4.473h5.566
			c0,0-23.301-6.527-35.301-5.527C78.397,213.715,71.581,234.924,78.397,257.215z"/>
		<path style="fill:#E8C52A;" d="M280.897,216.215c0,0,18.152-8.514,33.5-8c0,0,7,22,1,37l-1.5-9.801l-7.5,3.27v-10.039h-5.172
			l-1.863-6.93l-8.186,1v-3.473L280.897,216.215z"/>
		<g>
			<path style="fill:#393A3A;" d="M140.282,371.593c0.894,2.316-5.246,4.396-10.609,6.947c-5.358,2.547-11.374,9.641-13.697,7.811
				c-2.416-1.904,6.88-10.285,12.242-12.832C133.576,370.97,139.557,369.71,140.282,371.593z"/>
			<g>
				<path style="fill:#EB8BB8;" d="M205.839,435.14c-20.822-2.809-50.926,10.723-59.229,1.635c-2.349,2.719-3.377,5.613-2.578,8.596
					c4.094,15.26,38.16-1.369,61.021,1.717c22.887,3.094,47.421,10.594,49.044-2.926c0.271-2.258-0.472-4.512-2.001-6.699
					C244.808,443.259,224.767,437.698,205.839,435.14z"/>
				<path style="fill:#DB76AB;" d="M210.177,419.142c-18.578-2.516-53.414,5.885-63.566,17.633
					c8.303,9.088,38.406-4.443,59.229-1.635c18.928,2.559,38.969,8.119,46.258,2.322
					C246.188,429.009,228.344,421.587,210.177,419.142z"/>
			</g>
			<path style="fill:#393A3A;" d="M261.862,367.259c-0.895,2.316,5.245,4.396,10.608,6.947c5.359,2.547,11.375,9.641,13.697,7.811
				c2.416-1.904-6.879-10.285-12.241-12.832C268.567,366.636,262.587,365.376,261.862,367.259z"/>
			<path style="opacity:0.6;fill:#FFFFFF;stroke:#E5E5E5;stroke-width:0.25;stroke-miterlimit:10;" d="M277.066,293.737
				c0,0-8.271,16.227-12.112,35.357c-3.841,19.129,5.216,23.062,18.661,23.062s17.594-13.66,12.062-27.463
				C290.147,310.894,277.066,293.737,277.066,293.737z"/>
			<g>
				<g>
					<path style="fill:#CA6AA0;" d="M230.565,468.169c-0.2-0.01-0.383-0.045-0.578-0.061l-3.879-33.396
						c-0.02-0.004-0.039-0.008-0.059-0.012l3.938,33.902c-1.619-0.127-3.125-0.422-4.521-0.854l0.816,4.375
						c0.195,0.016-0.578-2.713,0,0c0.092,0.434-0.426,0.008,0,0c6.67-0.107,13.174-1.131,14.771-7.455
						c-2.291,2.207-5.412,3.447-9.195,3.508C231.433,468.185,231.007,468.192,230.565,468.169z"/>
					<path style="fill:#CA6AA0;" d="M211.389,447.896c-0.086-4.516-1.021-6.418-2.092-10.271c-1.696-2.318-3.843-5.801-5.812-5.502
						c0,0,4.033,13.793,4.198,22.439c0.163,8.512,5.901,16.57,18.599,17.562l-0.875-4.395
						C215.901,464.753,211.531,455.306,211.389,447.896z"/>
					<path style="fill:#DB76AB;" d="M241.61,457.612c-0.59-9.088-5.95-19.348-5.95-19.348s-3.014-2.193-9.552-3.553l3.879,33.396
						c0.195,0.016,0.378,0.051,0.578,0.061c0.441,0.023,0.867,0.016,1.293,0.008c3.783-0.061,6.904-1.301,9.195-3.508
						C241.581,462.585,241.78,460.222,241.61,457.612z"/>
					<path style="fill:#DB76AB;" d="M226.05,434.7c-1.297-0.268-2.719-0.506-4.297-0.684c-0.068-0.008-0.138-0.016-0.207-0.023
						l3.92,33.756c1.396,0.432,2.902,0.727,4.521,0.854L226.05,434.7z"/>
					<path style="fill:#DB76AB;" d="M205.302,432.755c5.344,5.994,6.001,10.625,6.087,15.141c0.143,7.41,4.513,16.857,14.019,19.834
						l-3.861-33.242C218.086,434.108,210.156,432.345,205.302,432.755z"/>
				</g>
				<path style="fill:#CA6AA0;" d="M218.521,433.249c0,0,8.926,13.475,10.066,23.295c0,0,0.684-19.67-7.041-22.057L218.521,433.249z
					"/>
			</g>
		</g>
	</g>
</g>
<g id="Layer_1">
</g>
</svg>
