<?xml version="1.0" encoding="iso-8859-1"?>
<!-- Generator: Adobe Illustrator 16.0.0, SVG Export Plug-In . SVG Version: 6.00 Build 0)  -->
<!DOCTYPE svg PUBLIC "-//W3C//DTD SVG 1.1//EN" "http://www.w3.org/Graphics/SVG/1.1/DTD/svg11.dtd">
<svg version="1.1" xmlns="http://www.w3.org/2000/svg" xmlns:xlink="http://www.w3.org/1999/xlink" x="0px" y="0px" width="395px"
	 height="534px" viewBox="0 0 395 534" style="enable-background:new 0 0 395 534;" xml:space="preserve">
<g id="eating">
	<g>
		<path style="fill:#FCD73F;" d="M153.359,384.755c0,0,5.581,76.525,23.361,76.576s6.637-75.461,22.637-76.557
			c16-1.098,6.28,78.506,23.28,78.557s26.72-78.576,26.72-78.576"/>
		<path style="fill:#393A3A;" d="M75.821,196.229c0,0-34.652,8.105-30.932,20.91C48.61,229.942,56.876,203.209,75.821,196.229z"/>
		<path style="fill:#393A3A;" d="M74.657,193.778c0,0-21.59-4.738-22.84,2.621C50.567,203.76,62.188,192.465,74.657,193.778z"/>
		<path style="fill:#393A3A;" d="M84.173,195.479c0,0-52.867-21.816-55.375-15.436S53.743,184.305,84.173,195.479z"/>
		<path style="fill:#393A3A;" d="M319.179,186.229c0,0,34.652,8.105,30.932,20.91C346.39,219.942,338.124,193.209,319.179,186.229z"
			/>
		<path style="fill:#393A3A;" d="M320.343,183.778c0,0,21.59-4.738,22.84,2.621C344.433,193.76,332.812,182.465,320.343,183.778z"/>
		<path style="fill:#393A3A;" d="M310.827,185.479c0,0,52.867-21.816,55.375-15.436S341.257,174.305,310.827,185.479z"/>
		<circle style="fill:#FCD73F;" cx="201.906" cy="264.924" r="145.501"/>
		<ellipse style="fill:#D8D9D8;" cx="201.358" cy="499.935" rx="110.96" ry="13.438"/>
		<path style="fill:#ECE2B8;" d="M266.046,164.323c15.629,20.309,25.131,44.869,25.131,71.633
			c0,72.092-55.768,128.231-127.861,128.231c-23.213,0-44.705-6.066-63.184-16.689c23.037,31.078,59.566,51.117,101.775,51.117
			c72.094,0,127.861-56.139,127.861-128.231C329.769,225.717,303.315,187.184,266.046,164.323z"/>
		<path style="fill:#F4EDCF;" d="M291.177,235.956c0-26.764-9.502-51.324-25.131-71.633c-22.887-14.039-49.848-22.17-77.277-22.17
			c-72.094,0-114.5,53.829-114.5,125.924c0,29.886,9.551,57.419,25.863,79.421c18.479,10.623,39.971,16.689,63.184,16.689
			C235.409,364.187,291.177,308.048,291.177,235.956z"/>
		<g>
			<path style="fill:#C7BA8E;" d="M143.468,250.815c1.238-0.156,2.236,0.193,2.393,1.432s-0.588,2.898-1.826,3.055
				s-2.369-0.723-2.525-1.961S142.229,250.971,143.468,250.815z"/>
			<path style="fill:#C7BA8E;" d="M176.024,258.436c1.24-0.158,2.236,0.191,2.395,1.43c0.156,1.24-0.588,2.898-1.828,3.055
				c-1.238,0.156-2.369-0.721-2.525-1.959S174.786,258.592,176.024,258.436z"/>
			<path style="fill:#C7BA8E;" d="M153.688,258.436c1.24-0.158,2.236,0.191,2.395,1.43c0.156,1.24-0.588,2.898-1.828,3.055
				c-1.238,0.156-2.369-0.721-2.525-1.959S152.45,258.592,153.688,258.436z"/>
			<path style="fill:#C7BA8E;" d="M165.403,246.276c1.24-0.156,2.236,0.193,2.395,1.432c0.156,1.238-0.588,2.898-1.828,3.055
				c-1.238,0.156-2.369-0.723-2.525-1.961S164.165,246.432,165.403,246.276z"/>
			<path style="fill:#C7BA8E;" d="M231.077,246.276c1.24-0.156,2.236,0.193,2.395,1.432c0.156,1.238-0.588,2.898-1.828,3.055
				c-1.238,0.156-2.369-0.723-2.525-1.961S229.839,246.432,231.077,246.276z"/>
			<path style="fill:#C7BA8E;" d="M251.882,245.631c1.24-0.158,2.236,0.191,2.395,1.43c0.156,1.24-0.588,2.898-1.828,3.055
				c-1.238,0.156-2.369-0.721-2.525-1.959S250.644,245.788,251.882,245.631z"/>
			<path style="fill:#C7BA8E;" d="M268.046,252.69c1.238-0.156,2.236,0.191,2.393,1.432c0.156,1.238-0.588,2.898-1.826,3.055
				s-2.369-0.723-2.525-1.961S266.808,252.846,268.046,252.69z"/>
			<path style="fill:#C7BA8E;" d="M236.892,256.167c1.238-0.158,2.236,0.191,2.393,1.43c0.156,1.24-0.588,2.898-1.826,3.055
				s-2.369-0.721-2.525-1.959S235.653,256.323,236.892,256.167z"/>
		</g>
		<g>
			<path style="fill:#393A3A;" d="M202.692,253.684c-8.59,0-18.889-8.533-16.463-17.543c1.971-7.316,32.326-6.668,33.043,0.488
				C219.987,243.786,208.772,253.684,202.692,253.684z"/>
			
				<line style="fill:none;stroke:#393A3A;stroke-width:5;stroke-miterlimit:10;" x1="201.907" y1="242.961" x2="201.907" y2="262.743"/>
		</g>
		<path style="fill:#FCD73F;" d="M72.208,198.915c0,0-13.477-40.404-7.477-68.404c0,0,40.166-5.027,59.445,11.718"/>
		<path style="fill:#FCD73F;" d="M320.753,192.915c0,0,13.477-40.404,7.477-68.404c0,0-39.832-2.833-57.77,12.049"/>
		<g>
			<path style="fill:#393A3A;" d="M205.345,169.383c-0.066-0.011-0.133-0.022-0.197-0.037c-2.164-0.45-3.551-2.569-3.1-4.732
				c3.781-18.135-6.678-31.66-6.773-31.803c-1.215-1.838-0.635-3.588,1.568-3.623c1.523-0.024,2.838-0.063,4.066,1.77
				c0.463,0.691,13.457,13.769,8.971,35.292C209.442,168.344,207.437,169.711,205.345,169.383z"/>
		</g>
		<g>
			<path style="fill:#393A3A;" d="M230.878,168.645c-0.066,0-0.135-0.001-0.201-0.004c-2.207-0.109-3.906-1.987-3.797-4.193
				c0.916-18.502-16.441-30.238-16.557-30.365c-1.488-1.627-2.488-2.279-0.76-3.647c1.584-1.254,3.783-0.706,6.641,1.225
				c0.689,0.466,19.754,11.225,18.666,33.184C234.763,166.983,232.995,168.645,230.878,168.645z"/>
		</g>
		<g>
			<path style="fill:#393A3A;" d="M183.888,168.805c-0.066-0.006-0.133-0.015-0.199-0.025c-2.184-0.336-3.682-2.379-3.346-4.562
				c2.912-18.918-1.363-29.454-1.414-29.59c-0.77-2.066-0.822-3.479,1.242-4.254c2.066-0.776,3.373,0.159,4.15,2.222
				c0.238,0.627,7.18,11.726,3.928,32.841C187.923,167.551,185.995,169.024,183.888,168.805z"/>
		</g>
		<path style="fill:#E8C52A;" d="M78.397,187.176v-12h5v-6.531l6,0.787l2.5-5.109h4.893l3.158-10.646h8.184v-4.473h5.566
			c0,0-23.301-6.527-35.301-5.527C78.397,143.676,71.581,164.885,78.397,187.176z"/>
		<path style="fill:#E8C52A;" d="M280.897,146.176c0,0,18.152-8.513,33.5-8c0,0,7,22,1,37l-1.5-9.802l-7.5,3.271v-10.04h-5.172
			l-1.863-6.929l-8.186,1v-3.473L280.897,146.176z"/>
		<g>
			<g>
				<path style="fill:#EB8BB8;" d="M203.587,262.381c-56.312,0-101.961,17.247-101.961,53.696c0,16.883,9.799,33.658,25.91,46.807
					c3.237,2.643,6.736,5.135,10.455,7.455c2.58-11.521,7.965-22.475,15.393-31.656c12.325-15.238,30.248-25.604,50.203-25.604
					s37.878,10.365,50.203,25.604c7.428,9.182,12.813,20.135,15.393,31.656c3.72-2.32,7.219-4.812,10.456-7.455
					c16.11-13.148,25.909-29.924,25.909-46.807C305.548,279.628,259.899,262.381,203.587,262.381z"/>
				<path style="fill:#DB76AB;" d="M203.587,313.079c-19.955,0-37.878,10.365-50.203,25.604
					c-7.428,9.182-12.812,20.135-15.393,31.656c17.73,11.062,40.609,18.148,65.596,18.148s47.865-7.086,65.596-18.148
					c-2.579-11.521-7.965-22.475-15.393-31.656C241.465,323.444,223.542,313.079,203.587,313.079z"/>
			</g>
			<path style="fill:#F4F4F4;" d="M125.675,278.813c0,0,15.21,5.293,23.434,1.582c8.223-3.711,8.54-10.472,8.54-10.472
				s7.081,6.269,22.526,4.229c12.658-1.672,16.723-10.327,16.723-10.327s3.904,10.338,20.056,10.631
				c13.75,0.25,18.695-7.227,18.695-7.227s0.72,7.29,12.14,10.692c11.422,3.4,17.61-4.941,17.61-4.941s1.733,8.039,9.5,11.75
				s15.956,0.545,15.956,0.545s-15.986-23.903-86.456-23.895C162.616,261.387,131.111,272.905,125.675,278.813z"/>
			<path style="fill:#F4F4F4;" d="M155.911,379.405c0,0,9.613-4.379,18.154-3.008c9.333,1.5,12.678,8.143,12.678,8.143
				s4.064-6.863,14.615-6.883c10.549-0.02,15.275,8.289,15.275,8.289s5.197-7.631,14.098-9.215
				c9.455-1.682,16.074,4.365,16.074,4.365s-15.574,7.148-43.219,7.391C177.192,388.72,155.911,379.405,155.911,379.405z"/>
		</g>
		<path style="fill:#393A3A;" d="M140.399,232.282c1.464,5.754-5.5,1.842-13.645,4.625c-5.615,1.92-9.537,8.689-11,2.938
			c-1.465-5.754,5.029-12.17,10.781-13.633S138.935,226.53,140.399,232.282z"/>
		<path style="fill:#393A3A;" d="M266.31,227.282c-1.464,5.754,5.5,1.842,13.645,4.625c5.615,1.92,9.537,8.689,11,2.938
			c1.465-5.754-5.029-12.17-10.781-13.633S267.774,221.53,266.31,227.282z"/>
	</g>
</g>
<g id="Layer_1">
</g>
</svg>
