<?xml version="1.0" encoding="iso-8859-1"?>
<!-- Generator: Adobe Illustrator 16.0.0, SVG Export Plug-In . SVG Version: 6.00 Build 0)  -->
<!DOCTYPE svg PUBLIC "-//W3C//DTD SVG 1.1//EN" "http://www.w3.org/Graphics/SVG/1.1/DTD/svg11.dtd">
<svg version="1.1" xmlns="http://www.w3.org/2000/svg" xmlns:xlink="http://www.w3.org/1999/xlink" x="0px" y="0px" width="395px"
	 height="534px" viewBox="0 0 395 534" style="enable-background:new 0 0 395 534;" xml:space="preserve">
<g id="ecstatic">
	<g>
		<circle style="fill:#FCD73F;" cx="201.906" cy="205.469" r="145.501"/>
		<path style="fill:#FCD73F;" d="M158.796,323.089c0,0-30.42,73.297-12.639,73.348c17.779,0.051,42.637-72.232,58.637-73.33
			c16-1.096,46.279,75.93,63.279,75.98s-13.279-75.998-13.279-75.998"/>
		<g>
			<path style="fill:#ECE2B8;" d="M197.753,295.874c-51.793,0-95.828-24.841-120.217-62.102
				c11.922,59.071,62.149,103.405,124.939,103.405c70.992,0,126.152-54.436,127.822-124.938
				C310.917,261.608,259.825,295.874,197.753,295.874z"/>
			<path style="fill:#F4EDCF;" d="M197.753,295.874c62.072,0,113.164-34.266,132.545-83.635c0.025-1.094,0.039-2.191,0.039-3.293
				c0-13.17-2.307-25.801-6.504-37.66c-18.783-53.066-75.57-90.571-134.496-90.571c-57.355,0-95.918,34.071-109.289,84.303
				c-3.436,12.908-5.211,26.881-5.211,41.621c0,9.305,0.933,18.379,2.699,27.133C101.925,271.033,145.96,295.874,197.753,295.874z"
				/>
		</g>
		<ellipse style="fill:#D8D9D8;" cx="208.416" cy="499.935" rx="110.96" ry="13.438"/>
		<path style="fill:#393A3A;" d="M75.821,136.774c0,0-34.652,8.105-30.932,20.91C48.61,170.487,56.876,143.754,75.821,136.774z"/>
		<path style="fill:#393A3A;" d="M74.657,134.323c0,0-21.59-4.739-22.84,2.621C50.567,144.305,62.188,133.01,74.657,134.323z"/>
		<path style="fill:#393A3A;" d="M84.173,136.024c0,0-52.867-21.816-55.375-15.436S53.743,124.85,84.173,136.024z"/>
		<path style="fill:#393A3A;" d="M319.179,126.774c0,0,34.652,8.105,30.932,20.91C346.39,160.487,338.124,133.755,319.179,126.774z"
			/>
		<path style="fill:#393A3A;" d="M320.343,124.323c0,0,21.59-4.739,22.84,2.621C344.433,134.306,332.812,123.01,320.343,124.323z"/>
		<path style="fill:#393A3A;" d="M310.827,126.024c0,0,52.867-21.816,55.375-15.436S341.257,114.85,310.827,126.024z"/>
		<path style="fill:#C7BA8E;" d="M143.468,149.528c1.238-0.156,2.236,0.193,2.393,1.432s-0.588,2.898-1.826,3.055
			s-2.369-0.723-2.525-1.961S142.229,149.684,143.468,149.528z"/>
		<path style="fill:#C7BA8E;" d="M176.024,157.149c1.24-0.158,2.236,0.191,2.395,1.43c0.156,1.24-0.588,2.898-1.828,3.055
			c-1.238,0.156-2.369-0.721-2.525-1.959S174.786,157.305,176.024,157.149z"/>
		<path style="fill:#C7BA8E;" d="M153.688,157.149c1.24-0.158,2.236,0.191,2.395,1.43c0.156,1.24-0.588,2.898-1.828,3.055
			c-1.238,0.156-2.369-0.721-2.525-1.959S152.45,157.305,153.688,157.149z"/>
		<path style="fill:#C7BA8E;" d="M165.403,144.989c1.24-0.156,2.236,0.193,2.395,1.432c0.156,1.238-0.588,2.898-1.828,3.055
			c-1.238,0.156-2.369-0.723-2.525-1.961S164.165,145.145,165.403,144.989z"/>
		<path style="fill:#C7BA8E;" d="M231.077,144.989c1.24-0.156,2.236,0.193,2.395,1.432c0.156,1.238-0.588,2.898-1.828,3.055
			c-1.238,0.156-2.369-0.723-2.525-1.961S229.839,145.145,231.077,144.989z"/>
		<path style="fill:#C7BA8E;" d="M251.882,144.344c1.24-0.158,2.236,0.191,2.395,1.43c0.156,1.24-0.588,2.898-1.828,3.055
			c-1.238,0.156-2.369-0.721-2.525-1.959S250.644,144.5,251.882,144.344z"/>
		<path style="fill:#C7BA8E;" d="M268.046,151.403c1.238-0.156,2.236,0.191,2.393,1.432c0.156,1.238-0.588,2.898-1.826,3.055
			s-2.369-0.723-2.525-1.961S266.808,151.559,268.046,151.403z"/>
		<path style="fill:#C7BA8E;" d="M236.892,154.879c1.238-0.158,2.236,0.191,2.393,1.43c0.156,1.24-0.588,2.898-1.826,3.055
			s-2.369-0.721-2.525-1.959S235.653,155.036,236.892,154.879z"/>
		<path style="fill:#393A3A;" d="M202.692,157.944c-8.59,0-18.889-8.531-16.463-17.541c1.971-7.316,32.326-6.67,33.043,0.487
			C219.987,148.047,208.772,157.944,202.692,157.944z"/>
		
			<line style="fill:none;stroke:#393A3A;stroke-width:5;stroke-miterlimit:10;" x1="201.907" y1="147.223" x2="201.907" y2="172.497"/>
		<path style="fill:#FCD73F;" d="M72.208,139.46c0,0-13.477-40.404-7.477-68.404c0,0,40.166-5.027,59.445,11.718"/>
		<path style="fill:#FCD73F;" d="M320.753,133.46c0,0,13.477-40.404,7.477-68.404c0,0-39.832-2.834-57.77,12.049"/>
		<g>
			<path style="fill:#393A3A;" d="M205.345,109.929c-0.066-0.011-0.133-0.022-0.197-0.037c-2.164-0.45-3.551-2.569-3.1-4.732
				c3.781-18.135-6.678-31.66-6.773-31.803c-1.215-1.838-0.635-3.589,1.568-3.623c1.523-0.024,2.838-0.063,4.066,1.77
				c0.463,0.691,13.457,13.769,8.971,35.291C209.442,108.89,207.437,110.257,205.345,109.929z"/>
		</g>
		<g>
			<path style="fill:#393A3A;" d="M230.878,109.19c-0.066,0-0.135-0.001-0.201-0.004c-2.207-0.109-3.906-1.987-3.797-4.193
				c0.916-18.502-16.441-30.238-16.557-30.365c-1.488-1.627-2.488-2.279-0.76-3.646c1.584-1.254,3.783-0.707,6.641,1.225
				c0.689,0.466,19.754,11.225,18.666,33.184C234.763,107.528,232.995,109.19,230.878,109.19z"/>
		</g>
		<g>
			<path style="fill:#393A3A;" d="M183.888,109.351c-0.066-0.006-0.133-0.015-0.199-0.025c-2.184-0.336-3.682-2.379-3.346-4.562
				c2.912-18.918-1.363-29.454-1.414-29.59c-0.77-2.066-0.822-3.479,1.242-4.254c2.066-0.776,3.373,0.158,4.15,2.222
				c0.238,0.628,7.18,11.726,3.928,32.841C187.923,108.097,185.995,109.569,183.888,109.351z"/>
		</g>
		<path style="fill:#E8C52A;" d="M78.397,127.722v-12h5v-6.531l6,0.787l2.5-5.109h4.893l3.158-10.646h8.184v-4.473h5.566
			c0,0-23.301-6.527-35.301-5.527C78.397,84.222,71.581,105.431,78.397,127.722z"/>
		<path style="fill:#E8C52A;" d="M280.897,86.722c0,0,18.152-8.514,33.5-8c0,0,7,22,1,37l-1.5-9.802l-7.5,3.271V99.15h-5.172
			l-1.863-6.929l-8.186,1v-3.473L280.897,86.722z"/>
		<g>
			<path style="fill:#DB76AB;" d="M204.683,277.884c8.977,0.162,17.696-0.863,26.026-2.902l-45.076,0.936
				C191.898,277.097,198.274,277.769,204.683,277.884z"/>
			<path style="fill:#EB8BB8;" d="M151.085,175.756l-55.034,1.584c-0.394,21.816,7.484,41.727,20.556,57.971
				c5.137,6.381,11.074,12.197,17.629,17.34c1.975-6.822,4.825-13.244,8.707-19.008c8.141-12.088,20.767-21.307,39.124-25.359
				c5.827-1.496,11.95-2.244,18.257-2.133c23.039,0.416,45.453,11.492,59.258,28.645c5.303,6.592,9.323,14.084,11.631,22.209
				c7.494-5.76,13.715-12.492,18.758-19.98c12.312-18.283,17.723-40.982,18.146-64.527L151.085,175.756z"/>
			<path style="fill:#DB76AB;" d="M200.323,206.151c-6.307-0.111-12.43,0.637-18.257,2.133
				c-18.357,4.053-30.983,13.271-39.124,25.359c-3.882,5.764-6.732,12.186-8.707,19.008c14.728,11.557,32.564,19.717,51.397,23.266
				l45.076-0.936c0.369-0.092,0.741-0.172,1.109-0.266c15.913-3.515,28.909-9.653,39.394-17.711
				c-2.308-8.125-6.328-15.617-11.631-22.209C245.776,217.643,223.362,206.567,200.323,206.151z"/>
		</g>
		<path style="fill:#383938;" d="M300.351,144.346c0,7.588-6.152-3.738-13.74-3.738s-13.738,11.326-13.738,3.738
			c0-7.587,6.152-13.738,13.74-13.738S300.351,136.759,300.351,144.346z"/>
		<path style="fill:#383938;" d="M129.507,145.022c0,7.588-6.151-3.739-13.739-3.739s-13.739,11.327-13.739,3.739
			c0-7.588,6.152-13.739,13.74-13.739S129.507,137.434,129.507,145.022z"/>
	</g>
</g>
<g id="Layer_1">
</g>
</svg>
