<?xml version="1.0" encoding="iso-8859-1"?>
<!-- Generator: Adobe Illustrator 16.0.0, SVG Export Plug-In . SVG Version: 6.00 Build 0)  -->
<!DOCTYPE svg PUBLIC "-//W3C//DTD SVG 1.1//EN" "http://www.w3.org/Graphics/SVG/1.1/DTD/svg11.dtd">
<svg version="1.1" xmlns="http://www.w3.org/2000/svg" xmlns:xlink="http://www.w3.org/1999/xlink" x="0px" y="0px"
	 width="376.239px" height="393.949px" viewBox="0 0 376.239 393.949" style="enable-background:new 0 0 376.239 393.949;"
	 xml:space="preserve">
<g id="eating">
	<g>
		<path style="fill:#5C3A1D;" d="M101.454,27.036C94.577,20.771,84.749,12.67,75.577,8.185
			c-1.943,15.096-11.463,30.706-25.533,32.481c-6.037,0.763-11.891-0.231-17.053-2.577c-4.824,9.428-9.387,20.26-13.496,31.772
			c5.867,0.731,10.131,3.904,10.986,10.687c1.158,9.172-4.355,21.465-13.529,22.623c-2.578,0.326-5.086,0.027-7.395-0.746
			c-10.719,41.76-13.945,83.723-1.686,96.329c25,25.708,30.16-43.524,30.16-43.524c0.926-1.919,1.746-3.654,2.488-5.256
			c-0.045-1.486-0.074-2.977-0.074-4.473C40.446,96.649,64.522,53.425,101.454,27.036z"/>
		<path style="fill:#5C3A1D;" d="M331.508,18.841c-4.469,6.772-10.742,11.77-18.344,12.729c-11.66,1.473-22.631-3.598-29.252-12.339
			c-4.186,3.335-8.004,6.733-11.047,9.576c34.211,25.523,56.809,65.737,58.471,111.296c1.396,3.287,3.467,8.082,6.869,15.127
			c0,0,5.16,69.232,30.16,43.524C390.232,176.267,362.848,60.376,331.508,18.841z"/>
		<path style="fill:#5C3A1D;" d="M50.043,40.666c14.07-1.775,23.59-17.385,25.533-32.481c-6.52-3.188-12.709-4.551-17.268-2.124
			c-8.555,4.553-17.295,16.349-25.318,32.028C38.153,40.435,44.006,41.429,50.043,40.666z"/>
		<path style="opacity:0.8;fill:#FFFFFF;" d="M50.043,40.666c14.07-1.775,23.59-17.385,25.533-32.481
			c-6.52-3.188-12.709-4.551-17.268-2.124c-8.555,4.553-17.295,16.349-25.318,32.028C38.153,40.435,44.006,41.429,50.043,40.666z"/>
		<path style="fill:#5C3A1D;" d="M313.164,31.57c7.602-0.959,13.875-5.956,18.344-12.729c-4.49-5.95-9.061-10.376-13.58-12.781
			c-8.484-4.516-22.607,4.083-34.016,13.17C290.533,27.972,301.504,33.042,313.164,31.57z"/>
		<path style="opacity:0.8;fill:#FFFFFF;" d="M313.164,31.57c7.602-0.959,13.875-5.956,18.344-12.729
			c-4.49-5.95-9.061-10.376-13.58-12.781c-8.484-4.516-22.607,4.083-34.016,13.17C290.533,27.972,301.504,33.042,313.164,31.57z"/>
		<path style="fill:#372014;" d="M94.872,44.9c0,0-24.387-22.171-39.65,7.228c-22.424,43.19-44.619,124.355-32.975,126.626
			s20.311-33.253,20.311-33.253"/>
		<path style="fill:#372014;" d="M281.365,44.9c0,0,24.387-22.171,39.65,7.228c22.424,43.19,44.619,124.355,32.975,126.626
			s-20.311-33.253-20.311-33.253"/>
		<g>
			<path style="fill:#5C3A1D;" d="M211.59,313.014c2.012-8.468,9.461-17.36,17.787-19.526c3.016-15.307,4.605-28.155,4.605-28.155
				h-96c0,0,1.109,15.187,3.91,32.034c0.086-0.014,0.17-0.035,0.258-0.047c5.889-0.743,10.633,0.915,11.377,6.807
				c0.678,5.377-2.223,12.408-7.217,14.156c3.572,13.164,8.471,23.605,15.035,23.625c17.779,0.051,6.637-75.46,22.637-76.557
				c16-1.097,6.279,78.506,23.279,78.557c4.625,0.014,8.709-5.803,12.207-14.268C213.162,326.358,209.695,320.999,211.59,313.014z"
				/>
			<path style="fill:#5C3A1D;" d="M153.528,304.126c-0.744-5.892-5.488-7.55-11.377-6.807c-0.088,0.012-0.172,0.033-0.258,0.047
				c1.166,7.01,2.625,14.305,4.418,20.916C151.305,316.534,154.206,309.503,153.528,304.126z"/>
			<path style="opacity:0.8;fill:#FFFFFF;" d="M153.528,304.126c-0.744-5.892-5.488-7.55-11.377-6.807
				c-0.088,0.012-0.172,0.033-0.258,0.047c1.166,7.01,2.625,14.305,4.418,20.916C151.305,316.534,154.206,309.503,153.528,304.126z"
				/>
			<path style="fill:#5C3A1D;" d="M211.59,313.014c-1.895,7.985,1.572,13.345,7.879,16.626c4.162-10.072,7.494-23.896,9.908-36.152
				C221.051,295.653,213.602,304.546,211.59,313.014z"/>
			<path style="opacity:0.8;fill:#FFFFFF;" d="M211.59,313.014c-1.895,7.985,1.572,13.345,7.879,16.626
				c4.162-10.072,7.494-23.896,9.908-36.152C221.051,295.653,213.602,304.546,211.59,313.014z"/>
		</g>
		<path style="fill:#5C3A1D;" d="M321.016,132.45l-55.223-96.696c0,0,2.754-2.913,7.072-6.947
			C255.148,15.589,234.32,6.309,211.68,2.269c-4.145,10.839-13.072,19.868-31.789,17.369c-13.287-1.774-23.883-7.515-32.17-14.553
			c-16.83,4.571-32.451,12.079-46.268,21.952c5.406,4.927,8.99,8.718,8.99,8.718L55.221,132.45
			c-9.898,1.576-4.93-3.535-14.701,17.523c0.297,9.82,1.562,19.397,3.713,28.637c5.672-0.697,10.232,0.92,10.951,6.605
			c0.562,4.451-1.41,10.071-5.012,12.676c2.328,6.029,5.043,11.865,8.121,17.477c9.828-0.775,17.543,2.484,18.812,12.562
			c0.496,3.927-0.061,8.342-1.486,12.428c17.27,20.067,39.922,35.365,65.715,43.666c-2.418-11.258-3.387-20.904-3.387-20.904h95.998
			c0,0-1.037,8.859-3.025,20.786c24.643-8.003,46.4-22.397,63.314-41.236c-0.182-0.63-0.33-1.274-0.416-1.946
			c-0.883-7.001,4.076-13.395,11.078-14.279c0.711-0.089,1.402-0.141,2.08-0.17c5.422-8.109,10.047-16.795,13.773-25.943
			c-3.621-1.865-6.293-5.422-6.842-9.768c-0.883-7.002,4.076-13.396,11.078-14.279c1.117-0.141,2.193-0.2,3.227-0.188
			c2.111-9.866,3.232-20.1,3.232-30.596c0-1.809-0.045-3.606-0.109-5.398C327.35,130.719,328.902,133.706,321.016,132.45z"/>
		<path style="fill:#5C3A1D;" d="M183.946,263.139c-7.824,0.536-9.158,13.854-10.557,27.317c4.139,0.354,8.324,0.546,12.557,0.546
			c2.721,0,5.421-0.081,8.105-0.229C192.523,275.288,190.199,262.71,183.946,263.139z"/>
		<path style="fill:#5C3A1D;" d="M137.948,263.12c0,0,0.969,9.646,3.387,20.904c10.236,3.294,20.967,5.484,32.055,6.432
			c1.398-13.463,2.732-26.781,10.557-27.317c6.253-0.429,8.578,12.149,10.105,27.635c12.801-0.703,25.158-3.064,36.869-6.867
			c1.988-11.927,3.025-20.786,3.025-20.786H137.948z"/>
		<path style="fill:#5C3A1D;" d="M55.221,132.45l55.223-96.696c0,0-3.584-3.791-8.99-8.718
			C64.522,53.425,40.446,96.649,40.446,145.501c0,1.496,0.029,2.986,0.074,4.473C50.292,128.915,45.323,134.026,55.221,132.45z"/>
		<path style="fill:#5C3A1D;" d="M272.865,28.807c-4.318,4.035-7.072,6.947-7.072,6.947l55.223,96.696
			c7.887,1.256,6.334-1.731,10.32,7.652C329.674,94.544,307.076,54.33,272.865,28.807z"/>
		<path style="fill:#5C3A1D;" d="M16.952,103.171c9.174-1.158,14.688-13.451,13.529-22.623c-0.855-6.782-5.119-9.955-10.986-10.687
			c-3.74,10.477-7.102,21.511-9.938,32.563C11.866,103.198,14.374,103.497,16.952,103.171z"/>
		<path style="opacity:0.8;fill:#FFFFFF;" d="M16.952,103.171c9.174-1.158,14.688-13.451,13.529-22.623
			c-0.855-6.782-5.119-9.955-10.986-10.687c-3.74,10.477-7.102,21.511-9.938,32.563C11.866,103.198,14.374,103.497,16.952,103.171z"
			/>
		<path style="fill:#5C3A1D;" d="M77.106,227.931c-1.27-10.078-8.984-13.338-18.812-12.562c4.904,8.943,10.721,17.314,17.326,24.99
			C77.045,236.272,77.602,231.857,77.106,227.931z"/>
		<path style="opacity:0.8;fill:#FFFFFF;" d="M77.106,227.931c-1.27-10.078-8.984-13.338-18.812-12.562
			c4.904,8.943,10.721,17.314,17.326,24.99C77.045,236.272,77.602,231.857,77.106,227.931z"/>
		<path style="fill:#5C3A1D;" d="M55.184,185.216c-0.719-5.686-5.279-7.303-10.951-6.605c1.539,6.612,3.533,13.049,5.939,19.281
			C53.774,195.287,55.747,189.667,55.184,185.216z"/>
		<path style="opacity:0.8;fill:#FFFFFF;" d="M55.184,185.216c-0.719-5.686-5.279-7.303-10.951-6.605
			c1.539,6.612,3.533,13.049,5.939,19.281C53.774,195.287,55.747,189.667,55.184,185.216z"/>
		<path style="fill:#5C3A1D;" d="M293.818,240.724c0.086,0.672,0.234,1.316,0.416,1.946c4.623-5.147,8.883-10.625,12.742-16.396
			c-0.678,0.029-1.369,0.081-2.08,0.17C297.895,227.329,292.936,233.723,293.818,240.724z"/>
		<path style="opacity:0.8;fill:#FFFFFF;" d="M293.818,240.724c0.086,0.672,0.234,1.316,0.416,1.946
			c4.623-5.147,8.883-10.625,12.742-16.396c-0.678,0.029-1.369,0.081-2.08,0.17C297.895,227.329,292.936,233.723,293.818,240.724z"
			/>
		<path style="fill:#5C3A1D;" d="M324.986,176.284c-7.002,0.883-11.961,7.277-11.078,14.279c0.549,4.346,3.221,7.902,6.842,9.768
			c3.162-7.768,5.672-15.867,7.463-24.234C327.18,176.084,326.104,176.144,324.986,176.284z"/>
		<path style="opacity:0.8;fill:#FFFFFF;" d="M324.986,176.284c-7.002,0.883-11.961,7.277-11.078,14.279
			c0.549,4.346,3.221,7.902,6.842,9.768c3.162-7.768,5.672-15.867,7.463-24.234C327.18,176.084,326.104,176.144,324.986,176.284z"/>
		<path style="fill:#5C3A1D;" d="M211.68,2.269C203.326,0.778,194.727,0,185.946,0c-13.23,0-26.043,1.776-38.225,5.085
			c8.287,7.039,18.883,12.779,32.17,14.553C198.607,22.136,207.535,13.107,211.68,2.269z"/>
		<path style="opacity:0.8;fill:#FFFFFF;" d="M211.68,2.269C203.326,0.778,194.727,0,185.946,0c-13.23,0-26.043,1.776-38.225,5.085
			c8.287,7.039,18.883,12.779,32.17,14.553C198.607,22.136,207.535,13.107,211.68,2.269z"/>
		<path style="fill:#DFC3A8;" d="M250.084,44.9c15.629,20.309,25.131,44.869,25.131,71.632c0,72.093-55.766,128.231-127.859,128.231
			c-23.213,0-44.705-6.066-63.186-16.689c23.037,31.077,59.566,51.117,101.777,51.117c72.091,0,127.859-56.139,127.859-128.231
			C313.807,106.294,287.354,67.761,250.084,44.9z"/>
		<path style="fill:#EFD6BA;" d="M275.215,116.532c0-26.763-9.502-51.323-25.131-71.632c-22.885-14.039-49.848-22.171-77.275-22.171
			c-72.096,0-114.5,53.829-114.5,125.924c0,29.885,9.551,57.418,25.861,79.421c18.48,10.623,39.973,16.689,63.186,16.689
			C219.449,244.764,275.215,188.625,275.215,116.532z"/>
		<g>
			
				<line style="fill:none;stroke:#393A3A;stroke-width:5;stroke-miterlimit:10;" x1="186.065" y1="121.089" x2="185.825" y2="140.866"/>
			<path style="fill:#010101;" d="M186.754,134.476c-10.584,0.631-27.33-15.131-20.322-26.656
				c4.861-7.994,39.759-4.362,40.644,4.474C207.961,121.128,200.008,133.685,186.754,134.476z"/>
			<path style="fill:#4A4A4B;" d="M174.87,129.204c0,0,0.072-7.033,4.77-7.033c4.699,0,3.094,11.827,3.094,11.827"/>
			<path style="fill:#4A4A4B;" d="M199.586,127.966c0,0-0.08-6.962-5.24-6.962c-5.162,0-3.396,12.994-3.396,12.994"/>
		</g>
		<polyline style="fill:#5C3A1D;" points="141.022,26.592 141.022,33.42 150.756,28.087 156.424,33.42 166.762,22.729 
			170.756,28.075 181.424,22.729 187.424,30.754 201.756,22.729 207.143,35.754 221.869,27.087 199.586,14.754 149.756,18.087 		"/>
		<ellipse style="fill:#D8D9D8;" cx="185.955" cy="380.512" rx="110.959" ry="13.438"/>
		<g>
			<g>
				<path style="fill:#EB8BB8;" d="M186.721,141.923c-56.312,0-101.963,17.244-101.963,53.694c0,16.884,9.799,33.659,25.91,46.808
					c3.238,2.643,6.736,5.135,10.457,7.455c2.578-11.521,7.965-22.475,15.391-31.656c12.326-15.238,30.25-25.604,50.205-25.604
					c19.955,0,37.876,10.365,50.203,25.603c7.428,9.183,12.812,20.136,15.393,31.657c3.719-2.321,7.219-4.812,10.455-7.455
					c16.111-13.148,25.91-29.924,25.91-46.808C288.682,159.167,243.033,141.923,186.721,141.923z"/>
				<path style="fill:#DB76AB;" d="M186.721,192.62c-19.955,0-37.879,10.365-50.205,25.604
					c-7.426,9.182-12.812,20.135-15.391,31.656c17.73,11.062,40.609,18.147,65.596,18.147c24.986,0,47.865-7.086,65.595-18.147
					c-2.58-11.521-7.965-22.475-15.393-31.657C224.598,202.985,206.676,192.62,186.721,192.62z"/>
			</g>
			<path style="fill:#F4F4F4;" d="M108.809,158.354c0,0,15.209,5.292,23.432,1.582c8.225-3.711,8.541-10.473,8.541-10.473
				s7.082,6.269,22.527,4.229c12.658-1.671,16.723-10.325,16.723-10.325s3.904,10.338,20.054,10.631
				c13.75,0.25,18.695-7.227,18.695-7.227s0.721,7.289,12.141,10.69c11.422,3.401,17.609-4.94,17.609-4.94s1.734,8.039,9.5,11.75
				c7.768,3.709,15.957,0.545,15.957,0.545s-15.986-23.903-86.457-23.895C145.75,140.929,114.245,152.446,108.809,158.354z"/>
			<path style="fill:#F4F4F4;" d="M139.043,258.946c0,0,9.615-4.381,18.156-3.008c9.332,1.5,12.678,8.141,12.678,8.141
				s4.064-6.861,14.615-6.881c10.548-0.02,15.275,8.288,15.275,8.288s5.197-7.63,14.098-9.214
				c9.455-1.684,16.074,4.365,16.074,4.365s-15.574,7.146-43.218,7.39C160.327,268.259,139.043,258.946,139.043,258.946z"/>
		</g>
		<path style="fill:#393A3A;" d="M121.536,112.411c1.465,5.753-5.5,1.841-13.645,4.625c-5.615,1.92-9.537,8.689-11,2.937
			c-1.465-5.753,5.029-12.169,10.781-13.632C113.424,104.877,120.071,106.659,121.536,112.411z"/>
		<path style="fill:#393A3A;" d="M247.445,107.411c-1.463,5.753,5.5,1.841,13.645,4.625c5.615,1.92,9.537,8.689,11,2.937
			c1.465-5.753-5.029-12.169-10.781-13.632C255.557,99.877,248.91,101.659,247.445,107.411z"/>
	</g>
</g>
<g id="Layer_1">
</g>
</svg>
