<?xml version="1.0" encoding="iso-8859-1"?>
<!-- Generator: Adobe Illustrator 16.0.0, SVG Export Plug-In . SVG Version: 6.00 Build 0)  -->
<!DOCTYPE svg PUBLIC "-//W3C//DTD SVG 1.1//EN" "http://www.w3.org/Graphics/SVG/1.1/DTD/svg11.dtd">
<svg version="1.1" xmlns="http://www.w3.org/2000/svg" xmlns:xlink="http://www.w3.org/1999/xlink" x="0px" y="0px"
	 width="376.239px" height="389.436px" viewBox="0 0 376.239 389.436" style="enable-background:new 0 0 376.239 389.436;"
	 xml:space="preserve">
<g id="normal">
	<g>
		<path style="fill:#5C3A1D;" d="M101.454,27.037c-6.877-6.266-16.705-14.366-25.877-18.852
			c-1.943,15.096-11.463,30.706-25.533,32.481c-6.037,0.763-11.891-0.231-17.053-2.577c-4.824,9.428-9.387,20.26-13.496,31.772
			c5.867,0.731,10.131,3.904,10.986,10.687c1.158,9.172-4.355,21.465-13.529,22.623c-2.578,0.326-5.086,0.027-7.395-0.746
			c-10.719,41.76-13.945,83.723-1.686,96.329c25,25.709,30.16-43.523,30.16-43.523c0.926-1.92,1.746-3.654,2.488-5.256
			c-0.045-1.486-0.074-2.977-0.074-4.473C40.446,96.65,64.522,53.425,101.454,27.037z"/>
		<path style="fill:#5C3A1D;" d="M331.508,18.842c-4.469,6.772-10.742,11.77-18.344,12.729c-11.66,1.473-22.631-3.598-29.252-12.339
			c-4.186,3.335-8.004,6.733-11.047,9.576c34.211,25.523,56.809,65.737,58.471,111.296c1.396,3.287,3.467,8.082,6.869,15.127
			c0,0,5.16,69.232,30.16,43.523C390.232,176.268,362.848,60.376,331.508,18.842z"/>
		<path style="fill:#5C3A1D;" d="M50.043,40.667c14.07-1.775,23.59-17.385,25.533-32.481c-6.52-3.188-12.709-4.551-17.268-2.124
			c-8.555,4.553-17.295,16.349-25.318,32.028C38.153,40.436,44.006,41.429,50.043,40.667z"/>
		<path style="opacity:0.8;fill:#FFFFFF;" d="M50.043,40.667c14.07-1.775,23.59-17.385,25.533-32.481
			c-6.52-3.188-12.709-4.551-17.268-2.124c-8.555,4.553-17.295,16.349-25.318,32.028C38.153,40.436,44.006,41.429,50.043,40.667z"/>
		<path style="fill:#5C3A1D;" d="M313.164,31.57c7.602-0.959,13.875-5.956,18.344-12.729c-4.49-5.95-9.061-10.376-13.58-12.781
			c-8.484-4.516-22.607,4.083-34.016,13.17C290.533,27.973,301.504,33.043,313.164,31.57z"/>
		<path style="opacity:0.8;fill:#FFFFFF;" d="M313.164,31.57c7.602-0.959,13.875-5.956,18.344-12.729
			c-4.49-5.95-9.061-10.376-13.58-12.781c-8.484-4.516-22.607,4.083-34.016,13.17C290.533,27.973,301.504,33.043,313.164,31.57z"/>
		<path style="fill:#372014;" d="M94.872,44.901c0,0-24.387-22.171-39.65,7.228c-22.424,43.19-44.619,124.356-32.975,126.625
			c11.645,2.271,20.311-33.252,20.311-33.252"/>
		<path style="fill:#372014;" d="M281.365,44.901c0,0,24.387-22.171,39.65,7.228c22.424,43.19,44.619,124.356,32.975,126.625
			c-11.645,2.271-20.311-33.252-20.311-33.252"/>
		<g>
			<path style="fill:#5C3A1D;" d="M211.59,310.803c2.012-8.467,9.461-17.359,17.787-19.527c3.016-15.305,4.605-28.154,4.605-28.154
				h-96c0,0,1.109,15.188,3.91,32.033c0.086-0.014,0.17-0.035,0.258-0.045c5.889-0.744,10.633,0.914,11.377,6.805
				c0.678,5.377-2.223,12.41-7.217,14.156c3.572,13.164,8.471,23.607,15.035,23.625c17.779,0.051,6.637-75.459,22.637-76.557
				c16-1.096,6.279,78.506,23.279,78.557c4.625,0.014,8.709-5.801,12.207-14.266C213.162,324.148,209.695,318.787,211.59,310.803z"
				/>
			<path style="fill:#5C3A1D;" d="M153.528,301.914c-0.744-5.891-5.488-7.549-11.377-6.805c-0.088,0.01-0.172,0.031-0.258,0.045
				c1.166,7.012,2.625,14.305,4.418,20.916C151.305,314.324,154.206,307.291,153.528,301.914z"/>
			<path style="opacity:0.8;fill:#FFFFFF;" d="M153.528,301.914c-0.744-5.891-5.488-7.549-11.377-6.805
				c-0.088,0.01-0.172,0.031-0.258,0.045c1.166,7.012,2.625,14.305,4.418,20.916C151.305,314.324,154.206,307.291,153.528,301.914z"
				/>
			<path style="fill:#5C3A1D;" d="M211.59,310.803c-1.895,7.984,1.572,13.346,7.879,16.627c4.162-10.072,7.494-23.898,9.908-36.154
				C221.051,293.443,213.602,302.336,211.59,310.803z"/>
			<path style="opacity:0.8;fill:#FFFFFF;" d="M211.59,310.803c-1.895,7.984,1.572,13.346,7.879,16.627
				c4.162-10.072,7.494-23.898,9.908-36.154C221.051,293.443,213.602,302.336,211.59,310.803z"/>
		</g>
		<ellipse style="fill:#D8D9D8;" cx="185.955" cy="375.998" rx="110.959" ry="13.438"/>
		<path style="fill:#5C3A1D;" d="M321.016,132.451l-55.223-96.697c0,0,2.754-2.913,7.072-6.947
			C255.148,15.589,234.32,6.31,211.68,2.269c-4.145,10.839-13.072,19.868-31.789,17.369c-13.287-1.774-23.883-7.515-32.17-14.553
			c-16.83,4.571-32.451,12.079-46.268,21.952c5.406,4.927,8.99,8.718,8.99,8.718l-55.223,96.697
			c-9.898,1.576-4.93-3.535-14.701,17.523c0.297,9.82,1.562,19.396,3.713,28.637c5.672-0.697,10.232,0.92,10.951,6.605
			c0.562,4.451-1.41,10.07-5.012,12.676c2.328,6.029,5.043,11.865,8.121,17.477c9.828-0.775,17.543,2.484,18.812,12.562
			c0.496,3.926-0.061,8.342-1.486,12.428c17.27,20.066,39.922,35.365,65.715,43.666c-2.418-11.258-3.387-20.904-3.387-20.904h95.998
			c0,0-1.037,8.859-3.025,20.785c24.643-8.002,46.4-22.396,63.314-41.236c-0.182-0.629-0.33-1.273-0.416-1.945
			c-0.883-7.002,4.076-13.395,11.078-14.279c0.711-0.09,1.402-0.141,2.08-0.17c5.422-8.109,10.047-16.795,13.773-25.943
			c-3.621-1.865-6.293-5.422-6.842-9.768c-0.883-7.002,4.076-13.396,11.078-14.279c1.117-0.141,2.193-0.201,3.227-0.188
			c2.111-9.867,3.232-20.1,3.232-30.596c0-1.809-0.045-3.607-0.109-5.398C327.35,130.719,328.902,133.707,321.016,132.451z"/>
		<path style="fill:#5C3A1D;" d="M183.946,263.139c-7.824,0.537-9.158,13.855-10.557,27.318c4.139,0.354,8.324,0.545,12.557,0.545
			c2.721,0,5.421-0.08,8.105-0.229C192.523,275.289,190.199,262.711,183.946,263.139z"/>
		<path style="fill:#5C3A1D;" d="M137.948,263.121c0,0,0.969,9.646,3.387,20.904c10.236,3.293,20.967,5.484,32.055,6.432
			c1.398-13.463,2.732-26.781,10.557-27.318c6.253-0.428,8.578,12.15,10.105,27.635c12.801-0.703,25.158-3.064,36.869-6.867
			c1.988-11.926,3.025-20.785,3.025-20.785H137.948z"/>
		<path style="fill:#5C3A1D;" d="M55.221,132.451l55.223-96.697c0,0-3.584-3.791-8.99-8.718
			C64.522,53.425,40.446,96.65,40.446,145.502c0,1.496,0.029,2.986,0.074,4.473C50.292,128.916,45.323,134.027,55.221,132.451z"/>
		<path style="fill:#5C3A1D;" d="M272.865,28.807c-4.318,4.035-7.072,6.947-7.072,6.947l55.223,96.697
			c7.887,1.256,6.334-1.732,10.32,7.652C329.674,94.544,307.076,54.331,272.865,28.807z"/>
		<path style="fill:#5C3A1D;" d="M16.952,103.171c9.174-1.158,14.688-13.451,13.529-22.623c-0.855-6.782-5.119-9.955-10.986-10.687
			c-3.74,10.477-7.102,21.511-9.938,32.563C11.866,103.199,14.374,103.498,16.952,103.171z"/>
		<path style="opacity:0.8;fill:#FFFFFF;" d="M16.952,103.171c9.174-1.158,14.688-13.451,13.529-22.623
			c-0.855-6.782-5.119-9.955-10.986-10.687c-3.74,10.477-7.102,21.511-9.938,32.563C11.866,103.199,14.374,103.498,16.952,103.171z"
			/>
		<path style="fill:#5C3A1D;" d="M77.106,227.932c-1.27-10.078-8.984-13.338-18.812-12.562c4.904,8.943,10.721,17.314,17.326,24.99
			C77.045,236.273,77.602,231.857,77.106,227.932z"/>
		<path style="opacity:0.8;fill:#FFFFFF;" d="M77.106,227.932c-1.27-10.078-8.984-13.338-18.812-12.562
			c4.904,8.943,10.721,17.314,17.326,24.99C77.045,236.273,77.602,231.857,77.106,227.932z"/>
		<path style="fill:#5C3A1D;" d="M55.184,185.217c-0.719-5.686-5.279-7.303-10.951-6.605c1.539,6.611,3.533,13.049,5.939,19.281
			C53.774,195.287,55.747,189.668,55.184,185.217z"/>
		<path style="opacity:0.8;fill:#FFFFFF;" d="M55.184,185.217c-0.719-5.686-5.279-7.303-10.951-6.605
			c1.539,6.611,3.533,13.049,5.939,19.281C53.774,195.287,55.747,189.668,55.184,185.217z"/>
		<path style="fill:#5C3A1D;" d="M293.818,240.725c0.086,0.672,0.234,1.316,0.416,1.945c4.623-5.146,8.883-10.625,12.742-16.395
			c-0.678,0.029-1.369,0.08-2.08,0.17C297.895,227.33,292.936,233.723,293.818,240.725z"/>
		<path style="opacity:0.8;fill:#FFFFFF;" d="M293.818,240.725c0.086,0.672,0.234,1.316,0.416,1.945
			c4.623-5.146,8.883-10.625,12.742-16.395c-0.678,0.029-1.369,0.08-2.08,0.17C297.895,227.33,292.936,233.723,293.818,240.725z"/>
		<path style="fill:#5C3A1D;" d="M324.986,176.285c-7.002,0.883-11.961,7.277-11.078,14.279c0.549,4.346,3.221,7.902,6.842,9.768
			c3.162-7.768,5.672-15.867,7.463-24.234C327.18,176.084,326.104,176.145,324.986,176.285z"/>
		<path style="opacity:0.8;fill:#FFFFFF;" d="M324.986,176.285c-7.002,0.883-11.961,7.277-11.078,14.279
			c0.549,4.346,3.221,7.902,6.842,9.768c3.162-7.768,5.672-15.867,7.463-24.234C327.18,176.084,326.104,176.145,324.986,176.285z"/>
		<path style="fill:#5C3A1D;" d="M211.68,2.269C203.326,0.778,194.727,0,185.946,0c-13.23,0-26.043,1.776-38.225,5.085
			c8.287,7.039,18.883,12.779,32.17,14.553C198.607,22.137,207.535,13.108,211.68,2.269z"/>
		<path style="opacity:0.8;fill:#FFFFFF;" d="M211.68,2.269C203.326,0.778,194.727,0,185.946,0c-13.23,0-26.043,1.776-38.225,5.085
			c8.287,7.039,18.883,12.779,32.17,14.553C198.607,22.137,207.535,13.108,211.68,2.269z"/>
		<path style="fill:#DFC3A8;" d="M250.084,44.901c15.629,20.309,25.131,44.869,25.131,71.632
			c0,72.092-55.766,128.231-127.859,128.231c-23.213,0-44.705-6.066-63.186-16.689c23.037,31.078,59.566,51.117,101.777,51.117
			c72.091,0,127.859-56.139,127.859-128.23C313.807,106.294,287.354,67.761,250.084,44.901z"/>
		<path style="fill:#EFD6BA;" d="M275.215,116.533c0-26.763-9.502-51.323-25.131-71.632c-22.885-14.039-49.848-22.171-77.275-22.171
			c-72.096,0-114.5,53.829-114.5,125.924c0,29.885,9.551,57.418,25.861,79.42c18.48,10.623,39.973,16.689,63.186,16.689
			C219.449,244.764,275.215,188.625,275.215,116.533z"/>
		<path style="fill:#010101;" d="M270.24,111.767c0,5.936-2.238,10.435-8.176,10.435c-5.936,0-13.32-4.499-13.32-10.435
			c0-5.937,4.814-10.748,10.75-10.748C265.428,101.019,270.24,105.831,270.24,111.767z"/>
		<path style="fill:#010101;" d="M109.409,101.186c5.889-0.743,10.633,0.915,11.377,6.806c0.742,5.888-2.797,13.779-8.686,14.521
			c-5.889,0.744-11.266-3.43-12.008-9.318C99.348,107.306,103.518,101.929,109.409,101.186z"/>
		<path style="fill:#010101;" d="M186.754,152.477c-10.584,0.631-27.33-15.131-20.322-26.657c4.861-7.994,39.759-4.362,40.644,4.473
			C207.961,139.129,200.008,151.686,186.754,152.477z"/>
		<path style="fill:#4A4A4B;" d="M174.87,147.205c0,0,0.072-7.033,4.77-7.033c4.699,0,3.094,11.826,3.094,11.826"/>
		<path style="fill:#4A4A4B;" d="M199.586,145.967c0,0-0.08-6.963-5.24-6.963c-5.162,0-3.396,12.994-3.396,12.994"/>
		<polyline style="fill:#5C3A1D;" points="141.022,26.592 141.022,33.421 150.756,28.088 156.424,33.421 166.762,22.73 
			170.756,28.076 181.424,22.73 187.424,30.754 201.756,22.73 207.143,35.754 221.869,27.088 211.68,20.058 149.756,18.088 		"/>
		<g>
			<path style="fill:none;stroke:#393A3A;stroke-width:5;stroke-miterlimit:10;" d="M185.721,146.945
				c0,0,3.941,36.203-29.467,36.203c-26.734,0-28.83-24.35-28.83-24.35"/>
			<path style="fill:none;stroke:#393A3A;stroke-width:5;stroke-miterlimit:10;" d="M185.721,146.945
				c0,0-3.943,36.203,29.464,36.203c26.734,0,28.83-24.35,28.83-24.35"/>
		</g>
	</g>
</g>
<g id="Layer_1">
</g>
</svg>
