<?xml version="1.0" encoding="iso-8859-1"?>
<!-- Generator: Adobe Illustrator 16.0.0, SVG Export Plug-In . SVG Version: 6.00 Build 0)  -->
<!DOCTYPE svg PUBLIC "-//W3C//DTD SVG 1.1//EN" "http://www.w3.org/Graphics/SVG/1.1/DTD/svg11.dtd">
<svg version="1.1" xmlns="http://www.w3.org/2000/svg" xmlns:xlink="http://www.w3.org/1999/xlink" x="0px" y="0px"
	 width="376.239px" height="323.909px" viewBox="0 0 376.239 323.909" style="enable-background:new 0 0 376.239 323.909;"
	 xml:space="preserve">
<g id="sick">
	<g>
		<path style="fill:#5C3A1D;" d="M246.625,267.741c0,0,51.844,32.16,41.846,39.057c-11.203,7.729-62.002-29.965-75.002-27.607
			c-17.648,3.201,64.75,30.211,52.443,39.143c-10.533,7.643-76.719-15-76.719-15c-63.972-17-96.445-44.891-96.445-44.891"/>
		<path style="fill:#5C3A1D;" d="M101.454,27.037c-6.877-6.266-16.705-14.366-25.877-18.851
			c-1.943,15.095-11.463,30.705-25.533,32.48c-6.037,0.764-11.891-0.23-17.053-2.576c-4.824,9.428-9.387,20.26-13.496,31.771
			c5.867,0.732,10.131,3.904,10.986,10.688c1.158,9.172-4.355,21.465-13.529,22.623c-2.578,0.326-5.086,0.027-7.395-0.746
			c-10.719,41.76-13.945,83.723-1.686,96.328c25,25.709,30.16-43.523,30.16-43.523c0.926-1.92,1.746-3.654,2.488-5.256
			c-0.045-1.486-0.074-2.977-0.074-4.473C40.446,96.649,64.522,53.425,101.454,27.037z"/>
		<path style="fill:#5C3A1D;" d="M331.508,18.841c-4.469,6.773-10.742,11.77-18.344,12.729c-11.66,1.473-22.631-3.598-29.252-12.34
			c-4.186,3.336-8.004,6.734-11.047,9.576c34.211,25.523,56.809,65.738,58.471,111.296c1.396,3.287,3.467,8.082,6.869,15.127
			c0,0,5.16,69.232,30.16,43.523C390.232,176.267,362.848,60.376,331.508,18.841z"/>
		<path style="fill:#5C3A1D;" d="M321.016,132.45l-55.223-96.697c0,0,2.754-2.912,7.072-6.947
			C255.148,15.59,234.32,6.31,211.68,2.27c-4.145,10.838-13.072,19.867-31.789,17.369c-13.287-1.774-23.883-7.515-32.17-14.553
			c-16.83,4.571-32.451,12.079-46.268,21.952c5.406,4.926,8.99,8.717,8.99,8.717L55.221,132.45
			c-9.898,1.576-4.93-3.535-14.701,17.523c0.297,9.82,1.562,19.396,3.713,28.637c5.672-0.697,10.232,0.92,10.951,6.605
			c0.562,4.451-1.41,10.07-5.012,12.676c2.328,6.029,5.043,11.865,8.121,17.477c9.828-0.775,17.543,2.484,18.812,12.562
			c0.496,3.926-0.061,8.342-1.486,12.428c17.27,20.066,39.922,35.365,65.715,43.666c-2.418-11.258-3.387-20.904-3.387-20.904h95.998
			c0,0-1.037,8.859-3.025,20.785c24.643-8.002,46.4-22.396,63.314-41.236c-0.182-0.629-0.33-1.273-0.416-1.945
			c-0.883-7.002,4.076-13.395,11.078-14.279c0.711-0.09,1.402-0.141,2.08-0.17c5.422-8.109,10.047-16.795,13.773-25.943
			c-3.621-1.865-6.293-5.422-6.842-9.768c-0.883-7.002,4.076-13.396,11.078-14.279c1.117-0.141,2.193-0.201,3.227-0.188
			c2.111-9.867,3.232-20.1,3.232-30.596c0-1.809-0.045-3.607-0.109-5.398C327.35,130.718,328.902,133.706,321.016,132.45z"/>
		<path style="fill:#5C3A1D;" d="M183.946,263.138c-7.824,0.537-9.158,13.855-10.557,27.318c4.139,0.354,8.324,0.545,12.557,0.545
			c2.721,0,5.421-0.08,8.105-0.229C192.523,275.288,190.199,262.71,183.946,263.138z"/>
		<path style="fill:#5C3A1D;" d="M137.948,263.12c0,0,0.969,9.646,3.387,20.904c10.236,3.293,20.967,5.484,32.055,6.432
			c1.398-13.463,2.732-26.781,10.557-27.318c6.253-0.428,8.578,12.15,10.105,27.635c12.801-0.703,25.158-3.064,36.869-6.867
			c1.988-11.926,3.025-20.785,3.025-20.785H137.948z"/>
		<path style="fill:#5C3A1D;" d="M55.221,132.45l55.223-96.697c0,0-3.584-3.791-8.99-8.717
			C64.522,53.425,40.446,96.649,40.446,145.501c0,1.496,0.029,2.986,0.074,4.473C50.292,128.915,45.323,134.026,55.221,132.45z"/>
		<path style="fill:#5C3A1D;" d="M272.865,28.806c-4.318,4.035-7.072,6.947-7.072,6.947l55.223,96.697
			c7.887,1.256,6.334-1.732,10.32,7.652C329.674,94.544,307.076,54.33,272.865,28.806z"/>
		<path style="fill:#5C3A1D;" d="M50.043,40.666c14.07-1.775,23.59-17.385,25.533-32.48c-6.52-3.188-12.709-4.551-17.268-2.125
			c-8.555,4.553-17.295,16.349-25.318,32.029C38.153,40.435,44.006,41.429,50.043,40.666z"/>
		<path style="opacity:0.8;fill:#FFFFFF;" d="M50.043,40.666c14.07-1.775,23.59-17.385,25.533-32.48
			c-6.52-3.188-12.709-4.551-17.268-2.125c-8.555,4.553-17.295,16.349-25.318,32.029C38.153,40.435,44.006,41.429,50.043,40.666z"/>
		<path style="fill:#5C3A1D;" d="M313.164,31.57c7.602-0.959,13.875-5.955,18.344-12.729c-4.49-5.95-9.061-10.375-13.58-12.781
			c-8.484-4.516-22.607,4.083-34.016,13.169C290.533,27.972,301.504,33.042,313.164,31.57z"/>
		<path style="opacity:0.8;fill:#FFFFFF;" d="M313.164,31.57c7.602-0.959,13.875-5.955,18.344-12.729
			c-4.49-5.95-9.061-10.375-13.58-12.781c-8.484-4.516-22.607,4.083-34.016,13.169C290.533,27.972,301.504,33.042,313.164,31.57z"/>
		<path style="fill:#5C3A1D;" d="M16.952,103.171c9.174-1.158,14.688-13.451,13.529-22.623c-0.855-6.783-5.119-9.955-10.986-10.688
			c-3.74,10.477-7.102,21.512-9.938,32.564C11.866,103.198,14.374,103.497,16.952,103.171z"/>
		<path style="opacity:0.8;fill:#FFFFFF;" d="M16.952,103.171c9.174-1.158,14.688-13.451,13.529-22.623
			c-0.855-6.783-5.119-9.955-10.986-10.688c-3.74,10.477-7.102,21.512-9.938,32.564C11.866,103.198,14.374,103.497,16.952,103.171z"
			/>
		<path style="fill:#5C3A1D;" d="M77.106,227.931c-1.27-10.078-8.984-13.338-18.812-12.562c4.904,8.943,10.721,17.314,17.326,24.99
			C77.045,236.272,77.602,231.856,77.106,227.931z"/>
		<path style="opacity:0.8;fill:#FFFFFF;" d="M77.106,227.931c-1.27-10.078-8.984-13.338-18.812-12.562
			c4.904,8.943,10.721,17.314,17.326,24.99C77.045,236.272,77.602,231.856,77.106,227.931z"/>
		<path style="fill:#5C3A1D;" d="M55.184,185.216c-0.719-5.686-5.279-7.303-10.951-6.605c1.539,6.611,3.533,13.049,5.939,19.281
			C53.774,195.286,55.747,189.667,55.184,185.216z"/>
		<path style="opacity:0.8;fill:#FFFFFF;" d="M55.184,185.216c-0.719-5.686-5.279-7.303-10.951-6.605
			c1.539,6.611,3.533,13.049,5.939,19.281C53.774,195.286,55.747,189.667,55.184,185.216z"/>
		<path style="fill:#5C3A1D;" d="M293.818,240.724c0.086,0.672,0.234,1.316,0.416,1.945c4.623-5.146,8.883-10.625,12.742-16.395
			c-0.678,0.029-1.369,0.08-2.08,0.17C297.895,227.329,292.936,233.722,293.818,240.724z"/>
		<path style="opacity:0.8;fill:#FFFFFF;" d="M293.818,240.724c0.086,0.672,0.234,1.316,0.416,1.945
			c4.623-5.146,8.883-10.625,12.742-16.395c-0.678,0.029-1.369,0.08-2.08,0.17C297.895,227.329,292.936,233.722,293.818,240.724z"/>
		<path style="fill:#5C3A1D;" d="M324.986,176.284c-7.002,0.883-11.961,7.277-11.078,14.279c0.549,4.346,3.221,7.902,6.842,9.768
			c3.162-7.768,5.672-15.867,7.463-24.234C327.18,176.083,326.104,176.144,324.986,176.284z"/>
		<path style="opacity:0.8;fill:#FFFFFF;" d="M324.986,176.284c-7.002,0.883-11.961,7.277-11.078,14.279
			c0.549,4.346,3.221,7.902,6.842,9.768c3.162-7.768,5.672-15.867,7.463-24.234C327.18,176.083,326.104,176.144,324.986,176.284z"/>
		<path style="fill:#5C3A1D;" d="M211.68,2.27C203.326,0.778,194.727,0,185.946,0c-13.23,0-26.043,1.775-38.225,5.085
			c8.287,7.038,18.883,12.779,32.17,14.553C198.607,22.136,207.535,13.107,211.68,2.27z"/>
		<path style="opacity:0.8;fill:#FFFFFF;" d="M211.68,2.27C203.326,0.778,194.727,0,185.946,0c-13.23,0-26.043,1.775-38.225,5.085
			c8.287,7.038,18.883,12.779,32.17,14.553C198.607,22.136,207.535,13.107,211.68,2.27z"/>
		<path style="fill:#372014;" d="M94.872,44.9c0,0-24.387-22.17-39.65,7.229C32.797,95.317,10.602,176.483,22.247,178.753
			c11.645,2.271,20.311-33.252,20.311-33.252"/>
		<path style="fill:#372014;" d="M281.365,44.9c0,0,24.387-22.17,39.65,7.229c22.424,43.189,44.619,124.355,32.975,126.625
			c-11.645,2.271-20.311-33.252-20.311-33.252"/>
		<path style="fill:#DFC3A8;" d="M250.084,44.9c15.629,20.308,25.131,44.869,25.131,71.632c0,72.092-55.766,128.23-127.859,128.23
			c-23.213,0-44.705-6.066-63.186-16.689c23.037,31.078,59.566,51.117,101.777,51.117c72.091,0,127.859-56.139,127.859-128.23
			C313.807,106.294,287.354,67.761,250.084,44.9z"/>
		<path style="fill:#EFD6BA;" d="M275.215,116.532c0-26.764-9.502-51.324-25.131-71.632c-22.885-14.039-49.848-22.17-77.275-22.17
			c-72.096,0-114.5,53.828-114.5,125.923c0,29.885,9.551,57.418,25.861,79.42c18.48,10.623,39.973,16.689,63.186,16.689
			C219.449,244.763,275.215,188.624,275.215,116.532z"/>
		<ellipse style="fill:#D8D9D8;" cx="193.657" cy="310.472" rx="110.96" ry="13.438"/>
		<g>
			
				<line style="fill:none;stroke:#393A3A;stroke-width:5;stroke-miterlimit:10;" x1="185.946" y1="209.218" x2="185.946" y2="228.997"/>
			<path style="fill:#010101;" d="M186.754,222.606c-10.584,0.631-27.33-15.131-20.322-26.656
				c4.861-7.994,39.759-4.363,40.644,4.473S200.008,221.815,186.754,222.606z"/>
			<path style="fill:#4A4A4B;" d="M174.87,217.335c0,0,0.072-7.033,4.77-7.033c4.699,0,3.094,11.826,3.094,11.826"/>
			<path style="fill:#4A4A4B;" d="M199.586,216.097c0,0-0.08-6.963-5.24-6.963c-5.162,0-3.396,12.994-3.396,12.994"/>
		</g>
		<polyline style="fill:#5C3A1D;" points="141.022,26.591 141.022,33.421 150.756,28.087 156.424,33.421 166.762,22.73 
			170.756,28.076 181.424,22.73 187.424,30.753 201.756,22.73 207.143,35.753 221.869,27.087 199.586,14.754 149.756,18.087 		"/>
		<g>
			<path style="fill:#393A3A;" d="M125.448,182.13c0.893,2.316-5.246,4.396-10.609,6.947c-5.359,2.547-11.375,9.641-13.697,7.811
				c-2.416-1.904,6.879-10.285,12.242-12.832C118.741,181.507,124.721,180.247,125.448,182.13z"/>
			<g>
				<path style="fill:#EB8BB8;" d="M191.004,245.677c-20.822-2.809-50.925,10.723-59.228,1.635c-2.35,2.719-3.377,5.613-2.578,8.596
					c4.094,15.26,38.16-1.369,61.021,1.717c22.887,3.094,47.42,10.594,49.043-2.926c0.271-2.258-0.471-4.512-2-6.699
					C229.973,253.796,209.932,248.235,191.004,245.677z"/>
				<path style="fill:#DB76AB;" d="M195.342,229.679c-18.578-2.516-53.414,5.885-63.566,17.633
					c8.303,9.088,38.406-4.443,59.228-1.635c18.928,2.559,38.969,8.119,46.258,2.322
					C231.352,239.546,213.508,232.124,195.342,229.679z"/>
			</g>
			<path style="fill:#393A3A;" d="M247.027,177.796c-0.895,2.316,5.244,4.396,10.607,6.947c5.359,2.547,11.375,9.641,13.697,7.811
				c2.416-1.904-6.879-10.285-12.24-12.832C253.732,177.173,247.752,175.913,247.027,177.796z"/>
			<path style="opacity:0.6;fill:#FFFFFF;stroke:#E5E5E5;stroke-width:0.25;stroke-miterlimit:10;" d="M262.23,104.274
				c0,0-8.27,16.227-12.111,35.357c-3.842,19.129,5.215,23.062,18.66,23.062s17.594-13.66,12.062-27.463
				C275.312,121.431,262.23,104.274,262.23,104.274z"/>
			<g>
				<g>
					<path style="fill:#CA6AA0;" d="M215.73,278.706c-0.201-0.01-0.383-0.045-0.578-0.061l-3.879-33.396
						c-0.02-0.004-0.039-0.008-0.059-0.012l3.938,33.902c-1.619-0.127-3.125-0.422-4.521-0.854l0.816,4.375
						c0.195,0.016-0.578-2.713,0,0c0.092,0.434-0.426,0.008,0,0c6.67-0.107,13.174-1.131,14.771-7.455
						c-2.291,2.207-5.412,3.447-9.195,3.508C216.598,278.722,216.172,278.729,215.73,278.706z"/>
					<path style="fill:#CA6AA0;" d="M196.553,258.433c-0.086-4.516-1.02-6.418-2.092-10.271c-1.695-2.318-3.842-5.801-5.81-5.502
						c0,0,4.033,13.793,4.197,22.439c0.164,8.512,5.902,16.57,18.6,17.562l-0.875-4.395
						C201.066,275.29,196.695,265.843,196.553,258.433z"/>
					<path style="fill:#DB76AB;" d="M226.775,268.149c-0.59-9.088-5.951-19.348-5.951-19.348s-3.014-2.193-9.551-3.553l3.879,33.396
						c0.195,0.016,0.377,0.051,0.578,0.061c0.441,0.023,0.867,0.016,1.293,0.008c3.783-0.061,6.904-1.301,9.195-3.508
						C226.746,273.122,226.945,270.759,226.775,268.149z"/>
					<path style="fill:#DB76AB;" d="M211.215,245.237c-1.297-0.268-2.719-0.506-4.297-0.684c-0.068-0.008-0.139-0.016-0.207-0.023
						l3.92,33.756c1.396,0.432,2.902,0.727,4.521,0.854L211.215,245.237z"/>
					<path style="fill:#DB76AB;" d="M190.467,243.292c5.344,5.994,6,10.625,6.086,15.141c0.143,7.41,4.514,16.857,14.02,19.834
						l-3.861-33.242C203.25,244.646,195.32,242.882,190.467,243.292z"/>
				</g>
				<path style="fill:#CA6AA0;" d="M203.686,243.786c0,0,8.926,13.475,10.066,23.295c0,0,0.684-19.67-7.041-22.057L203.686,243.786z
					"/>
			</g>
		</g>
	</g>
</g>
<g id="Layer_1">
</g>
</svg>
