<?xml version="1.0" encoding="iso-8859-1"?>
<!-- Generator: Adobe Illustrator 16.0.0, SVG Export Plug-In . SVG Version: 6.00 Build 0)  -->
<!DOCTYPE svg PUBLIC "-//W3C//DTD SVG 1.1//EN" "http://www.w3.org/Graphics/SVG/1.1/DTD/svg11.dtd">
<svg version="1.1" xmlns="http://www.w3.org/2000/svg" xmlns:xlink="http://www.w3.org/1999/xlink" x="0px" y="0px" width="395px"
	 height="534px" viewBox="0 0 395 534" style="enable-background:new 0 0 395 534;" xml:space="preserve">
<g id="normal">
	<g>
		<ellipse style="fill:#D8D9D8;" cx="197.5" cy="497.341" rx="110.959" ry="13.438"/>
		<path style="fill:#BBBCBC;" d="M149.501,401.464c0,0,5.582,76.523,23.361,76.574s6.637-75.459,22.637-76.556
			s6.279,78.505,23.279,78.556s26.721-78.574,26.721-78.574"/>
		<path style="fill:#BBBCBC;" d="M130.062,11.2c-16.08,4.733-24.76,16.63-22.584,32.442l20.762,146.83l57.258-7.877L168.688,37.846
			C166.085,17.338,145.37,6.693,130.062,11.2z"/>
		<path style="fill:#BBBCBC;" d="M302.964,44.318c-15.926-5.222-37.045-6.256-44.221,8l-61.992,117.282l51.623,25.991
			l68.262-128.744C326.126,48.482,318.13,49.291,302.964,44.318z"/>
		<circle style="fill:#BBBCBC;" cx="197.5" cy="283.845" r="145.501"/>
		<path style="fill:#D9D8D7;" d="M261.64,183.244c15.629,20.309,25.131,44.869,25.131,71.632
			c0,72.093-55.768,128.231-127.861,128.231c-23.213,0-44.705-6.066-63.186-16.689c23.037,31.077,59.566,51.117,101.777,51.117
			c72.094,0,127.861-56.139,127.861-128.231C325.362,244.638,298.909,206.104,261.64,183.244z"/>
		<path style="fill:#F0EFEF;" d="M286.771,254.876c0-26.763-9.502-51.323-25.131-71.632c-22.887-14.039-49.85-22.171-77.277-22.171
			c-72.096,0-114.5,53.829-114.5,125.924c0,29.885,9.551,57.418,25.861,79.421c18.48,10.623,39.973,16.689,63.186,16.689
			C231.003,383.107,286.771,326.969,286.771,254.876z"/>
		<path style="fill:#393A3A;" d="M267.696,258.315c0,4.945-1.865,8.693-6.812,8.693c-4.943,0-11.096-3.748-11.096-8.693
			s4.01-8.953,8.955-8.953C263.687,249.362,267.696,253.37,267.696,258.315z"/>
		<path style="fill:#393A3A;" d="M133.032,249.502c4.906-0.62,8.857,0.761,9.479,5.669c0.617,4.904-2.33,11.479-7.236,12.098
			s-9.385-2.857-10.004-7.764C124.651,254.601,128.126,250.12,133.032,249.502z"/>
		<path style="fill:#393A3A;" d="M197.946,287.767c-5.779,0.344-14.922-8.262-11.096-14.555c2.654-4.364,21.707-2.381,22.191,2.443
			C209.524,280.479,205.183,287.335,197.946,287.767z"/>
		<polyline style="fill:#BBBCBC;" points="152.575,164.936 152.575,171.765 162.312,166.431 167.978,171.765 178.315,161.073 
			182.312,166.419 192.978,161.073 198.978,169.098 213.312,161.073 218.698,174.098 233.423,165.431 211.14,153.098 
			161.312,156.431 		"/>
		<path style="fill:#ABABAB;" d="M224.415,140.818c0,0,31.582-64.5,34.328-70.5s6.08-25.333,29.412-21
			c23.334,4.333,14.785,27.679,4.059,51.006c-10.725,23.327-31.875,49.712-31.875,49.712"/>
		<path style="fill:#BBBCBC;" d="M318.687,50.229c9.199,12.577,9.693,49.423-4.975,50.089c-14.666,0.666-31.225-52-44.557-48
			l-0.572-3.627l20.404-4.373"/>
		<path style="fill:#ABABAB;" d="M129.437,26.765c-10.973,3.688-14.678,9.854-10.438,25.927s13.438,100.345,13.438,100.345
			l38.803-14.271c0,0-12.438-78.226-15.219-90.446S143.321,22.098,129.437,26.765z"/>
		<g>
			<path style="fill:none;stroke:#393A3A;stroke-width:5;stroke-miterlimit:10;" d="M196.51,285.289c0,0,3.942,36.202-29.466,36.202
				c-26.734,0-28.83-24.35-28.83-24.35"/>
			<path style="fill:none;stroke:#393A3A;stroke-width:5;stroke-miterlimit:10;" d="M196.51,285.289c0,0-3.942,36.202,29.466,36.202
				c26.733,0,28.83-24.35,28.83-24.35"/>
		</g>
	</g>
</g>
<g id="Layer_1">
</g>
</svg>
