<?xml version="1.0" encoding="iso-8859-1"?>
<!-- Generator: Adobe Illustrator 16.0.0, SVG Export Plug-In . SVG Version: 6.00 Build 0)  -->
<!DOCTYPE svg PUBLIC "-//W3C//DTD SVG 1.1//EN" "http://www.w3.org/Graphics/SVG/1.1/DTD/svg11.dtd">
<svg version="1.1" xmlns="http://www.w3.org/2000/svg" xmlns:xlink="http://www.w3.org/1999/xlink" x="0px" y="0px" width="395px"
	 height="534px" viewBox="0 0 395 534" style="enable-background:new 0 0 395 534;" xml:space="preserve">
<g id="nogood">
	<g>
		<ellipse style="fill:#D8D9D8;" cx="197.5" cy="497.34" rx="110.96" ry="13.438"/>
		<path style="fill:#BBBCBC;" d="M149.501,429.342c0,0,15.582,70.184,33.361,70.234c17.781,0.051-3.363-69.119,12.637-70.217
			c16-1.096-3.719,72.166,13.281,72.217s36.719-72.234,36.719-72.234"/>
		<path style="fill:#BBBCBC;" d="M130.062,39.079c-16.08,4.732-24.76,16.63-22.584,32.441l20.762,146.83l57.258-7.877
			l-16.809-144.75C166.085,45.216,145.37,34.571,130.062,39.079z"/>
		<path style="fill:#BBBCBC;" d="M302.964,72.196c-15.926-5.222-37.045-6.256-44.221,8l-61.992,117.283l51.623,25.99l68.262-128.744
			C326.126,76.359,318.13,77.168,302.964,72.196z"/>
		<circle style="fill:#BBBCBC;" cx="197.5" cy="311.723" r="145.501"/>
		<path style="fill:#DEDEDD;" d="M261.64,211.121c15.629,20.309,25.131,44.869,25.131,71.633c0,72.092-55.768,128.23-127.861,128.23
			c-23.213,0-44.705-6.066-63.186-16.689c23.037,31.078,59.566,51.117,101.777,51.117c72.094,0,127.861-56.139,127.861-128.23
			C325.362,272.516,298.909,233.982,261.64,211.121z"/>
		<path style="fill:#F0EFEF;" d="M286.771,282.754c0-26.764-9.502-51.324-25.131-71.633c-22.887-14.039-49.85-22.17-77.277-22.17
			c-72.096,0-114.5,53.828-114.5,125.924c0,29.885,9.551,57.418,25.861,79.42c18.48,10.623,39.973,16.689,63.186,16.689
			C231.003,410.984,286.771,354.846,286.771,282.754z"/>
		<path style="fill:#393A3A;" d="M267.696,347.137c0,4.945-1.865,8.691-6.812,8.691c-4.943,0-11.096-3.746-11.096-8.691
			s4.01-8.953,8.955-8.953C263.687,338.184,267.696,342.191,267.696,347.137z"/>
		<path style="fill:#393A3A;" d="M133.032,338.322c4.906-0.619,8.857,0.762,9.479,5.67c0.617,4.904-2.33,11.479-7.236,12.098
			s-9.385-2.859-10.004-7.764C124.651,343.42,128.126,338.941,133.032,338.322z"/>
		<path style="fill:#393A3A;" d="M197.946,370.193c-5.779,0.344-14.922-8.262-11.096-14.555c2.654-4.365,21.707-2.381,22.191,2.443
			C209.524,362.906,205.183,369.762,197.946,370.193z"/>
		
			<line style="fill:none;stroke:#393A3A;stroke-width:5;stroke-miterlimit:10;" x1="197.499" y1="359.699" x2="197.499" y2="386.031"/>
		<polyline style="fill:#BBBCBC;" points="152.575,192.812 152.575,199.643 162.312,194.309 167.978,199.643 178.315,188.951 
			182.312,194.297 192.978,188.951 198.978,196.975 213.312,188.951 218.698,201.975 233.423,193.309 211.14,180.975 
			161.312,184.309 		"/>
		<path style="fill:#ABABAB;" d="M224.415,168.695c0,0,31.582-64.5,34.328-70.5s6.08-25.333,29.412-21
			c23.334,4.334,14.785,27.68,4.059,51.008c-10.725,23.326-31.875,49.711-31.875,49.711"/>
		<path style="fill:#BBBCBC;" d="M318.687,78.107c9.199,12.576,9.693,49.422-4.975,50.088c-14.666,0.668-31.225-52-44.557-48
			l-0.572-3.627l20.404-4.373"/>
		<path style="fill:#ABABAB;" d="M129.437,54.643c-10.973,3.688-14.678,9.854-10.438,25.925
			c4.24,16.074,13.438,100.346,13.438,100.346l38.803-14.271c0,0-12.438-78.227-15.219-90.447
			C153.239,63.975,143.321,49.975,129.437,54.643z"/>
		<path style="fill:none;stroke:#393A3A;stroke-width:5;stroke-miterlimit:10;" d="M123.417,387.436
			c8.333,0,11-11.191,18.333-11.191c8.333,0,11,11.191,18.333,11.191c8.334,0,11-11.191,18.334-11.191
			c8.334,0,11,11.191,18.334,11.191c8.333,0,11-11.191,18.333-11.191c8.333,0,11,11.191,18.333,11.191
			c8.334,0,11-11.191,18.334-11.191c8.334,0,11,11.191,18.334,11.191"/>
	</g>
</g>
<g id="Layer_1">
</g>
</svg>
