<?xml version="1.0" encoding="iso-8859-1"?>
<!-- Generator: Adobe Illustrator 16.0.0, SVG Export Plug-In . SVG Version: 6.00 Build 0)  -->
<!DOCTYPE svg PUBLIC "-//W3C//DTD SVG 1.1//EN" "http://www.w3.org/Graphics/SVG/1.1/DTD/svg11.dtd">
<svg version="1.1" xmlns="http://www.w3.org/2000/svg" xmlns:xlink="http://www.w3.org/1999/xlink" x="0px" y="0px" width="395px"
	 height="534px" viewBox="0 0 395 534" style="enable-background:new 0 0 395 534;" xml:space="preserve">
<g id="sick">
	<g>
		<ellipse style="fill:#D8D9D8;" cx="197.5" cy="497.34" rx="110.96" ry="13.438"/>
		<path style="fill:#BBBCBC;" d="M258.351,454.609c0,0,51.845,32.16,41.847,39.057c-11.203,7.729-62.002-29.965-75.002-27.607
			c-17.648,3.201,64.75,30.211,52.442,39.143c-10.532,7.643-76.719-15-76.719-15c-63.973-17-96.445-44.891-96.445-44.891"/>
		<path style="fill:#BBBCBC;" d="M130.062,59.725c-16.08,4.732-24.76,16.63-22.584,32.441l20.762,146.83l57.258-7.877
			l-16.809-144.75C166.085,65.863,145.37,55.217,130.062,59.725z"/>
		<path style="fill:#BBBCBC;" d="M302.964,92.842c-15.926-5.221-37.045-6.256-44.221,8l-61.992,117.283l51.623,25.99l68.262-128.744
			C326.126,97.006,318.13,97.814,302.964,92.842z"/>
		<circle style="fill:#BBBCBC;" cx="197.5" cy="332.369" r="145.501"/>
		<path style="fill:#DEDEDD;" d="M261.64,231.768c15.629,20.309,25.131,44.869,25.131,71.633c0,72.092-55.768,128.23-127.861,128.23
			c-23.213,0-44.705-6.066-63.186-16.689c23.037,31.078,59.566,51.117,101.777,51.117c72.094,0,127.861-56.139,127.861-128.23
			C325.362,293.162,298.909,254.629,261.64,231.768z"/>
		<path style="fill:#F0EFEF;" d="M286.771,303.4c0-26.764-9.502-51.324-25.131-71.633c-22.887-14.039-49.85-22.17-77.277-22.17
			c-72.096,0-114.5,53.828-114.5,125.924c0,29.885,9.551,57.418,25.861,79.42c18.48,10.623,39.973,16.689,63.186,16.689
			C231.003,431.631,286.771,375.492,286.771,303.4z"/>
		<path style="fill:#393A3A;" d="M197.946,406.291c-5.779,0.344-14.922-8.262-11.096-14.555c2.654-4.365,21.707-2.381,22.191,2.443
			C209.524,399.004,205.183,405.859,197.946,406.291z"/>
		
			<line style="fill:none;stroke:#393A3A;stroke-width:5;stroke-miterlimit:10;" x1="197.499" y1="395.955" x2="197.499" y2="415.734"/>
		<polyline style="fill:#BBBCBC;" points="152.575,213.459 152.575,220.289 162.312,214.955 167.978,220.289 178.315,209.598 
			182.312,214.943 192.978,209.598 198.978,217.621 213.312,209.598 218.698,222.621 233.423,213.955 211.14,201.621 
			161.312,204.955 		"/>
		<path style="fill:#ABABAB;" d="M224.415,189.342c0,0,31.582-64.5,34.328-70.5s6.08-25.332,29.412-21
			c23.334,4.334,14.785,27.68,4.059,51.008c-10.725,23.326-31.875,49.711-31.875,49.711"/>
		<path style="fill:#ABABAB;" d="M129.437,75.289c-10.973,3.688-14.678,9.854-10.438,25.926
			c4.24,16.074,13.438,100.346,13.438,100.346l38.803-14.271c0,0-12.438-78.227-15.219-90.447S143.321,70.622,129.437,75.289z"/>
		<g>
			<path style="fill:#393A3A;" d="M136.364,368.998c0.894,2.316-5.246,4.396-10.609,6.947c-5.358,2.547-11.374,9.641-13.697,7.811
				c-2.416-1.904,6.88-10.285,12.242-12.832C129.658,368.375,135.639,367.115,136.364,368.998z"/>
			<g>
				<path style="fill:#EB8BB8;" d="M201.921,432.545c-20.822-2.809-50.926,10.723-59.229,1.635
					c-2.349,2.719-3.377,5.613-2.578,8.596c4.094,15.26,38.16-1.369,61.021,1.717c22.887,3.094,47.421,10.594,49.044-2.926
					c0.271-2.258-0.472-4.512-2.001-6.699C240.89,440.664,220.849,435.104,201.921,432.545z"/>
				<path style="fill:#DB76AB;" d="M206.259,416.547c-18.578-2.516-53.414,5.885-63.566,17.633
					c8.303,9.088,38.406-4.443,59.229-1.635c18.928,2.559,38.969,8.119,46.258,2.322
					C242.27,426.414,224.426,418.992,206.259,416.547z"/>
			</g>
			<path style="fill:#393A3A;" d="M257.944,364.664c-0.895,2.316,5.245,4.396,10.608,6.947c5.359,2.547,11.375,9.641,13.697,7.811
				c2.416-1.904-6.879-10.285-12.241-12.832C264.649,364.041,258.669,362.781,257.944,364.664z"/>
			<path style="opacity:0.6;fill:#FFFFFF;stroke:#E5E5E5;stroke-width:0.25;stroke-miterlimit:10;" d="M273.148,291.143
				c0,0-8.271,16.227-12.112,35.357c-3.841,19.129,5.216,23.062,18.661,23.062s17.594-13.66,12.062-27.463
				C286.229,308.299,273.148,291.143,273.148,291.143z"/>
			<g>
				<g>
					<path style="fill:#CA6AA0;" d="M226.647,465.574c-0.2-0.01-0.383-0.045-0.578-0.061l-3.879-33.396
						c-0.02-0.004-0.039-0.008-0.059-0.012l3.938,33.902c-1.619-0.127-3.125-0.422-4.521-0.854l0.816,4.375
						c0.195,0.016-0.578-2.713,0,0c0.092,0.434-0.426,0.008,0,0c6.67-0.107,13.174-1.131,14.771-7.455
						c-2.291,2.207-5.412,3.447-9.195,3.508C227.515,465.59,227.089,465.598,226.647,465.574z"/>
					<path style="fill:#CA6AA0;" d="M207.471,445.301c-0.086-4.516-1.021-6.418-2.092-10.271c-1.696-2.318-3.843-5.801-5.812-5.502
						c0,0,4.033,13.793,4.198,22.439c0.163,8.512,5.901,16.57,18.599,17.562l-0.875-4.395
						C211.983,462.158,207.613,452.711,207.471,445.301z"/>
					<path style="fill:#DB76AB;" d="M237.692,455.018c-0.59-9.088-5.95-19.348-5.95-19.348s-3.014-2.193-9.552-3.553l3.879,33.396
						c0.195,0.016,0.378,0.051,0.578,0.061c0.441,0.023,0.867,0.016,1.293,0.008c3.783-0.061,6.904-1.301,9.195-3.508
						C237.663,459.99,237.862,457.627,237.692,455.018z"/>
					<path style="fill:#DB76AB;" d="M222.132,432.105c-1.297-0.268-2.719-0.506-4.297-0.684c-0.068-0.008-0.138-0.016-0.207-0.023
						l3.92,33.756c1.396,0.432,2.902,0.727,4.521,0.854L222.132,432.105z"/>
					<path style="fill:#DB76AB;" d="M201.384,430.16c5.344,5.994,6.001,10.625,6.087,15.141c0.143,7.41,4.513,16.857,14.019,19.834
						l-3.861-33.242C214.168,431.514,206.238,429.75,201.384,430.16z"/>
				</g>
				<path style="fill:#CA6AA0;" d="M214.603,430.654c0,0,8.926,13.475,10.066,23.295c0,0,0.684-19.67-7.041-22.057L214.603,430.654z
					"/>
			</g>
		</g>
		<path style="fill:#BBBCBC;" d="M318.687,99.207c9.199,12.578,9.693,49.424-4.975,50.09c-14.666,0.666-31.225-52-44.557-48
			l-0.572-3.627l20.404-4.373"/>
	</g>
</g>
<g id="Layer_1">
</g>
</svg>
