<?xml version="1.0" encoding="iso-8859-1"?>
<!-- Generator: Adobe Illustrator 16.0.0, SVG Export Plug-In . SVG Version: 6.00 Build 0)  -->
<!DOCTYPE svg PUBLIC "-//W3C//DTD SVG 1.1//EN" "http://www.w3.org/Graphics/SVG/1.1/DTD/svg11.dtd">
<svg version="1.1" xmlns="http://www.w3.org/2000/svg" xmlns:xlink="http://www.w3.org/1999/xlink" x="0px" y="0px" width="395px"
	 height="534px" viewBox="0 0 395 534" style="enable-background:new 0 0 395 534;" xml:space="preserve">
<g id="ecstatic">
	<path style="fill:#BBBCBC;" d="M130.062,9.495c-16.08,4.732-24.76,16.63-22.584,32.441l20.762,146.83l57.258-7.877l-16.809-144.75
		C166.085,15.632,145.37,4.987,130.062,9.495z"/>
	<path style="fill:#BBBCBC;" d="M302.964,42.612c-15.926-5.222-37.045-6.256-44.221,8l-61.992,117.283l51.623,25.99l68.262-128.744
		C326.126,46.776,318.13,47.584,302.964,42.612z"/>
	<path style="fill:#ABABAB;" d="M224.415,139.112c0,0,31.582-64.5,34.328-70.5s6.08-25.333,29.412-21
		c23.334,4.334,14.785,27.68,4.059,51.007c-10.725,23.327-31.875,49.712-31.875,49.712"/>
	<path style="fill:#BBBCBC;" d="M318.687,48.523c9.199,12.577,9.693,49.423-4.975,50.089c-14.666,0.667-31.225-52-44.557-48
		l-0.572-3.627l20.404-4.373"/>
	<path style="fill:#ABABAB;" d="M129.437,25.059c-10.973,3.688-14.678,9.854-10.438,25.926
		c4.24,16.074,13.438,100.346,13.438,100.346l38.803-14.271c0,0-12.438-78.227-15.219-90.447S143.321,20.391,129.437,25.059z"/>
	<circle style="fill:#BBBCBC;" cx="197.5" cy="282.139" r="145.501"/>
	<path style="fill:#BBBCBC;" d="M149.378,399.758c0,0-30.418,73.297-12.639,73.348c17.781,0.051,42.638-72.232,58.638-73.33
		c16-1.096,46.279,75.93,63.279,75.98s-13.279-75.998-13.279-75.998"/>
	<g>
		<path style="fill:#DEDEDD;" d="M192.676,372.543c-51.794,0-95.829-24.84-120.216-62.102
			c11.921,59.07,62.148,103.404,124.938,103.404c70.992,0,126.152-54.436,127.822-124.938
			C305.84,338.277,254.748,372.543,192.676,372.543z"/>
		<path style="fill:#F0EFEF;" d="M192.676,372.543c62.072,0,113.164-34.266,132.545-83.635c0.025-1.094,0.039-2.191,0.039-3.293
			c0-13.17-2.307-25.801-6.504-37.66c-18.783-53.066-75.57-90.57-134.496-90.57c-57.354,0-95.917,34.07-109.288,84.303
			c-3.438,12.908-5.211,26.881-5.211,41.621c0,9.305,0.932,18.379,2.699,27.133C96.847,347.703,140.882,372.543,192.676,372.543z"/>
	</g>
	<ellipse style="fill:#D8D9D8;" cx="197.5" cy="497.34" rx="110.959" ry="13.438"/>
	<path style="fill:#393A3A;" d="M197.946,236.34c-5.779,0.346-14.922-8.26-11.096-14.553c2.654-4.365,21.707-2.381,22.191,2.443
		C209.524,229.053,205.183,235.908,197.946,236.34z"/>
	
		<line style="fill:none;stroke:#393A3A;stroke-width:5;stroke-miterlimit:10;" x1="197.499" y1="226.006" x2="197.499" y2="251.354"/>
	<polyline style="fill:#BBBCBC;" points="152.575,163.229 152.575,170.059 162.312,164.725 167.978,170.059 178.315,159.367 
		182.312,164.713 192.978,159.367 198.978,167.391 213.312,159.367 218.698,172.391 233.423,163.725 211.14,151.391 
		161.312,154.725 	"/>
	<g>
		<path style="fill:#DB76AB;" d="M199.861,354.553c8.977,0.162,17.696-0.863,26.026-2.902l-45.076,0.936
			C187.077,353.766,193.453,354.438,199.861,354.553z"/>
		<path style="fill:#EB8BB8;" d="M146.263,252.426l-55.033,1.584c-0.393,21.816,7.484,41.727,20.557,57.971
			c5.135,6.381,11.074,12.197,17.628,17.34c1.976-6.822,4.825-13.244,8.708-19.008c8.141-12.088,20.766-21.307,39.123-25.359
			c5.827-1.496,11.95-2.244,18.257-2.133c23.039,0.416,45.453,11.492,59.258,28.645c5.303,6.592,9.323,14.084,11.631,22.209
			c7.494-5.76,13.715-12.492,18.758-19.98c12.312-18.283,17.723-40.982,18.146-64.527L146.263,252.426z"/>
		<path style="fill:#DB76AB;" d="M195.502,282.82c-6.307-0.111-12.43,0.637-18.257,2.133c-18.357,4.053-30.982,13.271-39.123,25.359
			c-3.883,5.764-6.732,12.186-8.708,19.008c14.728,11.557,32.564,19.717,51.397,23.266l45.076-0.936
			c0.369-0.092,0.741-0.172,1.109-0.266c15.913-3.514,28.909-9.652,39.394-17.711c-2.308-8.125-6.328-15.617-11.631-22.209
			C240.955,294.312,218.541,283.236,195.502,282.82z"/>
	</g>
	<path style="fill:#383938;" d="M280.131,224.016c0,7.588-6.152-3.738-13.74-3.738s-13.738,11.326-13.738,3.738
		s6.152-13.738,13.74-13.738S280.131,216.428,280.131,224.016z"/>
	<path style="fill:#383938;" d="M143.153,221.691c0,7.588-6.151-3.738-13.739-3.738s-13.739,11.326-13.739,3.738
		s6.152-13.738,13.74-13.738S143.153,214.104,143.153,221.691z"/>
</g>
<g id="Layer_1">
</g>
</svg>
