<?xml version="1.0" encoding="iso-8859-1"?>
<!-- Generator: Adobe Illustrator 16.0.0, SVG Export Plug-In . SVG Version: 6.00 Build 0)  -->
<!DOCTYPE svg PUBLIC "-//W3C//DTD SVG 1.1//EN" "http://www.w3.org/Graphics/SVG/1.1/DTD/svg11.dtd">
<svg version="1.1" xmlns="http://www.w3.org/2000/svg" xmlns:xlink="http://www.w3.org/1999/xlink" x="0px" y="0px" width="395px"
	 height="534px" viewBox="0 0 395 534" style="enable-background:new 0 0 395 534;" xml:space="preserve">
<g id="happy">
	<g>
		<ellipse style="fill:#D8D9D8;" cx="197.5" cy="497.34" rx="110.959" ry="13.438"/>
		<path style="fill:#BBBCBC;" d="M149.501,397.979c0,0,5.58,55.559,23.361,55.609c17.779,0.051,6.637-54.494,22.637-55.592
			c16-1.096,6.279,82.93,23.279,82.98s26.721-82.998,26.721-82.998"/>
		<path style="fill:#BBBCBC;" d="M130.062,7.715c-16.08,4.733-24.76,16.63-22.584,32.442l20.762,146.83l57.258-7.877L168.688,34.361
			C166.085,13.854,145.37,3.208,130.062,7.715z"/>
		<path style="fill:#BBBCBC;" d="M302.964,40.833c-15.926-5.222-37.045-6.256-44.221,8l-61.992,117.282l51.623,25.99l68.262-128.743
			C326.126,44.997,318.13,45.806,302.964,40.833z"/>
		<circle style="fill:#BBBCBC;" cx="197.5" cy="280.36" r="145.501"/>
		<path style="fill:#DEDEDD;" d="M261.64,179.758c15.629,20.309,25.131,44.869,25.131,71.633
			c0,72.092-55.768,128.231-127.861,128.231c-23.213,0-44.705-6.066-63.186-16.689c23.037,31.078,59.566,51.117,101.777,51.117
			c72.094,0,127.861-56.139,127.861-128.23C325.362,241.153,298.909,202.62,261.64,179.758z"/>
		<path style="fill:#F0EFEF;" d="M286.771,251.391c0-26.764-9.502-51.324-25.131-71.633c-22.887-14.039-49.85-22.17-77.277-22.17
			c-72.096,0-114.5,53.828-114.5,125.924c0,29.885,9.551,57.418,25.861,79.42c18.48,10.623,39.973,16.689,63.186,16.689
			C231.003,379.622,286.771,323.483,286.771,251.391z"/>
		<path style="fill:#393A3A;" d="M267.696,254.831c0,4.945-1.865,8.693-6.812,8.693c-4.943,0-11.096-3.748-11.096-8.693
			s4.01-8.953,8.955-8.953C263.687,245.877,267.696,249.885,267.696,254.831z"/>
		<path style="fill:#393A3A;" d="M133.032,246.016c4.906-0.619,8.857,0.762,9.479,5.67c0.617,4.904-2.33,11.479-7.236,12.098
			s-9.385-2.857-10.004-7.764C124.651,251.116,128.126,246.635,133.032,246.016z"/>
		<path style="fill:#393A3A;" d="M197.946,284.282c-5.779,0.344-14.922-8.262-11.096-14.556c2.654-4.365,21.707-2.38,22.191,2.444
			C209.524,276.995,205.183,283.851,197.946,284.282z"/>
		
			<line style="fill:none;stroke:#393A3A;stroke-width:5;stroke-miterlimit:10;" x1="197.499" y1="273.946" x2="197.499" y2="293.726"/>
		<polyline style="fill:#BBBCBC;" points="152.575,161.45 152.575,168.28 162.312,162.946 167.978,168.28 178.315,157.588 
			182.312,162.934 192.978,157.588 198.978,165.612 213.312,157.588 218.698,170.612 233.423,161.946 211.14,149.612 
			161.312,152.946 		"/>
		<path style="fill:#ABABAB;" d="M224.415,137.333c0,0,31.582-64.499,34.328-70.499s6.08-25.333,29.412-21
			c23.334,4.333,14.785,27.679,4.059,51.006c-10.725,23.327-31.875,49.711-31.875,49.711"/>
		<path style="fill:#BBBCBC;" d="M318.687,46.744c9.199,12.577,9.693,49.423-4.975,50.089c-14.666,0.667-31.225-52-44.557-48
			l-0.572-3.627l20.404-4.373"/>
		<path style="fill:#ABABAB;" d="M129.437,23.28c-10.973,3.688-14.678,9.854-10.438,25.927s13.438,100.345,13.438,100.345
			l38.803-14.271c0,0-12.438-78.226-15.219-90.446S143.321,18.613,129.437,23.28z"/>
		<g>
			<path style="fill:#EB8BB8;" d="M250.629,339.274c1.379-0.887,2.735-1.785,4.043-2.709c27.173-19.17,25.464-44.943,25.464-44.943
				l-166.73,6.729c0,0-2.418,24.162,23.07,41.166c0.675,0.449,1.372,0.891,2.068,1.33c14.083-9.047,31.887-15.992,53.853-16.846
				C216.7,323.058,235.915,329.96,250.629,339.274z"/>
			<path style="fill:#DB76AB;" d="M196.776,356.12c21.966-0.854,39.77-7.799,53.853-16.846
				c-14.714-9.314-33.929-16.217-58.232-15.273c-21.966,0.854-39.77,7.799-53.853,16.846
				C153.257,350.161,172.473,357.063,196.776,356.12z"/>
		</g>
	</g>
</g>
<g id="Layer_1">
</g>
</svg>
