<?xml version="1.0" encoding="iso-8859-1"?>
<!-- Generator: Adobe Illustrator 16.0.0, SVG Export Plug-In . SVG Version: 6.00 Build 0)  -->
<!DOCTYPE svg PUBLIC "-//W3C//DTD SVG 1.1//EN" "http://www.w3.org/Graphics/SVG/1.1/DTD/svg11.dtd">
<svg version="1.1" xmlns="http://www.w3.org/2000/svg" xmlns:xlink="http://www.w3.org/1999/xlink" x="0px" y="0px" width="395px"
	 height="534px" viewBox="0 0 395 534" style="enable-background:new 0 0 395 534;" xml:space="preserve">
<g id="eating">
	<g>
		<path style="fill:#BBBCBC;" d="M149.501,400.499c0,0,5.581,76.525,23.361,76.576s6.637-75.461,22.637-76.557
			c16-1.098,6.28,78.506,23.28,78.557s26.72-78.576,26.72-78.576"/>
		<path style="fill:#BBBCBC;" d="M130.062,8.023c-16.08,4.733-24.76,16.63-22.584,32.442l20.762,146.83l57.258-7.877l-16.809-144.75
			C166.085,14.162,145.37,3.517,130.062,8.023z"/>
		<path style="fill:#BBBCBC;" d="M302.964,41.142c-15.926-5.222-37.045-6.256-44.221,8l-61.992,117.283l51.623,25.99l68.262-128.744
			C326.126,45.305,318.13,46.114,302.964,41.142z"/>
		<circle style="fill:#BBBCBC;" cx="197.5" cy="280.669" r="145.501"/>
		<ellipse style="fill:#D8D9D8;" cx="197.5" cy="497.34" rx="110.959" ry="13.438"/>
		<path style="fill:#D9D8D7;" d="M261.64,180.067c15.629,20.309,25.131,44.869,25.131,71.633
			c0,72.092-55.768,128.231-127.861,128.231c-23.213,0-44.705-6.066-63.186-16.689c23.037,31.078,59.566,51.117,101.777,51.117
			c72.094,0,127.861-56.139,127.861-128.23C325.362,241.461,298.909,202.928,261.64,180.067z"/>
		<path style="fill:#F0EFEF;" d="M286.771,251.7c0-26.764-9.502-51.324-25.131-71.633c-22.887-14.039-49.85-22.17-77.277-22.17
			c-72.096,0-114.5,53.828-114.5,125.924c0,29.885,9.551,57.418,25.861,79.42c18.48,10.623,39.973,16.689,63.186,16.689
			C231.003,379.931,286.771,323.792,286.771,251.7z"/>
		<g>
			<path style="fill:#393A3A;" d="M197.946,273.591c-5.779,0.344-14.922-8.262-11.096-14.555c2.654-4.365,21.707-2.381,22.191,2.443
				C209.524,266.303,205.183,273.159,197.946,273.591z"/>
			
				<line style="fill:none;stroke:#393A3A;stroke-width:5;stroke-miterlimit:10;" x1="197.499" y1="263.254" x2="197.499" y2="283.034"/>
		</g>
		<polyline style="fill:#BBBCBC;" points="152.575,161.758 152.575,168.588 162.312,163.254 167.978,168.588 178.315,157.897 
			182.312,163.243 192.978,157.897 198.978,165.92 213.312,157.897 218.698,170.92 233.423,162.254 211.14,149.92 161.312,153.254 
					"/>
		<path style="fill:#ABABAB;" d="M224.415,137.641c0,0,31.582-64.5,34.328-70.5s6.08-25.333,29.412-21
			c23.334,4.333,14.785,27.679,4.059,51.006c-10.725,23.327-31.875,49.712-31.875,49.712"/>
		<path style="fill:#BBBCBC;" d="M318.687,47.052c9.199,12.577,9.693,49.423-4.975,50.089c-14.666,0.667-31.225-52-44.557-48
			l-0.572-3.627l20.404-4.373"/>
		<path style="fill:#ABABAB;" d="M129.437,23.588c-10.973,3.688-14.678,9.854-10.438,25.927s13.438,100.345,13.438,100.345
			l38.803-14.271c0,0-12.438-78.226-15.219-90.447S143.321,18.921,129.437,23.588z"/>
		<g>
			<g>
				<path style="fill:#EB8BB8;" d="M198.51,282.126c-56.312,0-101.962,17.246-101.962,53.695c0,16.883,9.799,33.658,25.91,46.807
					c3.238,2.643,6.736,5.135,10.457,7.455c2.578-11.521,7.964-22.475,15.391-31.656c12.326-15.238,30.249-25.604,50.204-25.604
					s37.878,10.365,50.203,25.604c7.428,9.182,12.813,20.135,15.393,31.656c3.72-2.32,7.219-4.812,10.456-7.455
					c16.11-13.148,25.909-29.924,25.909-46.807C300.471,299.372,254.822,282.126,198.51,282.126z"/>
				<path style="fill:#DB76AB;" d="M198.51,332.823c-19.955,0-37.878,10.365-50.204,25.604
					c-7.427,9.182-12.812,20.135-15.391,31.656c17.73,11.062,40.608,18.148,65.595,18.148s47.865-7.086,65.596-18.148
					c-2.579-11.521-7.965-22.475-15.393-31.656C236.388,343.188,218.465,332.823,198.51,332.823z"/>
			</g>
			<path style="fill:#F4F4F4;" d="M120.599,298.558c0,0,15.209,5.293,23.432,1.582c8.225-3.711,8.541-10.471,8.541-10.471
				s7.082,6.268,22.526,4.229c12.658-1.672,16.723-10.326,16.723-10.326s3.904,10.338,20.056,10.631
				c13.75,0.25,18.695-7.227,18.695-7.227s0.72,7.289,12.14,10.691c11.422,3.4,17.61-4.941,17.61-4.941s1.733,8.039,9.5,11.75
				s15.956,0.545,15.956,0.545s-15.986-23.902-86.456-23.895C157.539,281.132,126.034,292.649,120.599,298.558z"/>
			<path style="fill:#F4F4F4;" d="M150.833,399.149c0,0,9.614-4.379,18.155-3.008c9.333,1.5,12.678,8.143,12.678,8.143
				s4.064-6.863,14.615-6.883c10.549-0.02,15.275,8.289,15.275,8.289s5.197-7.631,14.098-9.215
				c9.455-1.682,16.074,4.365,16.074,4.365s-15.574,7.148-43.219,7.391C172.115,408.464,150.833,399.149,150.833,399.149z"/>
		</g>
		<path style="fill:#393A3A;" d="M134.562,249.579c1.464,5.752-5.5,1.84-13.645,4.625c-5.615,1.92-9.537,8.689-11,2.936
			c-1.465-5.752,5.029-12.168,10.781-13.631C126.451,242.043,133.098,243.827,134.562,249.579z"/>
		<path style="fill:#393A3A;" d="M260.473,244.579c-1.464,5.752,5.5,1.84,13.645,4.625c5.615,1.92,9.537,8.689,11,2.936
			c1.465-5.752-5.029-12.168-10.781-13.631C268.584,237.043,261.938,238.827,260.473,244.579z"/>
	</g>
</g>
<g id="Layer_1">
</g>
</svg>
