<?xml version="1.0" encoding="utf-8"?>
<!-- Generator: Adobe Illustrator 15.0.0, SVG Export Plug-In . SVG Version: 6.00 Build 0)  -->
<!DOCTYPE svg PUBLIC "-//W3C//DTD SVG 1.1//EN" "http://www.w3.org/Graphics/SVG/1.1/DTD/svg11.dtd">
<svg version="1.1" id="Layer_1" xmlns="http://www.w3.org/2000/svg" xmlns:xlink="http://www.w3.org/1999/xlink" x="0px" y="0px"
	 width="1224px" height="792px" viewBox="0 0 1224 792" enable-background="new 0 0 1224 792" xml:space="preserve">
<path fill="#393A39" d="M779.923,261.552c0,0-34.651,8.106-30.932,20.91C752.712,295.265,760.979,268.533,779.923,261.552z"/>
<path fill="#393A39" d="M778.76,259.102c0,0-21.59-4.739-22.84,2.621C754.669,269.083,766.291,257.788,778.76,259.102z"/>
<path fill="#393A39" d="M788.274,260.802c0,0-52.866-21.816-55.374-15.436C730.392,251.748,757.846,249.627,788.274,260.802z"/>
<path fill="#393A39" d="M1023.281,251.552c0,0,34.651,8.106,30.932,20.91C1050.492,285.265,1042.227,258.533,1023.281,251.552z"/>
<path fill="#393A39" d="M1024.444,249.102c0,0,21.59-4.739,22.84,2.621C1048.535,259.083,1036.913,247.788,1024.444,249.102z"/>
<path fill="#393A39" d="M1014.93,250.802c0,0,52.866-21.816,55.374-15.436C1072.812,241.748,1045.357,239.627,1014.93,250.802z"/>
<path fill="#FCD740" d="M858.01,447.866c0,0,5.581,55.559,23.361,55.608c17.78,0.051,6.637-54.493,22.637-55.591
	c16-1.097,6.28,82.931,23.28,82.98s26.72-82.999,26.72-82.999"/>
<circle fill="#FCD740" cx="906.009" cy="330.247" r="145.501"/>
<ellipse fill="#A2A0A1" cx="912.518" cy="568.258" rx="110.959" ry="13.438"/>
<path fill="#EDE3B9" d="M970.148,229.646c15.629,20.309,25.131,44.868,25.131,71.632c0,72.093-55.769,128.23-127.861,128.23
	c-23.213,0-44.705-6.065-63.185-16.688c23.036,31.077,59.565,51.117,101.775,51.117c72.095,0,127.861-56.14,127.861-128.231
	C1033.871,291.04,1007.418,252.507,970.148,229.646z"/>
<path fill="#F4EDD0" d="M995.279,301.278c0-26.764-9.502-51.323-25.131-71.632c-22.888-14.039-49.85-22.172-77.277-22.172
	c-72.095,0-114.5,53.829-114.5,125.925c0,29.885,9.551,57.418,25.862,79.421c18.479,10.623,39.972,16.688,63.185,16.688
	C939.512,429.51,995.279,373.371,995.279,301.278z"/>
<path fill="#393A39" d="M971.041,302.917c-3.689-4.648-4.734-9.564-0.085-13.257c4.647-3.69,13.229-4.759,16.921-0.11
	c3.692,4.649,2.912,11.411-1.736,15.103C981.492,308.342,974.73,307.566,971.041,302.917z"/>
<path fill="#393A39" d="M840.225,291.705c2.789,5.241,2.926,10.264-2.316,13.053c-5.239,2.787-13.873,2.284-16.661-2.957
	s-0.797-11.75,4.442-14.537C830.93,284.477,837.438,286.465,840.225,291.705z"/>
<path fill="#C6BB8F" d="M847.569,326.138c1.238-0.156,2.235,0.192,2.394,1.432c0.156,1.238-0.588,2.897-1.827,3.055
	c-1.237,0.156-2.369-0.722-2.524-1.96C845.454,327.425,846.331,326.294,847.569,326.138z"/>
<path fill="#C6BB8F" d="M880.127,333.758c1.239-0.157,2.236,0.192,2.395,1.432c0.155,1.238-0.589,2.897-1.827,3.055
	c-1.238,0.156-2.369-0.722-2.525-1.96C878.012,335.045,878.889,333.915,880.127,333.758z"/>
<path fill="#C6BB8F" d="M857.791,333.758c1.239-0.157,2.236,0.192,2.394,1.432c0.156,1.238-0.588,2.897-1.826,3.055
	c-1.238,0.156-2.369-0.722-2.525-1.96C855.676,335.045,856.553,333.915,857.791,333.758z"/>
<path fill="#C6BB8F" d="M869.506,321.599c1.239-0.156,2.236,0.192,2.395,1.432c0.155,1.238-0.589,2.897-1.827,3.055
	c-1.238,0.156-2.369-0.722-2.525-1.96C867.391,322.886,868.268,321.755,869.506,321.599z"/>
<path fill="#C6BB8F" d="M935.18,321.599c1.239-0.156,2.236,0.192,2.395,1.432c0.156,1.238-0.588,2.897-1.827,3.055
	c-1.238,0.156-2.369-0.722-2.525-1.96C933.064,322.886,933.941,321.755,935.18,321.599z"/>
<path fill="#C6BB8F" d="M955.984,320.954c1.238-0.157,2.235,0.192,2.394,1.431c0.156,1.239-0.588,2.898-1.827,3.056
	c-1.238,0.155-2.369-0.723-2.525-1.96C953.869,322.241,954.746,321.11,955.984,320.954z"/>
<path fill="#C6BB8F" d="M972.146,328.013c1.239-0.156,2.236,0.192,2.395,1.432c0.156,1.238-0.588,2.897-1.827,3.055
	c-1.238,0.156-2.369-0.722-2.524-1.96C970.032,329.3,970.909,328.169,972.146,328.013z"/>
<path fill="#C6BB8F" d="M940.993,331.489c1.239-0.157,2.235,0.191,2.394,1.431c0.156,1.239-0.588,2.898-1.827,3.055
	c-1.237,0.156-2.368-0.722-2.524-1.96C938.878,332.776,939.755,331.645,940.993,331.489z"/>
<g>
	<path fill="#EC8CB8" d="M854.83,345.6l-50.78,2.376c0,51.771,50.189,91.015,101.959,91.015c8.658,0,17.04-1.181,24.999-3.377
		C891.377,424.672,854.83,388.712,854.83,345.6z"/>
	<path fill="#F3A9CA" d="M999.746,339.976L854.83,345.6c0,43.112,36.547,79.072,76.178,90.014
		C981.631,423.476,999.746,383.088,999.746,339.976z"/>
</g>
<path fill="#393A39" d="M906.794,334.555c-8.589,0-18.888-8.531-16.462-17.542c1.971-7.316,32.325-6.669,33.042,0.487
	C924.09,324.657,912.875,334.555,906.794,334.555z"/>
<line fill="none" stroke="#393A39" stroke-width="2" stroke-miterlimit="10" x1="906.009" y1="323.833" x2="906.009" y2="343.613"/>
<path fill="#FCD740" d="M776.31,264.238c0,0-13.477-40.405-7.477-68.405c0,0,40.167-5.027,59.445,11.718"/>
<path fill="#FCD740" d="M1024.855,258.238c0,0,13.477-40.405,7.477-68.405c0,0-39.832-2.833-57.771,12.049"/>
<g>
	<path fill="#393A39" d="M909.446,234.706c-0.065-0.01-0.132-0.022-0.197-0.036c-2.163-0.451-3.55-2.57-3.1-4.732
		c3.781-18.135-6.679-31.66-6.772-31.804c-1.216-1.838-0.636-3.588,1.568-3.623c1.521-0.023,2.838-0.062,4.064,1.771
		c0.463,0.69,13.458,13.769,8.972,35.291C913.544,233.667,911.539,235.035,909.446,234.706z"/>
</g>
<g>
	<path fill="#393A39" d="M934.979,233.969c-0.065,0-0.134-0.001-0.2-0.005c-2.206-0.108-3.906-1.987-3.798-4.192
		c0.918-18.503-16.44-30.238-16.557-30.364c-1.486-1.627-2.486-2.279-0.759-3.647c1.584-1.254,3.782-0.706,6.641,1.226
		c0.689,0.466,19.753,11.225,18.665,33.183C938.865,232.306,937.098,233.969,934.979,233.969z"/>
</g>
<g>
	<path fill="#393A39" d="M887.989,234.129c-0.066-0.007-0.133-0.015-0.199-0.025c-2.184-0.336-3.681-2.379-3.345-4.562
		c2.912-18.919-1.363-29.455-1.414-29.59c-0.771-2.066-0.822-3.479,1.242-4.254c2.065-0.776,3.372,0.159,4.149,2.222
		c0.238,0.627,7.18,11.726,3.929,32.84C892.025,232.875,890.097,234.347,887.989,234.129z"/>
</g>
<path fill="#E8C52B" d="M782.5,252.5v-12h5v-6.531l6,0.786l2.5-5.107h4.892l3.158-10.646h8.185v-4.473h5.566
	c0,0-23.301-6.527-35.301-5.527C782.5,209,775.683,230.209,782.5,252.5z"/>
<path fill="#E8C52B" d="M985,211.5c0,0,18.152-8.514,33.5-8c0,0,7,22,1,37l-1.5-9.802l-7.5,3.271v-10.041h-5.173l-1.862-6.928
	l-8.186,1v-3.473L985,211.5z"/>
</svg>
