<?xml version="1.0" encoding="utf-8"?>
<!-- Generator: Adobe Illustrator 15.0.0, SVG Export Plug-In . SVG Version: 6.00 Build 0)  -->
<!DOCTYPE svg PUBLIC "-//W3C//DTD SVG 1.1//EN" "http://www.w3.org/Graphics/SVG/1.1/DTD/svg11.dtd">
<svg version="1.1" id="Layer_1" xmlns="http://www.w3.org/2000/svg" xmlns:xlink="http://www.w3.org/1999/xlink" x="0px" y="0px"
	 width="1224px" height="792px" viewBox="0 0 1224 792" enable-background="new 0 0 1224 792" xml:space="preserve">
<path fill="#BF8E4A" d="M568.023,466.866c0,0,5.581,55.559,23.361,55.608c17.78,0.051,6.637-54.493,22.638-55.591
	c16-1.097,6.279,82.931,23.279,82.98s26.721-82.999,26.721-82.999"/>
<path fill="#BF8E4A" d="M463.5,217.884c-15.5,21-15.074,43.926,2.5,61.5l41.458,36.171l63.64-63.639l-34.598-37.31
	C513.979,191.606,478.259,197.888,463.5,217.884z"/>
<path fill="#BF8E4A" d="M749.616,209.529c-21-15.5-43.926-15.074-61.5,2.5l-36.171,41.458l63.639,63.64l37.311-34.598
	C775.895,260.009,769.612,224.288,749.616,209.529z"/>
<circle fill="#BF8E4A" cx="616.021" cy="349.247" r="145.501"/>
<ellipse fill="#A2A0A1" cx="622.532" cy="587.258" rx="110.959" ry="13.438"/>
<path fill="#DDB780" d="M680.162,248.646c15.629,20.309,25.131,44.868,25.131,71.632c0,72.093-55.768,128.23-127.861,128.23
	c-23.213,0-44.705-6.065-63.185-16.688c23.037,31.077,59.566,51.117,101.776,51.117c72.094,0,127.86-56.14,127.86-128.231
	C743.885,310.04,717.432,271.507,680.162,248.646z"/>
<path fill="#F2CF98" d="M705.293,320.278c0-26.764-9.502-51.323-25.131-71.632c-22.887-14.039-49.85-22.172-77.277-22.172
	c-72.095,0-114.5,53.829-114.5,125.925c0,29.885,9.551,57.418,25.862,79.421c18.479,10.623,39.972,16.688,63.185,16.688
	C649.525,448.51,705.293,392.371,705.293,320.278z"/>
<path fill="#393A39" d="M700.318,315.512c0,5.937-2.239,10.436-8.178,10.436c-5.935,0-13.319-4.499-13.319-10.436
	c0-5.936,4.813-10.747,10.75-10.747C695.506,304.765,700.318,309.576,700.318,315.512z"/>
<path fill="#393A39" d="M539.484,304.932c5.89-0.743,10.633,0.915,11.377,6.807c0.743,5.888-2.795,13.778-8.685,14.521
	c-5.89,0.744-11.266-3.431-12.009-9.318C529.425,311.052,533.595,305.675,539.484,304.932z"/>
<g>
	<path fill="#EC8CB8" d="M564.844,364.6l-50.78,2.376c0,51.771,50.189,91.015,101.959,91.015c8.658,0,17.039-1.181,24.998-3.377
		C601.391,443.672,564.844,407.712,564.844,364.6z"/>
	<path fill="#F3A9CA" d="M709.76,358.976L564.844,364.6c0,43.112,36.547,79.072,76.178,90.014
		C691.645,442.476,709.76,402.088,709.76,358.976z"/>
</g>
<path fill="#393A39" d="M616.832,356.221c-10.584,0.631-27.332-15.13-20.323-26.655c4.861-7.994,39.761-4.362,40.646,4.474
	C638.038,342.875,630.085,355.431,616.832,356.221z"/>
<line fill="none" stroke="#393A39" stroke-width="2" stroke-miterlimit="10" x1="616.021" y1="342.833" x2="616.021" y2="362.613"/>
<path fill="#4B4A4B" d="M604.946,350.95c0,0,0.072-7.033,4.77-7.033c4.698,0,3.092,11.827,3.092,11.827"/>
<path fill="#4B4A4B" d="M629.663,349.712c0,0-0.08-6.962-5.241-6.962s-3.396,12.994-3.396,12.994"/>
<path fill="#AD7A39" d="M489.092,281.552l1.658-15.302l5.648,3.622l2.852-12.132l5.365,1.396L506,250.25l5.71,1.038L515.75,241h5.5
	l3.25-11.25l10.893,1.839c0,0-32.907-29.089-54.143-10.589C450.514,247.776,482.434,270.854,489.092,281.552z"/>
<path fill="#AD7A39" d="M740.525,277.386V264h-9.176v-12l-8.892,1.521L717.75,239H712v-6.5l-11.682-1v-5.024h-7.568
	c0,0,24.52-30.976,51.135-8.476S752.301,272.521,740.525,277.386z"/>
<polyline fill="#BF8E4A" points="571.098,230.338 571.098,237.167 580.833,231.833 586.5,237.167 596.839,226.476 600.833,231.821 
	611.5,226.476 617.5,234.5 631.833,226.476 637.22,239.5 651.945,230.833 629.663,218.5 579.833,221.833 "/>
</svg>
