<?xml version="1.0" encoding="utf-8"?>
<!-- Generator: Adobe Illustrator 15.0.0, SVG Export Plug-In . SVG Version: 6.00 Build 0)  -->
<!DOCTYPE svg PUBLIC "-//W3C//DTD SVG 1.1//EN" "http://www.w3.org/Graphics/SVG/1.1/DTD/svg11.dtd">
<svg version="1.1" id="Layer_1" xmlns="http://www.w3.org/2000/svg" xmlns:xlink="http://www.w3.org/1999/xlink" x="0px" y="0px"
	 width="291.002px" height="524.994px" viewBox="0 0 291.002 524.994" enable-background="new 0 0 291.002 524.994"
	 xml:space="preserve">
<path fill="#BCBCBC" d="M97.502,391.286c0,0,5.58,55.559,23.361,55.609c17.779,0.051,6.637-54.494,22.637-55.592
	c16-1.096,6.279,82.932,23.279,82.98c17,0.051,26.721-82.998,26.721-82.998"/>
<path fill="#BCBCBC" d="M78.062,1.023c-16.079,4.733-24.759,16.63-22.583,32.442l20.761,146.83l57.258-7.877l-16.808-144.75
	C114.086,7.162,93.371-3.483,78.062,1.023z"/>
<path fill="#BCBCBC" d="M250.964,34.142c-15.926-5.222-37.044-6.256-44.221,8l-61.992,117.283l51.623,25.991l68.264-128.744
	C274.126,38.304,266.13,39.113,250.964,34.142z"/>
<circle fill="#BCBCBC" cx="145.501" cy="273.668" r="145.501"/>
<ellipse fill="#A2A0A1" cx="152.01" cy="511.679" rx="110.959" ry="13.438"/>
<path fill="#D8D9D8" d="M209.641,173.067c15.629,20.309,25.131,44.868,25.131,71.632c0,72.093-55.769,128.23-127.861,128.23
	c-23.213,0-44.705-6.064-63.186-16.688c23.037,31.076,59.565,51.117,101.776,51.117c72.095,0,127.861-56.141,127.861-128.232
	C273.363,234.46,246.91,195.927,209.641,173.067z"/>
<path fill="#F0EFEF" d="M234.771,244.699c0-26.764-9.502-51.323-25.131-71.632c-22.888-14.039-49.851-22.172-77.277-22.172
	c-72.096,0-114.5,53.829-114.5,125.924c0,29.885,9.551,57.418,25.861,79.422c18.479,10.623,39.973,16.688,63.186,16.688
	C179.004,372.931,234.771,316.792,234.771,244.699z"/>
<path fill="#393A39" d="M215.697,248.138c0,4.945-1.866,8.692-6.812,8.692c-4.943,0-11.098-3.748-11.098-8.692
	s4.011-8.953,8.955-8.953S215.697,243.194,215.697,248.138z"/>
<path fill="#393A39" d="M81.033,239.325c4.905-0.62,8.857,0.761,9.479,5.669c0.617,4.904-2.329,11.479-7.235,12.098
	c-4.906,0.62-9.386-2.858-10.004-7.764C72.651,244.422,76.127,239.944,81.033,239.325z"/>
<g>
	<path fill="#EC8CB8" d="M94.322,289.021l-50.781,2.375c0,51.771,50.189,91.016,101.959,91.016c8.658,0,17.041-1.182,25-3.377
		C130.869,368.093,94.322,332.132,94.322,289.021z"/>
	<path fill="#F3A9CA" d="M239.238,283.396l-144.916,5.625c0,43.111,36.547,79.072,76.178,90.014
		C221.123,366.896,239.238,326.509,239.238,283.396z"/>
</g>
<path fill="#393A39" d="M145.947,277.589c-5.779,0.344-14.923-8.261-11.097-14.554c2.653-4.365,21.708-2.381,22.19,2.442
	C157.525,270.301,153.184,277.157,145.947,277.589z"/>
<line fill="none" stroke="#393A39" stroke-width="2" stroke-miterlimit="10" x1="145.5" y1="267.253" x2="145.5" y2="287.034"/>
<polyline fill="#BCBCBC" points="100.576,154.758 100.576,161.587 110.312,156.253 115.979,161.587 126.316,150.896 
	130.312,156.242 140.979,150.896 146.979,158.92 161.312,150.896 166.698,163.92 181.424,155.253 159.141,142.92 109.312,146.253 
	"/>
<path fill="#ACACAC" d="M172.416,130.641c0,0,31.581-64.5,34.327-70.5s6.08-25.333,29.413-21s14.784,27.679,4.059,51.005
	c-10.725,23.327-31.875,49.712-31.875,49.712"/>
<path fill="#BCBCBC" d="M266.688,40.051c9.197,12.577,9.691,49.423-4.976,50.089s-31.225-52-44.557-48l-0.572-3.627l20.404-4.373"/>
<path fill="#ACACAC" d="M77.438,16.587c-10.975,3.688-14.68,9.854-10.438,25.927C71.24,58.587,80.438,142.86,80.438,142.86
	l38.802-14.271c0,0-12.438-78.226-15.219-90.446C101.239,25.922,91.322,11.92,77.438,16.587z"/>
</svg>
